# SSTK version 0.8.0
# 5
mtllib original-5.mtl
o mesh4/mesh4-geometry#mesh4-geometry
v 0.007006 0.991304 -0.066737
v 0.018626 0.892098 -0.065822
v 0.007006 0.892098 -0.066737
v 0.018626 0.991304 -0.065822
v -0.004614 0.991304 -0.065822
v 0.018626 0.991304 0.080906
v 0.029959 0.892098 -0.063101
v -0.004614 0.892098 -0.065822
v 0.007006 0.991304 0.081821
v 0.029959 0.991304 -0.063101
v -0.015948 0.991304 -0.063101
v -0.004614 0.991304 0.080906
v 0.007006 0.892098 0.081821
v 0.029959 0.991304 0.078185
v 0.040728 0.892098 -0.058641
v -0.015948 0.892098 -0.063101
v -0.004614 0.892098 0.080906
v 0.018626 0.892098 0.080906
v 0.040728 0.991304 0.073725
v 0.040728 0.991304 -0.058641
v -0.026716 0.991304 -0.058641
v -0.015948 0.991304 0.078185
v -0.015948 0.892098 0.078185
v 0.029959 0.892098 0.078185
v 0.050666 0.892098 -0.052551
v -0.026716 0.892098 -0.058641
v -0.026716 0.991304 0.073725
v 0.040728 0.892098 0.073725
v 0.050666 0.991304 0.067635
v 0.050666 0.991304 -0.052551
v -0.036654 0.991304 -0.052551
v -0.036654 0.991304 0.067635
v -0.026716 0.892098 0.073725
v 0.059529 0.892098 -0.044981
v -0.036654 0.892098 -0.052551
v -0.036654 0.892098 0.067635
v 0.050666 0.892098 0.067635
v 0.059529 0.991304 0.060065
v 0.059529 0.991304 -0.044981
v -0.045517 0.991304 -0.044981
v -0.045517 0.892098 0.060065
v 0.067099 0.892098 -0.036118
v -0.043415 0.892098 -0.047003
v -0.045517 0.991304 0.060065
v 0.059529 0.892098 0.060065
v 0.067099 0.991304 0.051202
v 0.067099 0.991304 -0.036118
v -0.049476 0.892098 -0.040698
v -0.053087 0.991304 -0.036118
v -0.053087 0.892098 0.051202
v 0.067099 0.892098 0.051202
v 0.073189 0.991304 -0.026180
v -0.053087 0.991304 0.051202
v 0.073189 0.892098 0.041264
v 0.073189 0.991304 0.041264
v 0.073189 0.892098 -0.026180
v -0.054755 0.892098 -0.033725
v -0.059177 0.991304 -0.026180
v -0.059177 0.991304 0.041264
v 0.077649 0.991304 -0.015411
v 0.077649 0.991304 0.030495
v -0.059177 0.892098 0.041264
v 0.077649 0.892098 0.030495
v 0.077649 0.892098 -0.015411
v -0.059177 0.892098 -0.026180
v -0.063638 0.991304 -0.015411
v -0.063638 0.991304 0.030495
v 0.080370 0.991304 -0.004078
v 0.080370 0.991304 0.019162
v 0.080370 0.892098 0.019162
v -0.063638 0.892098 0.030495
v 0.080370 0.892098 -0.004078
v -0.062682 0.892098 -0.018167
v -0.066359 0.991304 -0.004078
v -0.066359 0.991304 0.019162
v 0.081285 0.991304 0.007542
v 0.081285 0.892098 0.007542
v -0.065221 0.892098 -0.009798
v -0.066359 0.892098 0.019162
v -0.067273 0.991304 0.007542
v -0.066758 0.892098 -0.001188
v -0.067273 0.892098 0.007542
vt 320 -1.019968
vt 302.637304 1.019968
vt 302.637304 -1.019968
vt 320 1.019968
vt -13 0
vt 12.839948 2.033648
vt -12.839948 2.033648
vt -12.839948 -2.033648
vt 13 0
vt -12.363735 4.017221
vt 12.839948 -2.033648
vt -302.637304 -1.019968
vt -320 1.019968
vt -320 -1.019968
vt 12.363735 4.017221
vt -12.363735 -4.017221
vt -302.637304 1.019968
vt 11.583085 5.901876
vt 12.363735 -4.017221
vt -11.583085 5.901876
vt -11.583085 -5.901876
vt 11.583085 -5.901876
vt 10.517221 7.641208
vt 10.517221 -7.641208
vt -10.517221 7.641208
vt -10.517221 -7.641208
vt 9.192388 9.192388
vt -9.192388 -9.192388
vt -9.192388 9.192388
vt 319.971144 -0.668488
vt 302.604572 1.338182
vt 302.607469 -0.192456
vt 9.192388 -9.192388
vt 7.641208 10.517221
vt 302.652782 0.401984
vt 302.650945 -1.128656
vt 320.014865 -0.128942
vt -7.641208 -10.517221
vt -7.641208 10.517221
vt 319.96531 1.884652
vt 302.605387 0.817766
vt 319.970823 -0.155277
vt 7.641208 -10.517221
vt 5.901876 11.583085
vt -5.901876 11.583085
vt 302.652897 0.303827
vt 302.650563 -1.226812
vt 320.014028 -0.743205
vt -5.901876 -11.583085
vt 4.017221 12.363735
vt 319.972932 1.923729
vt 302.611718 1.3651
vt 319.978694 -0.1162
vt 5.901876 -11.583085
vt -4.017221 12.363735
vt 302.637304 0.76532
vt 302.637304 -0.76532
vt 320 -0.76532
vt -4.017221 -12.363735
vt 2.033648 12.839948
vt 4.017221 -12.363735
vt -2.033648 12.839948
vt 302.598319 2.361134
vt 302.606391 0.830514
vt 319.971576 0.413183
vt -2.033648 -12.839948
vt 0 13
vt 302.652802 -0.3863
vt 302.646978 -1.91693
vt 320.013444 -0.962446
vt 2.033648 -12.839948
vt 319.944644 4.095918
vt 302.592509 2.909082
vt 319.964255 2.056076
vt 0 -13
vt 302.650706 -1.190901
vt 302.640813 -2.721509
vt 320.006455 -2.323662
vt 319.87731 8.055096
vt 302.529989 7.163872
vt 319.922162 6.015653
vn 0 0 -1
vn 0.15643406400501036 0 -0.9876884041127931
vn 0 0 1
vn -0.15643406400501036 0 0.9876884041127931
vn -0.15643406400501036 0 -0.9876884041127931
vn 0.15643406400501036 0 0.9876884041127931
vn 0 1 0
vn 0 -1 0
vn 0.3090168573056278 0 -0.9510565608316645
vn -0.3090168573056278 0 0.9510565608316645
vn -0.3090168573056278 0 -0.9510565608316645
vn 0.3090168573056278 0 0.9510565608316645
vn 0.4539899105301741 0 -0.8910068244052928
vn -0.4539899105301741 0 0.8910068244052928
vn -0.4539899105301741 0 -0.8910068244052928
vn 0.4539899105301741 0 0.8910068244052928
vn 0.5877850844899974 0 -0.8090171162905557
vn -0.5877850844899974 0 0.8090171162905557
vn -0.5877850844899974 0 -0.8090171162905557
vn 0.5877850844899974 0 0.8090171162905557
vn 0.7071067811865476 0 -0.7071067811865476
vn -0.7071067811865476 0 0.7071067811865476
vn -0.6035857722547576 0.0007709997090860593 -0.7972976991632903
vn 0.6035857722547576 -0.0007709997090860593 0.7972976991632903
vn -0.693077538915766 0.0008669994232106186 -0.7208625204312297
vn 0.693077538915766 -0.0008669994232106186 0.7208625204312297
vn 0.7071067811865476 0 0.7071067811865476
vn -0.7071067811865476 0 -0.7071067811865476
vn 0.8090171162905557 0 -0.5877850844899974
vn -0.8090171162905557 0 0.5877850844899974
vn -0.6788010236854045 0.0005770000201332621 -0.7343220256226989
vn 0.6788010236854045 -0.0005770000201332621 0.7343220256226989
vn -0.7604060039769234 0 -0.649448003396613
vn 0.7604060039769234 0 0.649448003396613
vn 0.8090171162905557 0 0.5877850844899974
vn -0.8090171162905557 0 -0.5877850844899974
vn 0.8910068244052928 0 -0.4539899105301741
vn -0.8910068244052928 0 0.4539899105301741
vn -0.8051442801435598 0.000964000335416263 -0.5930782063568532
vn 0.8051442801435598 -0.000964000335416263 0.5930782063568532
vn 0.8910068244052928 0 0.4539899105301741
vn -0.8910068244052928 0 -0.4539899105301741
vn -0.8386782542549961 0.00019200005820703447 -0.5446271651100133
vn 0.8386782542549961 -0.00019200005820703447 0.5446271651100133
vn 0.9510565608316645 0 -0.3090168573056278
vn -0.9510565608316645 0 0.3090168573056278
vn -0.8819032291215751 0.0005780001501664814 -0.4714301224792117
vn 0.8819032291215751 -0.0005780001501664814 0.4714301224792117
vn 0.9510565608316645 0 0.3090168573056278
vn -0.9510565608316645 0 -0.3090168573056278
vn -0.9025954034394758 0.0007700003441725206 -0.43048919241881073
vn 0.9025954034394758 -0.0007700003441725206 0.43048919241881073
vn 0.9876884041127931 0 -0.15643406400501036
vn -0.9876884041127931 0 0.15643406400501036
vn 0.9876884041127931 0 0.15643406400501036
vn -0.9876884041127931 0 -0.15643406400501036
vn -0.94480118105274 0.0008670001661436912 -0.3276430627864099
vn 0.94480118105274 -0.0008670001661436912 0.3276430627864099
vn -0.9381911580387831 0.0005770000971959631 -0.34611705830359646
vn 0.9381911580387831 -0.0005770000971959631 0.34611705830359646
vn 1 0 0
vn -1 0 0
vn -0.9723700073292391 0 -0.23344500175959174
vn 0.9723700073292391 0 0.23344500175959174
vn -0.9866406376770118 0.000963999645991439 -0.1629089401751238
vn 0.9866406376770118 -0.000963999645991439 0.1629089401751238
vn -0.9945233925439304 0.00019200007578350087 -0.10451404125227504
vn 0.9945233925439304 -0.00019200007578350087 0.10451404125227504
vn -0.9998063202860065 0.000578000185161233 -0.019672006301888884
vn 0.9998063202860065 -0.000578000185161233 0.019672006301888884
vn -0.9999518121125719 0 0.009816998155420578
vn 0.9999518121125719 0 -0.009816998155420578
usemtl material_0_0
f 1/1/1 2/2/2 3/3/1
f 2/2/2 1/1/1 4/4/2
f 3/3/3 2/2/4 1/1/3
f 4/4/4 1/1/3 2/2/4
f 3/2/1 5/1/5 1/4/1
f 1/4/3 5/1/6 3/2/3
f 1/5/7 6/6/7 4/7/7
f 4/7/8 6/6/8 1/5/8
f 4/1/2 7/2/9 2/3/2
f 2/3/4 7/2/10 4/1/4
f 5/1/5 3/2/1 8/3/5
f 8/3/6 3/2/3 5/1/6
f 5/8/7 9/9/7 1/5/7
f 1/5/8 9/9/8 5/8/8
f 1/5/7 9/9/7 6/6/7
f 6/6/8 9/9/8 1/5/8
f 4/7/7 6/6/7 10/10/7
f 10/10/8 6/6/8 4/7/8
f 7/2/9 4/1/2 10/4/9
f 10/4/10 4/1/4 7/2/10
f 8/2/5 11/1/11 5/4/5
f 5/4/6 11/1/12 8/2/6
f 5/8/7 12/11/7 9/9/7
f 9/9/8 12/11/8 5/8/8
f 13/12/3 6/13/6 9/14/3
f 9/14/1 6/13/5 13/12/1
f 10/10/7 6/6/7 14/15/7
f 14/15/8 6/6/8 10/10/8
f 10/1/9 15/2/13 7/3/9
f 7/3/10 15/2/14 10/1/10
f 11/1/11 8/2/5 16/3/11
f 16/3/12 8/2/6 11/1/12
f 11/16/7 12/11/7 5/8/7
f 5/8/8 12/11/8 11/16/8
f 17/12/4 9/13/3 12/14/4
f 12/14/2 9/13/1 17/12/2
f 6/13/6 13/12/3 18/17/6
f 18/17/5 13/12/1 6/13/5
f 9/13/3 17/12/4 13/17/3
f 13/17/1 17/12/2 9/13/1
f 18/12/6 14/13/12 6/14/6
f 6/14/5 14/13/11 18/12/5
f 10/10/7 14/15/7 19/18/7
f 19/18/8 14/15/8 10/10/8
f 15/2/13 10/1/9 20/4/13
f 20/4/14 10/1/10 15/2/14
f 16/2/11 21/1/15 11/4/11
f 11/4/12 21/1/16 16/2/12
f 11/16/7 22/19/7 12/11/7
f 12/11/8 22/19/8 11/16/8
f 12/13/4 23/12/10 17/17/4
f 17/17/2 23/12/9 12/13/2
f 14/13/12 18/12/6 24/17/12
f 24/17/11 18/12/5 14/13/11
f 24/12/12 19/13/16 14/14/12
f 14/14/11 19/13/15 24/12/11
f 10/10/7 19/18/7 20/20/7
f 20/20/8 19/18/8 10/10/8
f 20/1/13 25/2/17 15/3/13
f 15/3/14 25/2/18 20/1/14
f 21/1/15 16/2/11 26/3/15
f 26/3/16 16/2/12 21/1/16
f 21/21/7 27/22/7 11/16/7
f 11/16/8 27/22/8 21/21/8
f 11/16/7 27/22/7 22/19/7
f 22/19/8 27/22/8 11/16/8
f 23/12/10 12/13/4 22/14/10
f 22/14/9 12/13/2 23/12/9
f 19/13/16 24/12/12 28/17/16
f 28/17/15 24/12/11 19/13/15
f 20/20/7 19/18/7 29/23/7
f 29/23/8 19/18/8 20/20/8
f 25/2/17 20/1/13 30/4/17
f 30/4/18 20/1/14 25/2/18
f 26/2/15 31/1/19 21/4/15
f 21/4/16 31/1/20 26/2/16
f 21/21/7 32/24/7 27/22/7
f 27/22/8 32/24/8 21/21/8
f 33/12/14 22/13/10 27/14/14
f 27/14/13 22/13/9 33/12/13
f 22/13/10 33/12/14 23/17/10
f 23/17/9 33/12/13 22/13/9
f 28/12/16 29/13/20 19/14/16
f 19/14/15 29/13/19 28/12/15
f 20/20/7 29/23/7 30/25/7
f 30/25/8 29/23/8 20/20/8
f 30/1/17 34/2/21 25/3/17
f 25/3/18 34/2/22 30/1/18
f 31/1/19 26/2/15 35/3/23
f 35/3/24 26/2/16 31/1/20
f 31/26/7 32/24/7 21/21/7
f 21/21/8 32/24/8 31/26/8
f 36/12/18 27/13/14 32/14/18
f 32/14/17 27/13/13 36/12/17
f 27/13/14 36/12/18 33/17/14
f 33/17/13 36/12/17 27/13/13
f 29/13/20 28/12/16 37/17/20
f 37/17/19 28/12/15 29/13/19
f 30/25/7 29/23/7 38/27/7
f 38/27/8 29/23/8 30/25/8
f 34/2/21 30/1/17 39/4/21
f 39/4/22 30/1/18 34/2/22
f 31/4/19 35/2/23 40/1/25
f 40/1/26 35/2/24 31/4/20
f 40/28/7 32/24/7 31/26/7
f 31/26/8 32/24/8 40/28/8
f 32/13/18 41/12/22 36/17/18
f 36/17/17 41/12/21 32/13/17
f 37/12/20 38/13/27 29/14/20
f 29/14/19 38/13/28 37/12/19
f 30/25/7 38/27/7 39/29/7
f 39/29/8 38/27/8 30/25/8
f 39/1/21 42/2/29 34/3/21
f 34/3/22 42/2/30 39/1/22
f 40/30/25 35/31/23 43/32/31
f 43/32/32 35/31/24 40/30/26
f 40/28/7 44/33/7 32/24/7
f 32/24/8 44/33/8 40/28/8
f 41/12/22 32/13/18 44/14/22
f 44/14/21 32/13/17 41/12/21
f 38/13/27 37/12/20 45/17/27
f 45/17/28 37/12/19 38/13/28
f 39/29/7 38/27/7 46/34/7
f 46/34/8 38/27/8 39/29/8
f 42/2/29 39/1/21 47/4/29
f 47/4/30 39/1/22 42/2/30
f 43/35/31 48/36/33 40/37/25
f 40/37/26 48/36/34 43/35/32
f 49/38/7 44/33/7 40/28/7
f 40/28/8 44/33/8 49/38/8
f 44/13/22 50/12/30 41/17/22
f 41/17/21 50/12/29 44/13/21
f 51/17/35 38/14/27 45/12/27
f 45/12/28 38/14/28 51/17/36
f 38/14/27 51/17/35 46/13/35
f 46/13/36 51/17/36 38/14/28
f 39/29/7 46/34/7 47/39/7
f 47/39/8 46/34/8 39/29/8
f 52/4/37 42/3/29 47/1/29
f 47/1/30 42/3/30 52/4/38
f 40/40/25 48/41/33 49/42/39
f 49/42/40 48/41/34 40/40/26
f 49/38/7 53/43/7 44/33/7
f 44/33/8 53/43/8 49/38/8
f 50/12/30 44/13/22 53/14/30
f 53/14/29 44/13/21 50/12/29
f 54/17/41 46/14/35 51/12/35
f 51/12/36 46/14/36 54/17/42
f 47/39/7 46/34/7 55/44/7
f 55/44/8 46/34/8 47/39/8
f 42/3/29 52/4/37 56/2/37
f 56/2/38 52/4/38 42/3/30
f 47/39/7 55/44/7 52/45/7
f 52/45/8 55/44/8 47/39/8
f 48/46/33 57/47/43 49/48/39
f 49/48/40 57/47/44 48/46/34
f 58/49/7 53/43/7 49/38/7
f 49/38/8 53/43/8 58/49/8
f 59/14/38 50/17/30 53/13/30
f 53/13/29 50/17/29 59/14/37
f 46/14/35 54/17/41 55/13/41
f 55/13/42 54/17/42 46/14/36
f 60/4/45 56/3/37 52/1/37
f 52/1/38 56/3/38 60/4/46
f 52/45/7 55/44/7 61/50/7
f 61/50/8 55/44/8 52/45/8
f 49/51/39 57/52/43 58/53/47
f 58/53/48 57/52/44 49/51/40
f 58/49/7 59/54/7 53/43/7
f 53/43/8 59/54/8 58/49/8
f 50/17/30 59/14/38 62/12/38
f 62/12/37 59/14/37 50/17/29
f 63/17/49 55/14/41 54/12/41
f 54/12/42 55/14/42 63/17/50
f 56/3/37 60/4/45 64/2/45
f 64/2/46 60/4/46 56/3/38
f 52/45/7 61/50/7 60/55/7
f 60/55/8 61/50/8 52/45/8
f 55/14/41 63/17/49 61/13/49
f 61/13/50 63/17/50 55/14/42
f 57/56/43 65/57/51 58/58/47
f 58/58/48 65/57/52 57/56/44
f 66/59/7 59/54/7 58/49/7
f 58/49/8 59/54/8 66/59/8
f 67/14/46 62/17/38 59/13/38
f 59/13/37 62/17/37 67/14/45
f 68/4/53 64/3/45 60/1/45
f 60/1/46 64/3/46 68/4/54
f 60/55/7 61/50/7 69/60/7
f 69/60/8 61/50/8 60/55/8
f 70/17/55 61/14/49 63/12/49
f 63/12/50 61/14/50 70/17/56
f 65/2/51 66/1/57 58/4/47
f 58/4/48 66/1/58 65/2/52
f 66/59/7 67/61/7 59/54/7
f 59/54/8 67/61/8 66/59/8
f 62/17/38 67/14/46 71/12/46
f 71/12/45 67/14/45 62/17/37
f 64/3/45 68/4/53 72/2/53
f 72/2/54 68/4/54 64/3/46
f 60/55/7 69/60/7 68/62/7
f 68/62/8 69/60/8 60/55/8
f 61/14/49 70/17/55 69/13/55
f 69/13/56 70/17/56 61/14/50
f 65/63/51 73/64/59 66/65/57
f 66/65/58 73/64/60 65/63/52
f 74/66/7 67/61/7 66/59/7
f 66/59/8 67/61/8 74/66/8
f 75/14/54 71/17/46 67/13/46
f 67/13/45 71/17/45 75/14/53
f 76/4/61 72/3/53 68/1/53
f 68/1/54 72/3/54 76/4/62
f 68/62/7 69/60/7 76/67/7
f 76/67/8 69/60/8 68/62/8
f 77/17/61 69/14/55 70/12/55
f 70/12/56 69/14/56 77/17/62
f 73/68/59 78/69/63 66/70/57
f 66/70/58 78/69/64 73/68/60
f 74/66/7 75/71/7 67/61/7
f 67/61/8 75/71/8 74/66/8
f 66/72/57 78/73/63 74/74/65
f 74/74/66 78/73/64 66/72/58
f 71/17/46 75/14/54 79/12/54
f 79/12/53 75/14/53 71/17/45
f 72/3/53 76/4/61 77/2/61
f 77/2/62 76/4/62 72/3/54
f 69/14/55 77/17/61 76/13/61
f 76/13/62 77/17/62 69/14/56
f 75/71/7 74/66/7 80/75/7
f 80/75/8 74/66/8 75/71/8
f 78/76/63 81/77/67 74/78/65
f 74/78/66 81/77/68 78/76/64
f 80/14/69 79/17/54 75/13/54
f 75/13/53 79/17/53 80/14/70
f 74/79/65 81/80/67 80/81/69
f 80/81/70 81/80/68 74/79/66
f 79/17/54 80/14/69 82/12/71
f 82/12/72 80/14/70 79/17/53
f 81/56/67 82/57/71 80/58/69
f 80/58/70 82/57/72 81/56/68
