# SSTK version 0.8.0
# 1
mtllib original-1.mtl
o Group1/mesh1/mesh1-geometry#mesh1-geometry
v 0.182247 -0.306010 -0.460811
v 0.182247 -0.374341 -0.870796
v 0.182247 -0.306010 -0.870796
v 0.182247 -0.374341 -0.460811
v 0.113916 -0.374341 -0.939127
v -0.159407 -0.374341 -0.870796
v 0.070370 -0.306010 -0.716536
v -0.159407 -0.374341 -0.460811
v 0.065880 -0.374341 -0.664431
v 0.113916 -0.306010 -0.939127
v -0.159407 -0.306010 -0.870796
v 0.036701 -0.374341 -0.756555
v 0.062810 -0.306010 -0.732693
v 0.073491 -0.306010 -0.698973
v -0.159407 -0.306010 -0.460811
v 0.055668 -0.374341 -0.649806
v 0.071959 -0.374341 -0.681201
v -0.091076 -0.374341 -0.939127
v 0.036701 -0.306010 -0.756555
v -0.091076 -0.306010 -0.939127
v 0.051326 -0.374341 -0.746342
v 0.019931 -0.374341 -0.762634
v 0.051326 -0.306010 -0.746342
v 0.070370 -0.374341 -0.716536
v 0.073491 -0.374341 -0.698973
v 0.071959 -0.306010 -0.681201
v 0.055668 -0.306010 -0.649806
v 0.042019 -0.374341 -0.638322
v 0.065880 -0.306010 -0.664431
v 0.019931 -0.306010 -0.762634
v -0.063033 -0.374341 -0.692833
v 0.062810 -0.374341 -0.732693
v 0.002159 -0.374341 -0.764165
v 0.042019 -0.306010 -0.638322
v -0.063033 -0.306010 -0.692833
v 0.025862 -0.374341 -0.630762
v 0.002159 -0.306010 -0.764165
v -0.061502 -0.374341 -0.710605
v -0.059912 -0.374341 -0.675270
v -0.015404 -0.374341 -0.761044
v 0.025862 -0.306010 -0.630762
v -0.059912 -0.306010 -0.675270
v -0.061502 -0.306010 -0.710605
v 0.008299 -0.374341 -0.627641
v -0.015404 -0.306010 -0.761044
v -0.055423 -0.374341 -0.727375
v -0.052353 -0.374341 -0.659113
v -0.031561 -0.374341 -0.753484
v 0.008299 -0.306010 -0.627641
v -0.052353 -0.306010 -0.659113
v -0.055423 -0.306010 -0.727375
v -0.009473 -0.374341 -0.629173
v -0.031561 -0.306010 -0.753484
v -0.045211 -0.374341 -0.742000
v -0.040869 -0.374341 -0.645464
v -0.009473 -0.306010 -0.629173
v -0.040869 -0.306010 -0.645464
v -0.045211 -0.306010 -0.742000
v -0.026243 -0.374341 -0.635251
v -0.026243 -0.306010 -0.635251
vn 1 0 0
vn -1 0 0
vn 0.7071067811865476 0 -0.7071067811865476
vn -0.7071067811865476 0 0.7071067811865476
vn 0 0 1
vn 0 0 -1
vn 0 1 0
vn 0 -1 0
vn -0.7071067811865476 0 -0.7071067811865476
vn 0.7071067811865476 0 0.7071067811865476
vn -0.842684211378934 0 0.5384081350543135
vn -0.953320920530218 0 0.30195897482839895
vn 0.953320920530218 0 -0.30195897482839895
vn 0.842684211378934 0 -0.5384081350543135
vn -0.9989900027027675 0 0.04493300012156624
vn 0.9989900027027675 0 -0.04493300012156624
vn -0.738165106434189 0 -0.6746200972717923
vn -0.8876171254145392 0 -0.46058206507725663
vn 0.8876171254145392 0 0.46058206507725663
vn 0.738165106434189 0 0.6746200972717923
vn -0.9765797066667508 0 -0.2151559353740517
vn 0.9765797066667508 0 0.2151559353740517
vn -0.6746200972717923 0 0.738165106434189
vn -0.46058206507725663 0 0.8876171254145392
vn 0.6746200972717923 0 -0.738165106434189
vn 0.46058206507725663 0 -0.8876171254145392
vn -0.2151559353740517 0 0.9765797066667508
vn 0.2151559353740517 0 -0.9765797066667508
vn -0.5384081350543135 0 -0.842684211378934
vn 0.5384081350543135 0 0.842684211378934
vn 0.04493300012156624 0 0.9989900027027675
vn -0.04493300012156624 0 -0.9989900027027675
vn -0.30195897482839895 0 -0.953320920530218
vn 0.30195897482839895 0 0.953320920530218
usemtl material_0_0
f 1//1 2//1 3//1
f 2//1 1//1 4//1
f 3//2 2//2 1//2
f 4//2 1//2 2//2
f 5//3 3//3 2//3
f 2//4 3//4 5//4
f 3//5 6//5 2//5
f 2//6 6//6 3//6
f 3//7 7//7 1//7
f 1//8 7//8 3//8
f 1//5 8//5 4//5
f 4//6 8//6 1//6
f 4//8 9//8 2//8
f 2//7 9//7 4//7
f 3//3 5//3 10//3
f 10//4 5//4 3//4
f 6//8 5//8 2//8
f 2//7 5//7 6//7
f 6//5 3//5 11//5
f 11//6 3//6 6//6
f 2//8 12//8 6//8
f 6//7 12//7 2//7
f 7//7 3//7 13//7
f 13//8 3//8 7//8
f 1//7 7//7 14//7
f 14//8 7//8 1//8
f 8//5 1//5 15//5
f 15//6 1//6 8//6
f 16//8 4//8 8//8
f 8//7 4//7 16//7
f 9//8 4//8 16//8
f 16//7 4//7 9//7
f 2//8 9//8 17//8
f 17//7 9//7 2//7
f 10//5 18//5 5//5
f 5//6 18//6 10//6
f 10//7 11//7 3//7
f 3//8 11//8 10//8
f 5//8 6//8 18//8
f 18//7 6//7 5//7
f 19//7 3//7 11//7
f 11//8 3//8 19//8
f 8//2 11//2 6//2
f 6//1 11//1 8//1
f 20//9 6//9 11//9
f 11//10 6//10 20//10
f 12//8 2//8 21//8
f 21//7 2//7 12//7
f 6//8 12//8 22//8
f 22//7 12//7 6//7
f 13//7 3//7 23//7
f 23//8 3//8 13//8
f 13//11 24//12 7//12
f 7//13 24//13 13//14
f 7//12 25//15 14//15
f 14//16 25//16 7//13
f 26//7 1//7 14//7
f 14//8 1//8 26//8
f 1//7 27//7 15//7
f 15//8 27//8 1//8
f 11//2 8//2 15//2
f 15//1 8//1 11//1
f 16//8 8//8 28//8
f 28//7 8//7 16//7
f 16//17 29//18 9//18
f 9//19 29//19 16//20
f 9//18 26//21 17//21
f 17//22 26//22 9//19
f 2//8 17//8 25//8
f 25//7 17//7 2//7
f 18//5 10//5 20//5
f 20//6 10//6 18//6
f 11//7 10//7 20//7
f 20//8 10//8 11//8
f 6//9 20//9 18//9
f 18//10 20//10 6//10
f 23//7 3//7 19//7
f 19//8 3//8 23//8
f 19//7 11//7 30//7
f 30//8 11//8 19//8
f 6//8 31//8 8//8
f 8//7 31//7 6//7
f 21//8 2//8 32//8
f 32//7 2//7 21//7
f 23//23 12//24 21//23
f 21//25 12//26 23//25
f 19//24 22//27 12//24
f 12//26 22//28 19//26
f 6//8 22//8 33//8
f 33//7 22//7 6//7
f 23//23 32//11 13//11
f 13//14 32//14 23//25
f 24//12 13//11 32//11
f 32//14 13//14 24//13
f 25//15 7//12 24//12
f 24//13 7//13 25//16
f 17//21 14//15 25//15
f 25//16 14//16 17//22
f 29//7 1//7 26//7
f 26//8 1//8 29//8
f 14//15 17//21 26//21
f 26//22 17//22 14//16
f 27//7 1//7 29//7
f 29//8 1//8 27//8
f 15//7 27//7 34//7
f 34//8 27//8 15//8
f 15//7 35//7 11//7
f 11//8 35//8 15//8
f 28//8 8//8 36//8
f 36//7 8//7 28//7
f 34//29 16//17 28//29
f 28//30 16//20 34//30
f 29//18 16//17 27//17
f 27//20 16//20 29//19
f 26//21 9//18 29//18
f 29//19 9//19 26//22
f 24//8 2//8 25//8
f 25//7 2//7 24//7
f 12//24 23//23 19//24
f 19//26 23//25 12//26
f 30//7 11//7 37//7
f 37//8 11//8 30//8
f 22//27 19//24 30//27
f 30//28 19//26 22//28
f 6//8 38//8 31//8
f 31//7 38//7 6//7
f 39//8 8//8 31//8
f 31//7 8//7 39//7
f 32//8 2//8 24//8
f 24//7 2//7 32//7
f 32//11 23//23 21//23
f 21//25 23//25 32//14
f 30//27 33//31 22//27
f 22//28 33//32 30//28
f 6//8 33//8 40//8
f 40//7 33//7 6//7
f 16//17 34//29 27//17
f 27//20 34//30 16//20
f 15//7 34//7 41//7
f 41//8 34//8 15//8
f 15//7 42//7 35//7
f 35//8 42//8 15//8
f 43//7 11//7 35//7
f 35//8 11//8 43//8
f 36//8 8//8 44//8
f 44//7 8//7 36//7
f 41//33 28//29 36//33
f 36//34 28//30 41//34
f 28//29 41//33 34//29
f 34//30 41//34 28//30
f 37//7 11//7 45//7
f 45//8 11//8 37//8
f 33//31 30//27 37//31
f 37//32 30//28 33//32
f 6//8 46//8 38//8
f 38//7 46//7 6//7
f 38//22 35//16 31//16
f 31//15 35//15 38//21
f 47//8 8//8 39//8
f 39//7 8//7 47//7
f 31//16 42//13 39//13
f 39//12 42//12 31//15
f 37//31 40//34 33//31
f 33//32 40//33 37//32
f 6//8 40//8 48//8
f 48//7 40//7 6//7
f 15//7 41//7 49//7
f 49//8 41//8 15//8
f 15//7 50//7 42//7
f 42//8 50//8 15//8
f 42//13 31//16 35//16
f 35//15 31//15 42//12
f 51//7 11//7 43//7
f 43//8 11//8 51//8
f 35//16 38//22 43//22
f 43//21 38//21 35//15
f 44//8 8//8 52//8
f 52//7 8//7 44//7
f 49//32 36//33 44//32
f 44//31 36//34 49//31
f 36//33 49//32 41//33
f 41//34 49//31 36//34
f 45//7 11//7 53//7
f 53//8 11//8 45//8
f 40//34 37//31 45//34
f 45//33 37//32 40//33
f 6//8 54//8 46//8
f 46//7 54//7 6//7
f 46//19 43//22 38//22
f 38//21 43//21 46//18
f 55//8 8//8 47//8
f 47//7 8//7 55//7
f 39//13 50//14 47//14
f 47//11 50//11 39//12
f 50//14 39//13 42//13
f 42//12 39//12 50//11
f 45//34 48//30 40//34
f 40//33 48//29 45//33
f 6//8 48//8 54//8
f 54//7 48//7 6//7
f 15//7 49//7 56//7
f 56//8 49//8 15//8
f 15//7 57//7 50//7
f 50//8 57//8 15//8
f 58//7 11//7 51//7
f 51//8 11//8 58//8
f 43//22 46//19 51//19
f 51//18 46//18 43//21
f 52//8 8//8 59//8
f 59//7 8//7 52//7
f 56//28 44//32 52//28
f 52//27 44//31 56//27
f 44//32 56//28 49//32
f 49//31 56//27 44//31
f 53//7 11//7 58//7
f 58//8 11//8 53//8
f 48//30 45//34 53//30
f 53//29 45//33 48//29
f 54//20 51//19 46//19
f 46//18 51//18 54//17
f 59//8 8//8 55//8
f 55//7 8//7 59//7
f 47//14 57//25 55//25
f 55//23 57//23 47//11
f 57//25 47//14 50//14
f 50//11 47//11 57//23
f 53//30 54//20 48//30
f 48//29 54//17 53//29
f 15//7 56//7 60//7
f 60//8 56//8 15//8
f 15//7 60//7 57//7
f 57//8 60//8 15//8
f 51//19 54//20 58//20
f 58//17 54//17 51//18
f 60//26 52//28 59//26
f 59//24 52//27 60//24
f 52//28 60//26 56//28
f 56//27 60//24 52//27
f 54//20 53//30 58//20
f 58//17 53//29 54//17
f 57//25 59//26 55//25
f 55//23 59//24 57//23
f 59//26 57//25 60//26
f 60//24 57//23 59//24
