# SSTK version 0.8.0
# 11
mtllib original-11.mtl
o #ID19
v -0.452185 0.470710 0.056453
v -0.458434 0.457234 0.049506
v -0.458434 0.470710 0.056453
v -0.452185 0.457234 0.049506
v -0.452185 0.481805 0.057610
v -0.458434 0.481805 0.057610
v -0.452185 0.457234 0.049506
v -0.458434 0.454979 0.049506
v -0.458434 0.457234 0.049506
v -0.452185 0.454979 0.049506
v -0.452185 0.492562 0.054653
v -0.458434 0.492562 0.054653
v -0.452185 0.454979 0.005617
v -0.458434 0.454979 0.049506
v -0.452185 0.454979 0.049506
v -0.458434 0.454979 0.005617
v -0.452185 0.501507 0.047987
v -0.458434 0.501507 0.047987
v -0.452185 0.454979 0.005617
v -0.458434 0.457234 0.005617
v -0.458434 0.454979 0.005617
v -0.452185 0.457234 0.005617
v -0.458434 0.507416 0.038524
v -0.452185 0.507416 0.038524
v -0.452185 0.457234 0.005617
v -0.458434 0.470710 -0.001331
v -0.458434 0.457234 0.005617
v -0.452185 0.470710 -0.001331
v -0.458434 0.509480 0.027561
v -0.452185 0.509480 0.027561
v -0.458434 0.481805 -0.002487
v -0.452185 0.481805 -0.002487
v -0.458434 0.507416 0.016598
v -0.452185 0.507416 0.016598
v -0.458434 0.492562 0.000470
v -0.452185 0.492562 0.000470
v -0.458434 0.501507 0.007136
v -0.452185 0.501507 0.007136
vt -0.07516805 0.00984252
vt -0.0990505 0
vt -0.07516805 0
vt -0.0990505 0.00984252
vt -0.05971991 0.00984252
vt -0.07729259 0
vt -0.05971991 0
vt -0.07729259 0.00984252
vt -0.09720091 0.00984252
vt -0.1007538 0
vt -0.09720091 0
vt -0.1007538 0.00984252
vt -0.03489319 0.00984252
vt -0.05246586 0
vt -0.03489319 0
vt -0.05246586 0.00984252
vt -0.09675259 0.00984252
vt -0.02761727 0
vt -0.02761727 0.00984252
vt -0.09675259 0
vt -0.004086687 0.00984252
vt -0.02165936 0
vt -0.004086687 0
vt -0.02165936 0.00984252
vt 0.1007538 0.00984252
vt 0.09720091 0
vt 0.1007538 0
vt 0.09720091 0.00984252
vt 0.02848215 0
vt 0.01090947 0.00984252
vt 0.01090947 0
vt 0.02848215 0.00984252
vt 0.04206048 0.00984252
vt 0.01817804 0
vt 0.04206048 0
vt 0.01817804 0.00984252
vt 0.0583546 0
vt 0.04078193 0.00984252
vt 0.04078193 0
vt 0.0583546 0.00984252
vt 0.06439904 0.00984252
vt 0.04682637 0
vt 0.06439904 0
vt 0.04682637 0.00984252
vt 0.0814411 0
vt 0.06386843 0.00984252
vt 0.06386843 0
vt 0.0814411 0.00984252
vt 0.08543392 0.00984252
vt 0.06786125 0
vt 0.08543392 0
vt 0.06786125 0.00984252
vt 0.09458108 0
vt 0.07700841 0.00984252
vt 0.07700841 0
vt 0.09458108 0.00984252
vt 0.09597566 0.00984252
vt 0.07840299 0
vt 0.09597566 0
vt 0.07840299 0.00984252
vn 0 0.2858854039561397 -0.9582638132606464
vn 0 0.45823010159579347 -0.8888336030953764
vn 0 -0.2858854039561397 0.9582638132606464
vn 0 -0.45823010159579347 0.8888336030953764
vn 0 -0.08212246377889414 -0.9966222458599269
vn 0 0.08212246377889414 0.9966222458599269
vn 0 0 -1
vn 0 0 1
vn 0 -0.43888770893862833 -0.8985419183001992
vn 0 0.43888770893862833 0.8985419183001992
vn 0 1 0
vn 0 -1 0
vn 0 -0.735568622513549 -0.6774502207347193
vn 0 0.735568622513549 0.6774502207347193
vn 0 -0.9315494304167428 -0.3636147118726662
vn 0 0.9315494304167428 0.3636147118726662
vn 0 0.458230101595793 0.8888336030953766
vn 0 0.28588540395613915 0.9582638132606464
vn 0 -0.458230101595793 -0.8888336030953766
vn 0 -0.28588540395613915 -0.9582638132606464
vn 0 -0.08212246377889458 0.9966222458599269
vn 0 0.08212246377889458 -0.9966222458599269
vn 0 -0.931549430416743 0.36361471187266575
vn 0 0.931549430416743 -0.36361471187266575
vn 0 -0.4388877089386288 0.898541918300199
vn 0 0.4388877089386288 -0.898541918300199
vn 0 -0.7355686225135493 0.677450220734719
vn 0 0.7355686225135493 -0.677450220734719
usemtl material_0_2
f 1/1/1 2/2/2 3/3/1
f 3/3/3 2/2/4 1/1/3
f 2/2/2 1/1/1 4/4/2
f 4/4/4 1/1/3 2/2/4
f 5/5/5 3/6/1 6/7/5
f 6/7/6 3/6/3 5/5/6
f 3/6/1 5/5/5 1/8/1
f 1/8/3 5/5/6 3/6/3
f 7/9/7 8/10/7 9/11/7
f 9/11/8 8/10/8 7/9/8
f 8/10/7 7/9/7 10/12/7
f 10/12/8 7/9/8 8/10/8
f 11/13/9 6/14/5 12/15/9
f 12/15/10 6/14/6 11/13/10
f 6/14/5 11/13/9 5/16/5
f 5/16/6 11/13/10 6/14/6
f 13/17/11 14/18/11 15/19/11
f 15/19/12 14/18/12 13/17/12
f 14/18/11 13/17/11 16/20/11
f 16/20/12 13/17/12 14/18/12
f 17/21/13 12/22/9 18/23/13
f 18/23/14 12/22/10 17/21/14
f 12/22/9 17/21/13 11/24/9
f 11/24/10 17/21/14 12/22/10
f 19/25/8 20/26/8 21/27/8
f 21/27/7 20/26/7 19/25/7
f 20/26/8 19/25/8 22/28/8
f 22/28/7 19/25/7 20/26/7
f 23/29/15 17/30/13 18/31/13
f 18/31/14 17/30/14 23/29/16
f 17/30/13 23/29/15 24/32/15
f 24/32/16 23/29/16 17/30/14
f 25/33/17 26/34/18 27/35/17
f 27/35/19 26/34/20 25/33/19
f 26/34/18 25/33/17 28/36/18
f 28/36/20 25/33/19 26/34/20
f 29/37/12 24/38/15 23/39/15
f 23/39/16 24/38/16 29/37/11
f 24/38/15 29/37/12 30/40/12
f 30/40/11 29/37/11 24/38/16
f 28/41/18 31/42/21 26/43/18
f 26/43/20 31/42/22 28/41/20
f 31/42/21 28/41/18 32/44/21
f 32/44/22 28/41/20 31/42/22
f 33/45/23 30/46/12 29/47/12
f 29/47/11 30/46/11 33/45/24
f 30/46/12 33/45/23 34/48/23
f 34/48/24 33/45/24 30/46/11
f 32/49/21 35/50/25 31/51/21
f 31/51/22 35/50/26 32/49/22
f 35/50/25 32/49/21 36/52/25
f 36/52/26 32/49/22 35/50/26
f 37/53/27 34/54/23 33/55/23
f 33/55/24 34/54/24 37/53/28
f 34/54/23 37/53/27 38/56/27
f 38/56/28 37/53/28 34/54/24
f 36/57/25 37/58/27 35/59/25
f 35/59/26 37/58/28 36/57/26
f 37/58/27 36/57/25 38/60/27
f 38/60/28 36/57/26 37/58/28
