# SSTK version 0.8.0
# 10
mtllib original-10.mtl
o 3dw.59a07a01d7c3fdb03c1d9add3a87bd2d/Model/mesh1/mesh1-geometry/material_2/component_1#mesh1-geometry
v -0.036096 -0.241755 -0.040917
v -0.036096 -0.530692 -0.040917
v -0.025899 -0.241755 -0.048741
v -0.025899 -0.241755 -0.048741
v -0.025899 -0.530692 -0.048741
v -0.014024 -0.241755 -0.053660
v -0.025899 -0.530692 -0.048741
v -0.025899 -0.241755 -0.048741
v -0.036096 -0.530692 -0.040917
v -0.036096 -0.241755 -0.040917
v -0.043921 -0.241755 -0.030720
v -0.036096 -0.530692 -0.040917
v -0.014024 -0.530692 -0.053660
v -0.014024 -0.241755 -0.053660
v -0.025899 -0.530692 -0.048741
v -0.014024 -0.241755 -0.053660
v -0.014024 -0.530692 -0.053660
v -0.001281 -0.241755 -0.055338
v -0.043921 -0.530692 -0.030720
v -0.036096 -0.530692 -0.040917
v -0.043921 -0.241755 -0.030720
v 0.023337 -0.241755 -0.048741
v 0.023337 -0.530692 -0.048741
v 0.033534 -0.241755 -0.040917
v 0.011462 -0.241755 -0.053660
v 0.011462 -0.530692 -0.053660
v 0.023337 -0.241755 -0.048741
v -0.001281 -0.241755 -0.055338
v -0.001281 -0.530692 -0.055338
v 0.011462 -0.241755 -0.053660
v -0.001281 -0.530692 -0.055338
v -0.001281 -0.241755 -0.055338
v -0.014024 -0.530692 -0.053660
v -0.043921 -0.241755 -0.030720
v -0.048839 -0.241755 -0.018845
v -0.043921 -0.530692 -0.030720
v 0.041359 -0.241755 -0.030720
v 0.033534 -0.241755 -0.040917
v 0.041359 -0.530692 -0.030720
v 0.033534 -0.530692 -0.040917
v 0.033534 -0.241755 -0.040917
v 0.023337 -0.530692 -0.048741
v 0.023337 -0.530692 -0.048741
v 0.023337 -0.241755 -0.048741
v 0.011462 -0.530692 -0.053660
v 0.046278 -0.241755 -0.018845
v 0.041359 -0.241755 -0.030720
v 0.046278 -0.530692 -0.018845
v 0.011462 -0.530692 -0.053660
v 0.011462 -0.241755 -0.053660
v -0.001281 -0.530692 -0.055338
v -0.048839 -0.530692 -0.018845
v -0.043921 -0.530692 -0.030720
v -0.048839 -0.241755 -0.018845
v 0.033534 -0.530692 -0.040917
v 0.041359 -0.530692 -0.030720
v 0.033534 -0.241755 -0.040917
v 0.041359 -0.530692 -0.030720
v 0.046278 -0.530692 -0.018845
v 0.041359 -0.241755 -0.030720
v 0.046278 -0.530692 -0.018845
v 0.047955 -0.530692 -0.006102
v 0.046278 -0.241755 -0.018845
v -0.048839 -0.241755 -0.018845
v -0.050517 -0.241755 -0.006102
v -0.048839 -0.530692 -0.018845
v 0.047955 -0.241755 -0.006102
v 0.046278 -0.241755 -0.018845
v 0.047955 -0.530692 -0.006102
v -0.050517 -0.530692 -0.006102
v -0.048839 -0.530692 -0.018845
v -0.050517 -0.241755 -0.006102
v 0.047955 -0.530692 -0.006102
v 0.046278 -0.530692 0.006642
v 0.047955 -0.241755 -0.006102
v -0.050517 -0.241755 -0.006102
v -0.048839 -0.241755 0.006642
v -0.050517 -0.530692 -0.006102
v 0.046278 -0.241755 0.006642
v 0.047955 -0.241755 -0.006102
v 0.046278 -0.530692 0.006642
v -0.048839 -0.530692 0.006642
v -0.050517 -0.530692 -0.006102
v -0.048839 -0.241755 0.006642
v 0.046278 -0.530692 0.006642
v 0.041359 -0.530692 0.018516
v 0.046278 -0.241755 0.006642
v -0.048839 -0.241755 0.006642
v -0.043921 -0.241755 0.018516
v -0.048839 -0.530692 0.006642
v 0.033534 -0.241755 0.028714
v 0.041359 -0.241755 0.018516
v 0.033534 -0.530692 0.028714
v 0.041359 -0.241755 0.018516
v 0.046278 -0.241755 0.006642
v 0.041359 -0.530692 0.018516
v -0.043921 -0.530692 0.018516
v -0.048839 -0.530692 0.006642
v -0.043921 -0.241755 0.018516
v 0.041359 -0.530692 0.018516
v 0.033534 -0.530692 0.028714
v 0.041359 -0.241755 0.018516
v 0.033534 -0.241755 0.028714
v 0.033534 -0.530692 0.028714
v 0.023337 -0.241755 0.036538
v -0.043921 -0.241755 0.018516
v -0.036096 -0.241755 0.028714
v -0.043921 -0.530692 0.018516
v 0.023337 -0.530692 0.036538
v 0.023337 -0.241755 0.036538
v 0.033534 -0.530692 0.028714
v -0.036096 -0.530692 0.028714
v -0.043921 -0.530692 0.018516
v -0.036096 -0.241755 0.028714
v -0.025899 -0.241755 0.036538
v -0.025899 -0.530692 0.036538
v -0.036096 -0.241755 0.028714
v 0.023337 -0.241755 0.036538
v 0.023337 -0.530692 0.036538
v 0.011462 -0.241755 0.041457
v -0.036096 -0.530692 0.028714
v -0.036096 -0.241755 0.028714
v -0.025899 -0.530692 0.036538
v -0.014024 -0.241755 0.041457
v -0.014024 -0.530692 0.041457
v -0.025899 -0.241755 0.036538
v -0.025899 -0.530692 0.036538
v -0.025899 -0.241755 0.036538
v -0.014024 -0.530692 0.041457
v 0.011462 -0.530692 0.041457
v 0.011462 -0.241755 0.041457
v 0.023337 -0.530692 0.036538
v -0.014024 -0.530692 0.041457
v -0.014024 -0.241755 0.041457
v -0.001281 -0.530692 0.043135
v -0.001281 -0.241755 0.043135
v -0.001281 -0.530692 0.043135
v -0.014024 -0.241755 0.041457
v 0.011462 -0.241755 0.041457
v 0.011462 -0.530692 0.041457
v -0.001281 -0.241755 0.043135
v -0.001281 -0.530692 0.043135
v -0.001281 -0.241755 0.043135
v 0.011462 -0.530692 0.041457
v -0.025899 -0.241755 -0.048741
v -0.036096 -0.530692 -0.040917
v -0.036096 -0.241755 -0.040917
v -0.014024 -0.241755 -0.053660
v -0.025899 -0.530692 -0.048741
v -0.025899 -0.241755 -0.048741
v -0.036096 -0.530692 -0.040917
v -0.025899 -0.241755 -0.048741
v -0.025899 -0.530692 -0.048741
v -0.036096 -0.530692 -0.040917
v -0.043921 -0.241755 -0.030720
v -0.036096 -0.241755 -0.040917
v -0.025899 -0.530692 -0.048741
v -0.014024 -0.241755 -0.053660
v -0.014024 -0.530692 -0.053660
v -0.001281 -0.241755 -0.055338
v -0.014024 -0.530692 -0.053660
v -0.014024 -0.241755 -0.053660
v -0.043921 -0.241755 -0.030720
v -0.036096 -0.530692 -0.040917
v -0.043921 -0.530692 -0.030720
v 0.033534 -0.241755 -0.040917
v 0.023337 -0.530692 -0.048741
v 0.023337 -0.241755 -0.048741
v 0.023337 -0.241755 -0.048741
v 0.011462 -0.530692 -0.053660
v 0.011462 -0.241755 -0.053660
v 0.011462 -0.241755 -0.053660
v -0.001281 -0.530692 -0.055338
v -0.001281 -0.241755 -0.055338
v -0.014024 -0.530692 -0.053660
v -0.001281 -0.241755 -0.055338
v -0.001281 -0.530692 -0.055338
v -0.043921 -0.530692 -0.030720
v -0.048839 -0.241755 -0.018845
v -0.043921 -0.241755 -0.030720
v 0.041359 -0.530692 -0.030720
v 0.033534 -0.241755 -0.040917
v 0.041359 -0.241755 -0.030720
v 0.023337 -0.530692 -0.048741
v 0.033534 -0.241755 -0.040917
v 0.033534 -0.530692 -0.040917
v 0.011462 -0.530692 -0.053660
v 0.023337 -0.241755 -0.048741
v 0.023337 -0.530692 -0.048741
v 0.046278 -0.530692 -0.018845
v 0.041359 -0.241755 -0.030720
v 0.046278 -0.241755 -0.018845
v -0.001281 -0.530692 -0.055338
v 0.011462 -0.241755 -0.053660
v 0.011462 -0.530692 -0.053660
v -0.048839 -0.241755 -0.018845
v -0.043921 -0.530692 -0.030720
v -0.048839 -0.530692 -0.018845
v 0.033534 -0.241755 -0.040917
v 0.041359 -0.530692 -0.030720
v 0.033534 -0.530692 -0.040917
v 0.041359 -0.241755 -0.030720
v 0.046278 -0.530692 -0.018845
v 0.041359 -0.530692 -0.030720
v 0.046278 -0.241755 -0.018845
v 0.047955 -0.530692 -0.006102
v 0.046278 -0.530692 -0.018845
v -0.048839 -0.530692 -0.018845
v -0.050517 -0.241755 -0.006102
v -0.048839 -0.241755 -0.018845
v 0.047955 -0.530692 -0.006102
v 0.046278 -0.241755 -0.018845
v 0.047955 -0.241755 -0.006102
v -0.050517 -0.241755 -0.006102
v -0.048839 -0.530692 -0.018845
v -0.050517 -0.530692 -0.006102
v 0.047955 -0.241755 -0.006102
v 0.046278 -0.530692 0.006642
v 0.047955 -0.530692 -0.006102
v -0.050517 -0.530692 -0.006102
v -0.048839 -0.241755 0.006642
v -0.050517 -0.241755 -0.006102
v 0.046278 -0.530692 0.006642
v 0.047955 -0.241755 -0.006102
v 0.046278 -0.241755 0.006642
v -0.048839 -0.241755 0.006642
v -0.050517 -0.530692 -0.006102
v -0.048839 -0.530692 0.006642
v 0.046278 -0.241755 0.006642
v 0.041359 -0.530692 0.018516
v 0.046278 -0.530692 0.006642
v -0.048839 -0.530692 0.006642
v -0.043921 -0.241755 0.018516
v -0.048839 -0.241755 0.006642
v 0.033534 -0.530692 0.028714
v 0.041359 -0.241755 0.018516
v 0.033534 -0.241755 0.028714
v 0.041359 -0.530692 0.018516
v 0.046278 -0.241755 0.006642
v 0.041359 -0.241755 0.018516
v -0.043921 -0.241755 0.018516
v -0.048839 -0.530692 0.006642
v -0.043921 -0.530692 0.018516
v 0.041359 -0.241755 0.018516
v 0.033534 -0.530692 0.028714
v 0.041359 -0.530692 0.018516
v 0.023337 -0.241755 0.036538
v 0.033534 -0.530692 0.028714
v 0.033534 -0.241755 0.028714
v -0.043921 -0.530692 0.018516
v -0.036096 -0.241755 0.028714
v -0.043921 -0.241755 0.018516
v 0.033534 -0.530692 0.028714
v 0.023337 -0.241755 0.036538
v 0.023337 -0.530692 0.036538
v -0.036096 -0.241755 0.028714
v -0.043921 -0.530692 0.018516
v -0.036096 -0.530692 0.028714
v -0.036096 -0.241755 0.028714
v -0.025899 -0.530692 0.036538
v -0.025899 -0.241755 0.036538
v 0.011462 -0.241755 0.041457
v 0.023337 -0.530692 0.036538
v 0.023337 -0.241755 0.036538
v -0.025899 -0.530692 0.036538
v -0.036096 -0.241755 0.028714
v -0.036096 -0.530692 0.028714
v -0.025899 -0.241755 0.036538
v -0.014024 -0.530692 0.041457
v -0.014024 -0.241755 0.041457
v -0.014024 -0.530692 0.041457
v -0.025899 -0.241755 0.036538
v -0.025899 -0.530692 0.036538
v 0.023337 -0.530692 0.036538
v 0.011462 -0.241755 0.041457
v 0.011462 -0.530692 0.041457
v -0.001281 -0.530692 0.043135
v -0.014024 -0.241755 0.041457
v -0.014024 -0.530692 0.041457
v -0.014024 -0.241755 0.041457
v -0.001281 -0.530692 0.043135
v -0.001281 -0.241755 0.043135
v -0.001281 -0.241755 0.043135
v 0.011462 -0.530692 0.041457
v 0.011462 -0.241755 0.041457
v 0.011462 -0.530692 0.041457
v -0.001281 -0.241755 0.043135
v -0.001281 -0.530692 0.043135
vn 0.7071067811865476 0 0.7071067811865476
vn 0.5000001873976233 0 0.8660252955903434
vn 0.25881897461707376 0 0.9659258451755842
vn 0.8660252955903434 0 0.5000001873976233
vn 0 0 1
vn -0.5000001873976233 0 0.8660252955903434
vn -0.7071067811865476 0 0.7071067811865476
vn -0.25881897461707376 0 0.9659258451755842
vn 0.9659258451755842 0 0.25881897461707376
vn -0.8660252955903434 0 0.5000001873976233
vn -0.9659258451755842 0 0.25881897461707376
vn -1 0 0
vn 1 0 0
vn -0.9659258451755842 0 -0.25881897461707376
vn 0.9659258451755842 0 -0.25881897461707376
vn -0.8660252955903434 0 -0.5000001873976233
vn 0.8660252955903434 0 -0.5000001873976233
vn -0.7071067811865476 0 -0.7071067811865476
vn -0.5000001873976233 0 -0.8660252955903434
vn 0.7071067811865476 0 -0.7071067811865476
vn 0.5000001873976233 0 -0.8660252955903434
vn -0.25881897461707376 0 -0.9659258451755842
vn 0.25881897461707376 0 -0.9659258451755842
vn 0 0 -1
usemtl material_0_0
f 1//1 2//1 3//2
f 4//2 5//2 6//3
f 7//2 8//2 9//1
f 10//1 11//4 12//1
f 13//3 14//3 15//2
f 16//3 17//3 18//5
f 19//4 20//1 21//4
f 22//6 23//6 24//7
f 25//8 26//8 27//6
f 28//5 29//5 30//8
f 31//5 32//5 33//3
f 34//4 35//9 36//4
f 37//10 38//7 39//10
f 40//7 41//7 42//6
f 43//6 44//6 45//8
f 46//11 47//10 48//11
f 49//8 50//8 51//5
f 52//9 53//4 54//9
f 55//7 56//10 57//7
f 58//10 59//11 60//10
f 61//11 62//12 63//11
f 64//9 65//13 66//9
f 67//12 68//11 69//12
f 70//13 71//9 72//13
f 73//12 74//14 75//12
f 76//13 77//15 78//13
f 79//14 80//12 81//14
f 82//15 83//13 84//15
f 85//14 86//16 87//14
f 88//15 89//17 90//15
f 91//18 92//16 93//18
f 94//16 95//14 96//16
f 97//17 98//15 99//17
f 100//16 101//18 102//16
f 103//18 104//18 105//19
f 106//17 107//20 108//17
f 109//19 110//19 111//18
f 112//20 113//17 114//20
f 115//21 116//21 117//20
f 118//19 119//19 120//22
f 121//20 122//20 123//21
f 124//23 125//23 126//21
f 127//21 128//21 129//23
f 130//22 131//22 132//19
f 133//23 134//23 135//24
f 136//24 137//24 138//23
f 139//22 140//22 141//24
f 142//24 143//24 144//22
usemtl material_1_0
f 145//19 146//18 147//18
f 148//22 149//19 150//19
f 151//18 152//19 153//19
f 154//18 155//16 156//18
f 157//19 158//22 159//22
f 160//24 161//22 162//22
f 163//16 164//18 165//16
f 166//20 167//21 168//21
f 169//21 170//23 171//23
f 172//23 173//24 174//24
f 175//22 176//24 177//24
f 178//16 179//14 180//16
f 181//17 182//20 183//17
f 184//21 185//20 186//20
f 187//23 188//21 189//21
f 190//15 191//17 192//15
f 193//24 194//23 195//23
f 196//14 197//16 198//14
f 199//20 200//17 201//20
f 202//17 203//15 204//17
f 205//15 206//13 207//15
f 208//14 209//12 210//14
f 211//13 212//15 213//13
f 214//12 215//14 216//12
f 217//13 218//9 219//13
f 220//12 221//11 222//12
f 223//9 224//13 225//9
f 226//11 227//12 228//11
f 229//9 230//4 231//9
f 232//11 233//10 234//11
f 235//1 236//4 237//1
f 238//4 239//9 240//4
f 241//10 242//11 243//10
f 244//4 245//1 246//4
f 247//2 248//1 249//1
f 250//10 251//7 252//10
f 253//1 254//2 255//2
f 256//7 257//10 258//7
f 259//7 260//6 261//6
f 262//3 263//2 264//2
f 265//6 266//7 267//7
f 268//6 269//8 270//8
f 271//8 272//6 273//6
f 274//2 275//3 276//3
f 277//5 278//8 279//8
f 280//8 281//5 282//5
f 283//5 284//3 285//3
f 286//3 287//5 288//5
