# SSTK version 0.8.0
# 11
mtllib original-11.mtl
o 3dw.59a07a01d7c3fdb03c1d9add3a87bd2d/Model/mesh1/mesh1-geometry/material_2/component_2#mesh1-geometry
v 0.039167 -0.848281 -0.046550
v -0.041729 -0.848281 -0.046550
v -0.029882 -0.854109 -0.055640
v -0.029882 -0.854109 -0.055640
v -0.041729 -0.848281 -0.046550
v 0.039167 -0.848281 -0.046550
v 0.039167 -0.848281 -0.046550
v -0.043834 -0.846522 -0.043806
v -0.041729 -0.848281 -0.046550
v -0.041729 -0.848281 -0.046550
v -0.043834 -0.846522 -0.043806
v 0.039167 -0.848281 -0.046550
v 0.048258 -0.838903 -0.034703
v -0.050820 -0.838903 -0.034703
v -0.043834 -0.846522 -0.043806
v -0.043834 -0.846522 -0.043806
v -0.050820 -0.838903 -0.034703
v 0.048258 -0.838903 -0.034703
v 0.039167 -0.848281 -0.046550
v -0.029882 -0.854109 -0.055640
v 0.027320 -0.854109 -0.055640
v 0.027320 -0.854109 -0.055640
v -0.029882 -0.854109 -0.055640
v 0.039167 -0.848281 -0.046550
v 0.013524 -0.857773 -0.061355
v -0.029882 -0.854109 -0.055640
v -0.016086 -0.857773 -0.061355
v -0.016086 -0.857773 -0.061355
v -0.029882 -0.854109 -0.055640
v 0.013524 -0.857773 -0.061355
v 0.048258 -0.838903 -0.034703
v -0.056534 -0.827358 -0.020907
v -0.050820 -0.838903 -0.034703
v -0.050820 -0.838903 -0.034703
v -0.056534 -0.827358 -0.020907
v 0.048258 -0.838903 -0.034703
v -0.043834 -0.846522 -0.043806
v 0.039167 -0.848281 -0.046550
v 0.041272 -0.846522 -0.043806
v 0.041272 -0.846522 -0.043806
v 0.039167 -0.848281 -0.046550
v -0.043834 -0.846522 -0.043806
v 0.048258 -0.838903 -0.034703
v -0.043834 -0.846522 -0.043806
v 0.041272 -0.846522 -0.043806
v 0.041272 -0.846522 -0.043806
v -0.043834 -0.846522 -0.043806
v 0.048258 -0.838903 -0.034703
v 0.027320 -0.854109 -0.055640
v -0.029882 -0.854109 -0.055640
v 0.013524 -0.857773 -0.061355
v 0.013524 -0.857773 -0.061355
v -0.029882 -0.854109 -0.055640
v 0.027320 -0.854109 -0.055640
v 0.053972 -0.827358 -0.020907
v -0.056534 -0.827358 -0.020907
v 0.048258 -0.838903 -0.034703
v 0.048258 -0.838903 -0.034703
v -0.056534 -0.827358 -0.020907
v 0.053972 -0.827358 -0.020907
v 0.013524 -0.857773 -0.061355
v -0.016086 -0.857773 -0.061355
v -0.001281 -0.859023 -0.063304
v -0.001281 -0.859023 -0.063304
v -0.016086 -0.857773 -0.061355
v 0.013524 -0.857773 -0.061355
v 0.054343 -0.825004 -0.018094
v -0.056534 -0.827358 -0.020907
v 0.053972 -0.827358 -0.020907
v 0.053972 -0.827358 -0.020907
v -0.056534 -0.827358 -0.020907
v 0.054343 -0.825004 -0.018094
v -0.056534 -0.827358 -0.020907
v 0.054343 -0.825004 -0.018094
v -0.056904 -0.825004 -0.018094
v -0.056904 -0.825004 -0.018094
v 0.054343 -0.825004 -0.018094
v -0.056534 -0.827358 -0.020907
v -0.056904 -0.825004 -0.018094
v -0.057062 -0.800409 0.004694
v -0.058483 -0.812061 -0.006102
v -0.058483 -0.812061 -0.006102
v -0.057062 -0.800409 0.004694
v -0.056904 -0.825004 -0.018094
v 0.054500 -0.800409 0.004694
v 0.054343 -0.825004 -0.018094
v 0.055921 -0.812061 -0.006102
v 0.055921 -0.812061 -0.006102
v 0.054343 -0.825004 -0.018094
v 0.054500 -0.800409 0.004694
v 0.054500 -0.800409 0.004694
v -0.056904 -0.825004 -0.018094
v 0.054343 -0.825004 -0.018094
v 0.054343 -0.825004 -0.018094
v -0.056904 -0.825004 -0.018094
v 0.054500 -0.800409 0.004694
v -0.057062 -0.800409 0.004694
v -0.056904 -0.825004 -0.018094
v 0.054500 -0.800409 0.004694
v 0.054500 -0.800409 0.004694
v -0.056904 -0.825004 -0.018094
v -0.057062 -0.800409 0.004694
v 0.054500 -0.800409 0.004694
v -0.056534 -0.794800 0.008703
v -0.057062 -0.800409 0.004694
v -0.057062 -0.800409 0.004694
v -0.056534 -0.794800 0.008703
v 0.054500 -0.800409 0.004694
v 0.048258 -0.775499 0.022500
v 0.054500 -0.800409 0.004694
v 0.053972 -0.794800 0.008703
v 0.053972 -0.794800 0.008703
v 0.054500 -0.800409 0.004694
v 0.048258 -0.775499 0.022500
v -0.056534 -0.794800 0.008703
v 0.054500 -0.800409 0.004694
v -0.050820 -0.775499 0.022500
v -0.050820 -0.775499 0.022500
v 0.054500 -0.800409 0.004694
v -0.056534 -0.794800 0.008703
v 0.046959 -0.773132 0.024192
v 0.054500 -0.800409 0.004694
v 0.048258 -0.775499 0.022500
v 0.048258 -0.775499 0.022500
v 0.054500 -0.800409 0.004694
v 0.046959 -0.773132 0.024192
v -0.050820 -0.775499 0.022500
v 0.054500 -0.800409 0.004694
v -0.049521 -0.773132 0.024192
v -0.049521 -0.773132 0.024192
v 0.054500 -0.800409 0.004694
v -0.050820 -0.775499 0.022500
v 0.031687 -0.743610 0.040086
v 0.046959 -0.773132 0.024192
v 0.039167 -0.754270 0.034347
v 0.039167 -0.754270 0.034347
v 0.046959 -0.773132 0.024192
v 0.031687 -0.743610 0.040086
v -0.049521 -0.773132 0.024192
v 0.054500 -0.800409 0.004694
v 0.046959 -0.773132 0.024192
v 0.046959 -0.773132 0.024192
v 0.054500 -0.800409 0.004694
v -0.049521 -0.773132 0.024192
v -0.034249 -0.743610 0.040086
v 0.046959 -0.773132 0.024192
v 0.031687 -0.743610 0.040086
v 0.031687 -0.743610 0.040086
v 0.046959 -0.773132 0.024192
v -0.034249 -0.743610 0.040086
v 0.046959 -0.773132 0.024192
v -0.041729 -0.754270 0.034347
v -0.049521 -0.773132 0.024192
v -0.049521 -0.773132 0.024192
v -0.041729 -0.754270 0.034347
v 0.046959 -0.773132 0.024192
v -0.041729 -0.754270 0.034347
v 0.046959 -0.773132 0.024192
v -0.034249 -0.743610 0.040086
v -0.034249 -0.743610 0.040086
v 0.046959 -0.773132 0.024192
v -0.041729 -0.754270 0.034347
v 0.031687 -0.743610 0.040086
v -0.029882 -0.734898 0.043437
v -0.034249 -0.743610 0.040086
v -0.034249 -0.743610 0.040086
v -0.029882 -0.734898 0.043437
v 0.031687 -0.743610 0.040086
v 0.013524 -0.720042 0.049152
v 0.031687 -0.743610 0.040086
v 0.027320 -0.734898 0.043437
v 0.027320 -0.734898 0.043437
v 0.031687 -0.743610 0.040086
v 0.013524 -0.720042 0.049152
v -0.029882 -0.734898 0.043437
v 0.031687 -0.743610 0.040086
v -0.016086 -0.720042 0.049152
v -0.016086 -0.720042 0.049152
v 0.031687 -0.743610 0.040086
v -0.029882 -0.734898 0.043437
v -0.016086 -0.720042 0.049152
v 0.031687 -0.743610 0.040086
v 0.013524 -0.720042 0.049152
v 0.013524 -0.720042 0.049152
v 0.031687 -0.743610 0.040086
v -0.016086 -0.720042 0.049152
v 0.013524 -0.720042 0.049152
v -0.001281 -0.714974 0.051101
v -0.016086 -0.720042 0.049152
v -0.016086 -0.720042 0.049152
v -0.001281 -0.714974 0.051101
v 0.013524 -0.720042 0.049152
vn 0 -0.8418330374189978 0.5397380263701125
vn 0 0.8418330374189978 -0.5397380263701125
vn 0 -0.8059761055838359 0.5919480697053697
vn 0 0.8059761055838359 -0.5919480697053697
vn 0 -0.7668861689860839 0.6417831439184485
vn 0 0.7668861689860839 -0.6417831439184485
vn 0 -0.724719743097685 0.6890437533019406
vn 0 0.724719743097685 -0.6890437533019406
vn 0 -0.6318459956129288 0.7750939541938814
vn 0 -0.6796461390741932 0.7335401322637655
vn 0 0.6796461390741932 -0.7335401322637655
vn 0 0.6318459956129288 -0.7750939541938814
vn 0 -0.5815118935150916 0.8135379018217237
vn 0 0.5815118935150916 -0.8135379018217237
vn 0 -0.5288440207162097 0.8487190358138041
vn 0 0.5288440207162097 -0.8487190358138041
vn 0 -0.4391539250319772 0.8984118377052968
vn 0 -0.47405508666750196 0.8804951872694519
vn 0 0.47405508666750196 -0.8804951872694519
vn 0 0.4391539250319772 -0.8984118377052968
vn 0 -0.3589998546564073 0.93333761541935
vn 0 0.3589998546564073 -0.93333761541935
usemtl material_0_0
f 1//1 2//1 3//1
f 4//2 5//2 6//2
f 7//1 8//3 9//1
f 10//2 11//4 12//2
f 13//5 14//5 15//3
f 16//4 17//6 18//6
f 19//1 20//1 21//1
f 22//2 23//2 24//2
f 25//1 26//1 27//1
f 28//2 29//2 30//2
f 31//5 32//5 33//5
f 34//6 35//6 36//6
f 37//3 38//1 39//3
f 40//4 41//2 42//4
f 43//5 44//3 45//3
f 46//4 47//4 48//6
f 49//1 50//1 51//1
f 52//2 53//2 54//2
f 55//5 56//5 57//5
f 58//6 59//6 60//6
f 61//1 62//1 63//1
f 64//2 65//2 66//2
f 67//7 68//5 69//5
f 70//6 71//6 72//8
f 73//5 74//7 75//7
f 76//8 77//8 78//6
f 79//7 80//9 81//10
f 82//11 83//12 84//8
f 85//9 86//7 87//10
f 88//11 89//8 90//12
f 91//9 92//7 93//7
f 94//8 95//8 96//12
f 97//9 98//7 99//9
f 100//12 101//8 102//12
f 103//9 104//13 105//9
f 106//12 107//14 108//12
f 109//13 110//9 111//13
f 112//14 113//12 114//14
f 115//13 116//9 117//13
f 118//14 119//12 120//14
f 121//15 122//9 123//13
f 124//14 125//12 126//16
f 127//13 128//9 129//15
f 130//16 131//12 132//14
f 133//17 134//15 135//18
f 136//19 137//16 138//20
f 139//15 140//9 141//15
f 142//16 143//12 144//16
f 145//17 146//15 147//17
f 148//20 149//16 150//20
f 151//15 152//18 153//15
f 154//16 155//19 156//16
f 157//18 158//15 159//17
f 160//20 161//16 162//19
f 163//17 164//21 165//17
f 166//20 167//22 168//20
f 169//21 170//17 171//21
f 172//22 173//20 174//22
f 175//21 176//17 177//21
f 178//22 179//20 180//22
f 181//21 182//17 183//21
f 184//22 185//20 186//22
f 187//21 188//21 189//21
f 190//22 191//22 192//22
