# SSTK version 0.8.0
# 17
mtllib original-17.mtl
o 3dw.59a07a01d7c3fdb03c1d9add3a87bd2d/Model/mesh1/mesh1-geometry/material_5/component_2#mesh1-geometry
v -0.034249 -0.743610 0.040086
v -0.016086 -0.709194 0.059013
v 0.031687 -0.743610 0.040086
v 0.013524 -0.709194 0.059013
v 0.031687 -0.743610 0.040086
v -0.016086 -0.709194 0.059013
v 0.013524 -0.709194 0.059013
v -0.016086 -0.720042 0.049152
v -0.016086 -0.709194 0.059013
v -0.016086 -0.720042 0.049152
v 0.013524 -0.709194 0.059013
v 0.013524 -0.720042 0.049152
v -0.016086 -0.660637 0.073689
v -0.016086 -0.660637 0.083550
v -0.016086 -0.709194 0.059013
v -0.016086 -0.660637 0.073689
v -0.016086 -0.709194 0.059013
v -0.016086 -0.720042 0.049152
v 0.013524 -0.660637 0.083550
v 0.013524 -0.720042 0.049152
v 0.013524 -0.709194 0.059013
v -0.016086 -0.565219 0.092541
v -0.016086 -0.660637 0.083550
v -0.016086 -0.660637 0.073689
v 0.013524 -0.660637 0.083550
v 0.013524 -0.660637 0.073689
v 0.013524 -0.720042 0.049152
v -0.016086 -0.565219 0.092541
v -0.016086 -0.565219 0.102403
v -0.016086 -0.660637 0.083550
v 0.013524 -0.565219 0.102403
v 0.013524 -0.660637 0.073689
v 0.013524 -0.660637 0.083550
v -0.016086 -0.406517 0.106347
v -0.016086 -0.565219 0.102403
v -0.016086 -0.565219 0.092541
v 0.013524 -0.565219 0.102403
v 0.013524 -0.565219 0.092541
v 0.013524 -0.660637 0.073689
v -0.016086 -0.406517 0.106347
v -0.016086 -0.406517 0.116209
v -0.016086 -0.565219 0.102403
v 0.013524 -0.406517 0.116209
v 0.013524 -0.565219 0.092541
v 0.013524 -0.565219 0.102403
v -0.016086 -0.247814 0.102403
v -0.016086 -0.406517 0.116209
v -0.016086 -0.406517 0.106347
v 0.013524 -0.406517 0.116209
v 0.013524 -0.406517 0.106347
v 0.013524 -0.565219 0.092541
v -0.016086 -0.406517 0.116209
v -0.016086 -0.247814 0.102403
v -0.016086 -0.247814 0.112264
v 0.013524 -0.247814 0.112264
v 0.013524 -0.406517 0.106347
v 0.013524 -0.406517 0.116209
v -0.016086 -0.247814 0.102403
v 0.013524 -0.247814 0.112264
v -0.016086 -0.247814 0.112264
v 0.013524 -0.406517 0.106347
v 0.013524 -0.247814 0.112264
v 0.013524 -0.247814 0.102403
v 0.013524 -0.247814 0.112264
v -0.016086 -0.247814 0.102403
v 0.013524 -0.247814 0.102403
v 0.031687 -0.743610 0.040086
v -0.016086 -0.709194 0.059013
v -0.034249 -0.743610 0.040086
v -0.016086 -0.709194 0.059013
v 0.031687 -0.743610 0.040086
v 0.013524 -0.709194 0.059013
v 0.013524 -0.709194 0.059013
v -0.016086 -0.660637 0.083550
v -0.016086 -0.709194 0.059013
v -0.016086 -0.709194 0.059013
v -0.016086 -0.660637 0.083550
v 0.013524 -0.709194 0.059013
v -0.016086 -0.709194 0.059013
v -0.016086 -0.720042 0.049152
v 0.013524 -0.709194 0.059013
v 0.013524 -0.720042 0.049152
v -0.016086 -0.660637 0.073689
v -0.016086 -0.720042 0.049152
v -0.016086 -0.720042 0.049152
v -0.016086 -0.660637 0.073689
v 0.013524 -0.720042 0.049152
v 0.013524 -0.720042 0.049152
v 0.013524 -0.709194 0.059013
v -0.016086 -0.720042 0.049152
v -0.016086 -0.660637 0.083550
v 0.013524 -0.709194 0.059013
v 0.013524 -0.660637 0.083550
v 0.013524 -0.660637 0.083550
v 0.013524 -0.709194 0.059013
v -0.016086 -0.660637 0.083550
v -0.016086 -0.709194 0.059013
v -0.016086 -0.660637 0.083550
v -0.016086 -0.660637 0.073689
v -0.016086 -0.720042 0.049152
v -0.016086 -0.709194 0.059013
v -0.016086 -0.660637 0.073689
v -0.016086 -0.660637 0.073689
v 0.013524 -0.720042 0.049152
v 0.013524 -0.660637 0.073689
v 0.013524 -0.660637 0.073689
v 0.013524 -0.720042 0.049152
v -0.016086 -0.660637 0.073689
v 0.013524 -0.709194 0.059013
v 0.013524 -0.720042 0.049152
v 0.013524 -0.660637 0.083550
v 0.013524 -0.660637 0.083550
v -0.016086 -0.565219 0.102403
v -0.016086 -0.660637 0.083550
v -0.016086 -0.660637 0.083550
v -0.016086 -0.565219 0.102403
v 0.013524 -0.660637 0.083550
v -0.016086 -0.660637 0.073689
v -0.016086 -0.660637 0.083550
v -0.016086 -0.565219 0.092541
v 0.013524 -0.720042 0.049152
v 0.013524 -0.660637 0.073689
v 0.013524 -0.660637 0.083550
v 0.013524 -0.660637 0.073689
v -0.016086 -0.565219 0.092541
v -0.016086 -0.660637 0.073689
v -0.016086 -0.660637 0.073689
v -0.016086 -0.565219 0.092541
v 0.013524 -0.660637 0.073689
v -0.016086 -0.565219 0.102403
v 0.013524 -0.660637 0.083550
v 0.013524 -0.565219 0.102403
v 0.013524 -0.565219 0.102403
v 0.013524 -0.660637 0.083550
v -0.016086 -0.565219 0.102403
v -0.016086 -0.660637 0.083550
v -0.016086 -0.565219 0.102403
v -0.016086 -0.565219 0.092541
v 0.013524 -0.660637 0.083550
v 0.013524 -0.660637 0.073689
v 0.013524 -0.565219 0.102403
v -0.016086 -0.565219 0.092541
v 0.013524 -0.660637 0.073689
v 0.013524 -0.565219 0.092541
v 0.013524 -0.565219 0.092541
v 0.013524 -0.660637 0.073689
v -0.016086 -0.565219 0.092541
v 0.013524 -0.565219 0.102403
v -0.016086 -0.406517 0.116209
v -0.016086 -0.565219 0.102403
v -0.016086 -0.565219 0.102403
v -0.016086 -0.406517 0.116209
v 0.013524 -0.565219 0.102403
v -0.016086 -0.565219 0.092541
v -0.016086 -0.565219 0.102403
v -0.016086 -0.406517 0.106347
v 0.013524 -0.660637 0.073689
v 0.013524 -0.565219 0.092541
v 0.013524 -0.565219 0.102403
v 0.013524 -0.565219 0.092541
v -0.016086 -0.406517 0.106347
v -0.016086 -0.565219 0.092541
v -0.016086 -0.565219 0.092541
v -0.016086 -0.406517 0.106347
v 0.013524 -0.565219 0.092541
v -0.016086 -0.406517 0.116209
v 0.013524 -0.565219 0.102403
v 0.013524 -0.406517 0.116209
v 0.013524 -0.406517 0.116209
v 0.013524 -0.565219 0.102403
v -0.016086 -0.406517 0.116209
v -0.016086 -0.565219 0.102403
v -0.016086 -0.406517 0.116209
v -0.016086 -0.406517 0.106347
v 0.013524 -0.565219 0.102403
v 0.013524 -0.565219 0.092541
v 0.013524 -0.406517 0.116209
v -0.016086 -0.406517 0.106347
v 0.013524 -0.565219 0.092541
v 0.013524 -0.406517 0.106347
v 0.013524 -0.406517 0.106347
v 0.013524 -0.565219 0.092541
v -0.016086 -0.406517 0.106347
v 0.013524 -0.406517 0.116209
v -0.016086 -0.247814 0.112264
v -0.016086 -0.406517 0.116209
v -0.016086 -0.406517 0.116209
v -0.016086 -0.247814 0.112264
v 0.013524 -0.406517 0.116209
v -0.016086 -0.406517 0.106347
v -0.016086 -0.406517 0.116209
v -0.016086 -0.247814 0.102403
v 0.013524 -0.565219 0.092541
v 0.013524 -0.406517 0.106347
v 0.013524 -0.406517 0.116209
v 0.013524 -0.406517 0.106347
v -0.016086 -0.247814 0.102403
v -0.016086 -0.406517 0.106347
v -0.016086 -0.406517 0.106347
v -0.016086 -0.247814 0.102403
v 0.013524 -0.406517 0.106347
v -0.016086 -0.247814 0.112264
v 0.013524 -0.406517 0.116209
v 0.013524 -0.247814 0.112264
v 0.013524 -0.247814 0.112264
v 0.013524 -0.406517 0.116209
v -0.016086 -0.247814 0.112264
v -0.016086 -0.247814 0.112264
v -0.016086 -0.247814 0.102403
v -0.016086 -0.406517 0.116209
v 0.013524 -0.406517 0.116209
v 0.013524 -0.406517 0.106347
v 0.013524 -0.247814 0.112264
v -0.016086 -0.247814 0.102403
v 0.013524 -0.406517 0.106347
v 0.013524 -0.247814 0.102403
v 0.013524 -0.247814 0.102403
v 0.013524 -0.406517 0.106347
v -0.016086 -0.247814 0.102403
v -0.016086 -0.247814 0.112264
v 0.013524 -0.247814 0.112264
v -0.016086 -0.247814 0.102403
v 0.013524 -0.247814 0.102403
v 0.013524 -0.247814 0.112264
v 0.013524 -0.406517 0.106347
v 0.013524 -0.247814 0.102403
v -0.016086 -0.247814 0.102403
v 0.013524 -0.247814 0.112264
vn 0 0.4391539250319772 -0.8984118377052968
vn 0 0.4818808654889743 -0.8762367439656917
vn 0 0.6726729423336404 -0.7399399385438004
vn 1 0 0
vn -1 0 0
vn 0 -1 0
vn 0 -0.4391539250319772 0.8984118377052968
vn 0 -0.4818808654889743 0.8762367439656917
vn 0 -0.4510179440049747 0.8925148817725818
vn 0 -0.3254479937353453 0.945559941713712
vn 0 0.4510179440049747 -0.8925148817725818
vn 0 0.3254479937353453 -0.945559941713712
vn 0 -0.6726729423336404 0.7399399385438004
vn 0 -0.3817718521989317 0.9242565947119864
vn 0 -0.28919716175520294 0.957269555367105
vn 0 0.3817718521989317 -0.9242565947119864
vn 0 0.28919716175520294 -0.957269555367105
vn 0 -0.14045304803299938 0.9900873402373349
vn 0 0.14045304803299938 -0.9900873402373349
vn 0 -0.030956991051612252 0.9995207174966563
vn 0 0.030956991051612252 -0.9995207174966563
vn 0 0.02484700719854963 0.999691265458129
vn 0 -0.02484700719854963 -0.999691265458129
vn 0 1 0
usemtl material_0_0
f 1//1 2//2 3//1
f 4//2 5//1 6//2
f 7//3 8//3 9//3
f 10//3 11//3 12//3
f 13//4 14//4 15//4
f 16//4 17//4 18//4
f 19//5 20//5 21//5
f 22//4 23//4 24//4
f 25//5 26//5 27//5
f 28//4 29//4 30//4
f 31//5 32//5 33//5
f 34//4 35//4 36//4
f 37//5 38//5 39//5
f 40//4 41//4 42//4
f 43//5 44//5 45//5
f 46//4 47//4 48//4
f 49//5 50//5 51//5
f 52//4 53//4 54//4
f 55//5 56//5 57//5
f 58//6 59//6 60//6
f 61//5 62//5 63//5
f 64//6 65//6 66//6
usemtl material_1_0
f 67//7 68//8 69//7
f 70//8 71//7 72//8
f 73//9 74//10 75//9
f 76//11 77//12 78//11
f 79//13 80//13 81//13
f 82//14 83//15 84//14
f 85//16 86//17 87//16
f 88//13 89//13 90//13
f 91//10 92//9 93//10
f 94//12 95//11 96//12
f 97//5 98//5 99//5
f 100//5 101//5 102//5
f 103//15 104//14 105//15
f 106//17 107//16 108//17
f 109//4 110//4 111//4
f 112//10 113//18 114//10
f 115//12 116//19 117//12
f 118//5 119//5 120//5
f 121//4 122//4 123//4
f 124//15 125//18 126//15
f 127//17 128//19 129//17
f 130//18 131//10 132//18
f 133//19 134//12 135//19
f 136//5 137//5 138//5
f 139//4 140//4 141//4
f 142//18 143//15 144//18
f 145//19 146//17 147//19
f 148//18 149//20 150//18
f 151//19 152//21 153//19
f 154//5 155//5 156//5
f 157//4 158//4 159//4
f 160//18 161//20 162//18
f 163//19 164//21 165//19
f 166//20 167//18 168//20
f 169//21 170//19 171//21
f 172//5 173//5 174//5
f 175//4 176//4 177//4
f 178//20 179//18 180//20
f 181//21 182//19 183//21
f 184//20 185//22 186//20
f 187//21 188//23 189//21
f 190//5 191//5 192//5
f 193//4 194//4 195//4
f 196//20 197//22 198//20
f 199//21 200//23 201//21
f 202//22 203//20 204//22
f 205//23 206//21 207//23
f 208//5 209//5 210//5
f 211//4 212//4 213//4
f 214//22 215//20 216//22
f 217//23 218//21 219//23
f 220//24 221//24 222//24
f 223//4 224//4 225//4
f 226//24 227//24 228//24
