# SSTK version 0.8.0
# 8
mtllib original-8.mtl
o 3dw.59a07a01d7c3fdb03c1d9add3a87bd2d/Model/mesh1/mesh1-geometry/material_1/component_6#mesh1-geometry
v 0.023337 -0.530692 -0.048741
v -0.036096 -0.530692 -0.040917
v -0.025899 -0.530692 -0.048741
v -0.025899 -0.530692 -0.048741
v -0.036096 -0.530692 -0.040917
v 0.023337 -0.530692 -0.048741
v 0.023337 -0.530692 -0.048741
v -0.025899 -0.530692 -0.048741
v -0.014024 -0.530692 -0.053660
v -0.014024 -0.530692 -0.053660
v -0.025899 -0.530692 -0.048741
v 0.023337 -0.530692 -0.048741
v 0.033534 -0.530692 -0.040917
v -0.036096 -0.530692 -0.040917
v 0.023337 -0.530692 -0.048741
v 0.023337 -0.530692 -0.048741
v -0.036096 -0.530692 -0.040917
v 0.033534 -0.530692 -0.040917
v 0.041359 -0.530692 -0.030720
v -0.043921 -0.530692 -0.030720
v -0.036096 -0.530692 -0.040917
v -0.036096 -0.530692 -0.040917
v -0.043921 -0.530692 -0.030720
v 0.041359 -0.530692 -0.030720
v 0.023337 -0.530692 -0.048741
v -0.014024 -0.530692 -0.053660
v 0.011462 -0.530692 -0.053660
v 0.011462 -0.530692 -0.053660
v -0.014024 -0.530692 -0.053660
v 0.023337 -0.530692 -0.048741
v 0.011462 -0.530692 -0.053660
v -0.014024 -0.530692 -0.053660
v -0.001281 -0.530692 -0.055338
v -0.001281 -0.530692 -0.055338
v -0.014024 -0.530692 -0.053660
v 0.011462 -0.530692 -0.053660
v 0.041359 -0.530692 -0.030720
v -0.036096 -0.530692 -0.040917
v 0.033534 -0.530692 -0.040917
v 0.033534 -0.530692 -0.040917
v -0.036096 -0.530692 -0.040917
v 0.041359 -0.530692 -0.030720
v 0.046278 -0.530692 -0.018845
v -0.043921 -0.530692 -0.030720
v 0.041359 -0.530692 -0.030720
v 0.041359 -0.530692 -0.030720
v -0.043921 -0.530692 -0.030720
v 0.046278 -0.530692 -0.018845
v 0.046278 -0.530692 -0.018845
v -0.048839 -0.530692 -0.018845
v -0.043921 -0.530692 -0.030720
v -0.043921 -0.530692 -0.030720
v -0.048839 -0.530692 -0.018845
v 0.046278 -0.530692 -0.018845
v 0.047955 -0.530692 -0.006102
v -0.050517 -0.530692 -0.006102
v 0.046278 -0.530692 -0.018845
v 0.046278 -0.530692 -0.018845
v -0.050517 -0.530692 -0.006102
v 0.047955 -0.530692 -0.006102
v 0.046278 -0.530692 -0.018845
v -0.050517 -0.530692 -0.006102
v -0.048839 -0.530692 -0.018845
v -0.048839 -0.530692 -0.018845
v -0.050517 -0.530692 -0.006102
v 0.046278 -0.530692 -0.018845
v 0.046278 -0.530692 0.006642
v -0.050517 -0.530692 -0.006102
v 0.047955 -0.530692 -0.006102
v 0.047955 -0.530692 -0.006102
v -0.050517 -0.530692 -0.006102
v 0.046278 -0.530692 0.006642
v 0.046278 -0.530692 0.006642
v -0.048839 -0.530692 0.006642
v -0.050517 -0.530692 -0.006102
v -0.050517 -0.530692 -0.006102
v -0.048839 -0.530692 0.006642
v 0.046278 -0.530692 0.006642
v 0.046278 -0.530692 0.006642
v -0.043921 -0.530692 0.018516
v -0.048839 -0.530692 0.006642
v -0.048839 -0.530692 0.006642
v -0.043921 -0.530692 0.018516
v 0.046278 -0.530692 0.006642
v 0.041359 -0.530692 0.018516
v -0.043921 -0.530692 0.018516
v 0.046278 -0.530692 0.006642
v 0.046278 -0.530692 0.006642
v -0.043921 -0.530692 0.018516
v 0.041359 -0.530692 0.018516
v 0.033534 -0.530692 0.028714
v -0.043921 -0.530692 0.018516
v 0.041359 -0.530692 0.018516
v 0.041359 -0.530692 0.018516
v -0.043921 -0.530692 0.018516
v 0.033534 -0.530692 0.028714
v 0.033534 -0.530692 0.028714
v -0.036096 -0.530692 0.028714
v -0.043921 -0.530692 0.018516
v -0.043921 -0.530692 0.018516
v -0.036096 -0.530692 0.028714
v 0.033534 -0.530692 0.028714
v 0.023337 -0.530692 0.036538
v -0.025899 -0.530692 0.036538
v 0.033534 -0.530692 0.028714
v 0.033534 -0.530692 0.028714
v -0.025899 -0.530692 0.036538
v 0.023337 -0.530692 0.036538
v 0.033534 -0.530692 0.028714
v -0.025899 -0.530692 0.036538
v -0.036096 -0.530692 0.028714
v -0.036096 -0.530692 0.028714
v -0.025899 -0.530692 0.036538
v 0.033534 -0.530692 0.028714
v 0.011462 -0.530692 0.041457
v -0.025899 -0.530692 0.036538
v 0.023337 -0.530692 0.036538
v 0.023337 -0.530692 0.036538
v -0.025899 -0.530692 0.036538
v 0.011462 -0.530692 0.041457
v 0.011462 -0.530692 0.041457
v -0.014024 -0.530692 0.041457
v -0.025899 -0.530692 0.036538
v -0.025899 -0.530692 0.036538
v -0.014024 -0.530692 0.041457
v 0.011462 -0.530692 0.041457
v -0.014024 -0.530692 0.041457
v 0.011462 -0.530692 0.041457
v -0.001281 -0.530692 0.043135
v -0.001281 -0.530692 0.043135
v 0.011462 -0.530692 0.041457
v -0.014024 -0.530692 0.041457
vn 0 -1 0
vn 0 1 0
usemtl material_0_0
f 1//1 2//1 3//1
f 4//2 5//2 6//2
f 7//1 8//1 9//1
f 10//2 11//2 12//2
f 13//1 14//1 15//1
f 16//2 17//2 18//2
f 19//1 20//1 21//1
f 22//2 23//2 24//2
f 25//1 26//1 27//1
f 28//2 29//2 30//2
f 31//1 32//1 33//1
f 34//2 35//2 36//2
f 37//1 38//1 39//1
f 40//2 41//2 42//2
f 43//1 44//1 45//1
f 46//2 47//2 48//2
f 49//1 50//1 51//1
f 52//2 53//2 54//2
f 55//1 56//1 57//1
f 58//2 59//2 60//2
f 61//1 62//1 63//1
f 64//2 65//2 66//2
f 67//1 68//1 69//1
f 70//2 71//2 72//2
f 73//1 74//1 75//1
f 76//2 77//2 78//2
f 79//1 80//1 81//1
f 82//2 83//2 84//2
f 85//1 86//1 87//1
f 88//2 89//2 90//2
f 91//1 92//1 93//1
f 94//2 95//2 96//2
f 97//1 98//1 99//1
f 100//2 101//2 102//2
f 103//1 104//1 105//1
f 106//2 107//2 108//2
f 109//1 110//1 111//1
f 112//2 113//2 114//2
f 115//1 116//1 117//1
f 118//2 119//2 120//2
f 121//1 122//1 123//1
f 124//2 125//2 126//2
f 127//1 128//1 129//1
f 130//2 131//2 132//2
