# SSTK version 0.8.0
# 7
mtllib original-7.mtl
o 3dw.228b41e91b3eac5e6eed87081bea555c/Model/Group1/mesh1/mesh1-geometry/material_1/component_2#mesh1-geometry
v -0.295173 -0.470964 -0.247733
v -0.295173 -0.469837 -0.264458
v -0.295173 -0.470964 -0.264458
v -0.295173 -0.470964 -0.264458
v -0.295173 -0.469837 -0.264458
v -0.295173 -0.470964 -0.247733
v -0.295173 -0.469837 -0.264458
v -0.295173 -0.470964 -0.247733
v -0.295173 -0.469837 -0.247733
v -0.295173 -0.469837 -0.247733
v -0.295173 -0.470964 -0.247733
v -0.295173 -0.469837 -0.264458
v -0.295173 -0.470964 -0.247733
v -0.311899 -0.469837 -0.247733
v -0.295173 -0.469837 -0.247733
v -0.295173 -0.469837 -0.247733
v -0.311899 -0.469837 -0.247733
v -0.295173 -0.470964 -0.247733
v -0.311899 -0.469837 -0.247733
v -0.295173 -0.470964 -0.247733
v -0.311899 -0.470964 -0.247733
v -0.311899 -0.470964 -0.247733
v -0.295173 -0.470964 -0.247733
v -0.311899 -0.469837 -0.247733
vn -1 0 0
vn 1 0 0
vn 0 0 -1
vn 0 0 1
usemtl material_0_0
f 1//1 2//1 3//1
f 4//2 5//2 6//2
f 7//1 8//1 9//1
f 10//2 11//2 12//2
f 13//3 14//3 15//3
f 16//4 17//4 18//4
f 19//3 20//3 21//3
f 22//4 23//4 24//4
