# SSTK version 0.8.0
# 10
mtllib original-10.mtl
o 3dw.228b41e91b3eac5e6eed87081bea555c/Model/Group1/mesh1/mesh1-geometry/material_1/component_5#mesh1-geometry
v -0.295173 0.365333 -0.247733
v -0.211544 0.365333 -0.271149
v -0.211544 0.365333 -0.247733
v -0.211544 0.365333 -0.247733
v -0.211544 0.365333 -0.271149
v -0.295173 0.365333 -0.247733
v -0.211544 0.365333 -0.271149
v -0.295173 0.365333 -0.247733
v -0.295173 0.365333 -0.271149
v -0.295173 0.365333 -0.271149
v -0.295173 0.365333 -0.247733
v -0.211544 0.365333 -0.271149
vn 0 -1 0
vn 0 1 0
usemtl material_0_0
f 1//1 2//1 3//1
f 4//2 5//2 6//2
f 7//1 8//1 9//1
f 10//2 11//2 12//2
