# SSTK version 0.8.0
# 3
mtllib original-3.mtl
o 3dw.228b41e91b3eac5e6eed87081bea555c/Model/Group1/mesh1/mesh1-geometry/material_0/component_2#mesh1-geometry
v -0.049777 -0.016494 -0.247733
v -0.035921 -0.027126 -0.866592
v -0.035921 -0.027126 -0.247733
v -0.060410 -0.002637 -0.866592
v -0.049777 -0.016494 -0.247733
v -0.060410 -0.002637 -0.247733
v -0.035921 -0.027126 -0.866592
v -0.049777 -0.016494 -0.247733
v -0.049777 -0.016494 -0.866592
v -0.019785 -0.033810 -0.866592
v -0.035921 -0.027126 -0.247733
v -0.035921 -0.027126 -0.866592
v -0.035921 -0.027126 -0.247733
v -0.019785 -0.033810 -0.866592
v -0.019785 -0.033810 -0.247733
v -0.049777 -0.016494 -0.247733
v -0.060410 -0.002637 -0.866592
v -0.049777 -0.016494 -0.866592
v -0.060410 -0.002637 -0.247733
v -0.067093 0.013499 -0.866592
v -0.060410 -0.002637 -0.866592
v 0.030983 -0.027126 -0.866592
v -0.035921 -0.027126 -0.866592
v -0.049777 -0.016494 -0.866592
v 0.014847 -0.033810 -0.866592
v -0.019785 -0.033810 -0.866592
v -0.035921 -0.027126 -0.866592
v -0.002469 -0.036089 -0.866592
v -0.019785 -0.033810 -0.247733
v -0.019785 -0.033810 -0.866592
v -0.019785 -0.033810 -0.247733
v -0.002469 -0.036089 -0.866592
v -0.002469 -0.036089 -0.247733
v -0.067093 0.013499 -0.866592
v -0.060410 -0.002637 -0.247733
v -0.067093 0.013499 -0.247733
v 0.044839 -0.016494 -0.866592
v -0.049777 -0.016494 -0.866592
v -0.060410 -0.002637 -0.866592
v 0.055471 -0.002637 -0.866592
v -0.060410 -0.002637 -0.866592
v -0.067093 0.013499 -0.866592
v 0.014847 -0.033810 -0.866592
v -0.035921 -0.027126 -0.866592
v 0.030983 -0.027126 -0.866592
v 0.030983 -0.027126 -0.866592
v -0.049777 -0.016494 -0.866592
v 0.044839 -0.016494 -0.866592
v -0.019785 -0.033810 -0.866592
v 0.014847 -0.033810 -0.866592
v -0.002469 -0.036089 -0.866592
v 0.014847 -0.033810 -0.866592
v -0.002469 -0.036089 -0.247733
v -0.002469 -0.036089 -0.866592
v -0.002469 -0.036089 -0.247733
v 0.014847 -0.033810 -0.866592
v 0.014847 -0.033810 -0.247733
v 0.044839 -0.016494 -0.866592
v 0.055471 -0.002637 -0.247733
v 0.044839 -0.016494 -0.247733
v 0.055471 -0.002637 -0.866592
v 0.062155 0.013499 -0.247733
v 0.055471 -0.002637 -0.247733
v -0.069373 0.030814 -0.866592
v -0.067093 0.013499 -0.247733
v -0.069373 0.030814 -0.247733
v -0.067093 0.013499 -0.247733
v -0.069373 0.030814 -0.866592
v -0.067093 0.013499 -0.866592
v 0.044839 -0.016494 -0.866592
v -0.060410 -0.002637 -0.866592
v 0.055471 -0.002637 -0.866592
v 0.055471 -0.002637 -0.866592
v -0.067093 0.013499 -0.866592
v 0.062155 0.013499 -0.866592
v 0.030983 -0.027126 -0.866592
v 0.014847 -0.033810 -0.247733
v 0.014847 -0.033810 -0.866592
v 0.044839 -0.016494 -0.866592
v 0.030983 -0.027126 -0.247733
v 0.030983 -0.027126 -0.866592
v 0.014847 -0.033810 -0.247733
v 0.030983 -0.027126 -0.866592
v 0.030983 -0.027126 -0.247733
v 0.030983 -0.027126 -0.247733
v 0.044839 -0.016494 -0.866592
v 0.044839 -0.016494 -0.247733
v 0.055471 -0.002637 -0.247733
v 0.044839 -0.016494 -0.866592
v 0.055471 -0.002637 -0.866592
v 0.062155 0.013499 -0.247733
v 0.055471 -0.002637 -0.866592
v 0.062155 0.013499 -0.866592
v 0.062155 0.013499 -0.866592
v 0.064434 0.030814 -0.247733
v 0.062155 0.013499 -0.247733
v -0.067093 0.048130 -0.866592
v -0.069373 0.030814 -0.247733
v -0.067093 0.048130 -0.247733
v -0.069373 0.030814 -0.247733
v -0.067093 0.048130 -0.866592
v -0.069373 0.030814 -0.866592
v 0.062155 0.013499 -0.866592
v -0.067093 0.013499 -0.866592
v -0.069373 0.030814 -0.866592
v 0.064434 0.030814 -0.247733
v 0.062155 0.013499 -0.866592
v 0.064434 0.030814 -0.866592
v 0.064434 0.030814 -0.866592
v 0.062155 0.048130 -0.247733
v 0.064434 0.030814 -0.247733
v -0.060410 0.064266 -0.866592
v -0.067093 0.048130 -0.247733
v -0.060410 0.064266 -0.247733
v -0.067093 0.048130 -0.247733
v -0.060410 0.064266 -0.866592
v -0.067093 0.048130 -0.866592
v 0.064434 0.030814 -0.866592
v -0.069373 0.030814 -0.866592
v -0.067093 0.048130 -0.866592
v 0.062155 0.013499 -0.866592
v -0.069373 0.030814 -0.866592
v 0.064434 0.030814 -0.866592
v 0.062155 0.048130 -0.247733
v 0.064434 0.030814 -0.866592
v 0.062155 0.048130 -0.866592
v 0.062155 0.048130 -0.866592
v 0.055471 0.064266 -0.247733
v 0.062155 0.048130 -0.247733
v -0.049777 0.078123 -0.866592
v -0.060410 0.064266 -0.247733
v -0.049777 0.078123 -0.247733
v -0.060410 0.064266 -0.247733
v -0.049777 0.078123 -0.866592
v -0.060410 0.064266 -0.866592
v 0.055471 0.064266 -0.866592
v -0.067093 0.048130 -0.866592
v -0.060410 0.064266 -0.866592
v 0.064434 0.030814 -0.866592
v -0.067093 0.048130 -0.866592
v 0.062155 0.048130 -0.866592
v 0.055471 0.064266 -0.247733
v 0.062155 0.048130 -0.866592
v 0.055471 0.064266 -0.866592
v 0.055471 0.064266 -0.866592
v 0.044839 0.078123 -0.247733
v 0.055471 0.064266 -0.247733
v 0.014847 0.095439 -0.247733
v -0.002469 0.097718 -0.866592
v -0.002469 0.097718 -0.247733
v -0.002469 0.097718 -0.247733
v -0.019785 0.095439 -0.866592
v -0.019785 0.095439 -0.247733
v -0.035921 0.088755 -0.247733
v -0.049777 0.078123 -0.866592
v -0.049777 0.078123 -0.247733
v 0.055471 0.064266 -0.866592
v -0.060410 0.064266 -0.866592
v -0.049777 0.078123 -0.866592
v 0.062155 0.048130 -0.866592
v -0.067093 0.048130 -0.866592
v 0.055471 0.064266 -0.866592
v 0.044839 0.078123 -0.247733
v 0.055471 0.064266 -0.866592
v 0.044839 0.078123 -0.866592
v 0.044839 0.078123 -0.247733
v 0.030983 0.088755 -0.866592
v 0.030983 0.088755 -0.247733
v 0.030983 0.088755 -0.247733
v 0.014847 0.095439 -0.866592
v 0.014847 0.095439 -0.247733
v -0.002469 0.097718 -0.866592
v 0.014847 0.095439 -0.247733
v 0.014847 0.095439 -0.866592
v -0.019785 0.095439 -0.866592
v -0.002469 0.097718 -0.247733
v -0.002469 0.097718 -0.866592
v -0.019785 0.095439 -0.247733
v -0.035921 0.088755 -0.866592
v -0.035921 0.088755 -0.247733
v -0.035921 0.088755 -0.866592
v -0.019785 0.095439 -0.247733
v -0.019785 0.095439 -0.866592
v -0.049777 0.078123 -0.866592
v -0.035921 0.088755 -0.247733
v -0.035921 0.088755 -0.866592
v 0.055471 0.064266 -0.866592
v -0.049777 0.078123 -0.866592
v 0.044839 0.078123 -0.866592
v 0.030983 0.088755 -0.866592
v 0.044839 0.078123 -0.247733
v 0.044839 0.078123 -0.866592
v 0.014847 0.095439 -0.866592
v 0.030983 0.088755 -0.247733
v 0.030983 0.088755 -0.866592
v 0.014847 0.095439 -0.866592
v -0.019785 0.095439 -0.866592
v -0.002469 0.097718 -0.866592
v 0.030983 0.088755 -0.866592
v -0.035921 0.088755 -0.866592
v -0.019785 0.095439 -0.866592
v 0.044839 0.078123 -0.866592
v -0.049777 0.078123 -0.866592
v -0.035921 0.088755 -0.866592
v 0.044839 0.078123 -0.866592
v -0.035921 0.088755 -0.866592
v 0.030983 0.088755 -0.866592
v 0.030983 0.088755 -0.866592
v -0.019785 0.095439 -0.866592
v 0.014847 0.095439 -0.866592
v -0.035921 -0.027126 -0.247733
v -0.035921 -0.027126 -0.866592
v -0.049777 -0.016494 -0.247733
v -0.060410 -0.002637 -0.247733
v -0.049777 -0.016494 -0.247733
v -0.060410 -0.002637 -0.866592
v -0.049777 -0.016494 -0.866592
v -0.049777 -0.016494 -0.247733
v -0.035921 -0.027126 -0.866592
v -0.035921 -0.027126 -0.866592
v -0.035921 -0.027126 -0.247733
v -0.019785 -0.033810 -0.866592
v -0.019785 -0.033810 -0.247733
v -0.019785 -0.033810 -0.866592
v -0.035921 -0.027126 -0.247733
v -0.049777 -0.016494 -0.866592
v -0.060410 -0.002637 -0.866592
v -0.049777 -0.016494 -0.247733
v -0.060410 -0.002637 -0.866592
v -0.067093 0.013499 -0.866592
v -0.060410 -0.002637 -0.247733
v -0.049777 -0.016494 -0.866592
v -0.035921 -0.027126 -0.866592
v 0.030983 -0.027126 -0.866592
v -0.035921 -0.027126 -0.866592
v -0.019785 -0.033810 -0.866592
v 0.014847 -0.033810 -0.866592
v -0.019785 -0.033810 -0.866592
v -0.019785 -0.033810 -0.247733
v -0.002469 -0.036089 -0.866592
v -0.002469 -0.036089 -0.247733
v -0.002469 -0.036089 -0.866592
v -0.019785 -0.033810 -0.247733
v -0.067093 0.013499 -0.247733
v -0.060410 -0.002637 -0.247733
v -0.067093 0.013499 -0.866592
v -0.060410 -0.002637 -0.866592
v -0.049777 -0.016494 -0.866592
v 0.044839 -0.016494 -0.866592
v -0.067093 0.013499 -0.866592
v -0.060410 -0.002637 -0.866592
v 0.055471 -0.002637 -0.866592
v 0.030983 -0.027126 -0.866592
v -0.035921 -0.027126 -0.866592
v 0.014847 -0.033810 -0.866592
v 0.044839 -0.016494 -0.866592
v -0.049777 -0.016494 -0.866592
v 0.030983 -0.027126 -0.866592
v -0.002469 -0.036089 -0.866592
v 0.014847 -0.033810 -0.866592
v -0.019785 -0.033810 -0.866592
v -0.002469 -0.036089 -0.866592
v -0.002469 -0.036089 -0.247733
v 0.014847 -0.033810 -0.866592
v 0.014847 -0.033810 -0.247733
v 0.014847 -0.033810 -0.866592
v -0.002469 -0.036089 -0.247733
v 0.044839 -0.016494 -0.247733
v 0.055471 -0.002637 -0.247733
v 0.044839 -0.016494 -0.866592
v 0.055471 -0.002637 -0.247733
v 0.062155 0.013499 -0.247733
v 0.055471 -0.002637 -0.866592
v -0.069373 0.030814 -0.247733
v -0.067093 0.013499 -0.247733
v -0.069373 0.030814 -0.866592
v -0.067093 0.013499 -0.866592
v -0.069373 0.030814 -0.866592
v -0.067093 0.013499 -0.247733
v 0.055471 -0.002637 -0.866592
v -0.060410 -0.002637 -0.866592
v 0.044839 -0.016494 -0.866592
v 0.062155 0.013499 -0.866592
v -0.067093 0.013499 -0.866592
v 0.055471 -0.002637 -0.866592
v 0.014847 -0.033810 -0.866592
v 0.014847 -0.033810 -0.247733
v 0.030983 -0.027126 -0.866592
v 0.030983 -0.027126 -0.866592
v 0.030983 -0.027126 -0.247733
v 0.044839 -0.016494 -0.866592
v 0.030983 -0.027126 -0.247733
v 0.030983 -0.027126 -0.866592
v 0.014847 -0.033810 -0.247733
v 0.044839 -0.016494 -0.247733
v 0.044839 -0.016494 -0.866592
v 0.030983 -0.027126 -0.247733
v 0.055471 -0.002637 -0.866592
v 0.044839 -0.016494 -0.866592
v 0.055471 -0.002637 -0.247733
v 0.062155 0.013499 -0.866592
v 0.055471 -0.002637 -0.866592
v 0.062155 0.013499 -0.247733
v 0.062155 0.013499 -0.247733
v 0.064434 0.030814 -0.247733
v 0.062155 0.013499 -0.866592
v -0.067093 0.048130 -0.247733
v -0.069373 0.030814 -0.247733
v -0.067093 0.048130 -0.866592
v -0.069373 0.030814 -0.866592
v -0.067093 0.048130 -0.866592
v -0.069373 0.030814 -0.247733
v -0.069373 0.030814 -0.866592
v -0.067093 0.013499 -0.866592
v 0.062155 0.013499 -0.866592
v 0.064434 0.030814 -0.866592
v 0.062155 0.013499 -0.866592
v 0.064434 0.030814 -0.247733
v 0.064434 0.030814 -0.247733
v 0.062155 0.048130 -0.247733
v 0.064434 0.030814 -0.866592
v -0.060410 0.064266 -0.247733
v -0.067093 0.048130 -0.247733
v -0.060410 0.064266 -0.866592
v -0.067093 0.048130 -0.866592
v -0.060410 0.064266 -0.866592
v -0.067093 0.048130 -0.247733
v -0.067093 0.048130 -0.866592
v -0.069373 0.030814 -0.866592
v 0.064434 0.030814 -0.866592
v 0.064434 0.030814 -0.866592
v -0.069373 0.030814 -0.866592
v 0.062155 0.013499 -0.866592
v 0.062155 0.048130 -0.866592
v 0.064434 0.030814 -0.866592
v 0.062155 0.048130 -0.247733
v 0.062155 0.048130 -0.247733
v 0.055471 0.064266 -0.247733
v 0.062155 0.048130 -0.866592
v -0.049777 0.078123 -0.247733
v -0.060410 0.064266 -0.247733
v -0.049777 0.078123 -0.866592
v -0.060410 0.064266 -0.866592
v -0.049777 0.078123 -0.866592
v -0.060410 0.064266 -0.247733
v -0.060410 0.064266 -0.866592
v -0.067093 0.048130 -0.866592
v 0.055471 0.064266 -0.866592
v 0.062155 0.048130 -0.866592
v -0.067093 0.048130 -0.866592
v 0.064434 0.030814 -0.866592
v 0.055471 0.064266 -0.866592
v 0.062155 0.048130 -0.866592
v 0.055471 0.064266 -0.247733
v 0.055471 0.064266 -0.247733
v 0.044839 0.078123 -0.247733
v 0.055471 0.064266 -0.866592
v -0.002469 0.097718 -0.247733
v -0.002469 0.097718 -0.866592
v 0.014847 0.095439 -0.247733
v -0.019785 0.095439 -0.247733
v -0.019785 0.095439 -0.866592
v -0.002469 0.097718 -0.247733
v -0.049777 0.078123 -0.247733
v -0.049777 0.078123 -0.866592
v -0.035921 0.088755 -0.247733
v -0.049777 0.078123 -0.866592
v -0.060410 0.064266 -0.866592
v 0.055471 0.064266 -0.866592
v 0.055471 0.064266 -0.866592
v -0.067093 0.048130 -0.866592
v 0.062155 0.048130 -0.866592
v 0.044839 0.078123 -0.866592
v 0.055471 0.064266 -0.866592
v 0.044839 0.078123 -0.247733
v 0.030983 0.088755 -0.247733
v 0.030983 0.088755 -0.866592
v 0.044839 0.078123 -0.247733
v 0.014847 0.095439 -0.247733
v 0.014847 0.095439 -0.866592
v 0.030983 0.088755 -0.247733
v 0.014847 0.095439 -0.866592
v 0.014847 0.095439 -0.247733
v -0.002469 0.097718 -0.866592
v -0.002469 0.097718 -0.866592
v -0.002469 0.097718 -0.247733
v -0.019785 0.095439 -0.866592
v -0.035921 0.088755 -0.247733
v -0.035921 0.088755 -0.866592
v -0.019785 0.095439 -0.247733
v -0.019785 0.095439 -0.866592
v -0.019785 0.095439 -0.247733
v -0.035921 0.088755 -0.866592
v -0.035921 0.088755 -0.866592
v -0.035921 0.088755 -0.247733
v -0.049777 0.078123 -0.866592
v 0.044839 0.078123 -0.866592
v -0.049777 0.078123 -0.866592
v 0.055471 0.064266 -0.866592
v 0.044839 0.078123 -0.866592
v 0.044839 0.078123 -0.247733
v 0.030983 0.088755 -0.866592
v 0.030983 0.088755 -0.866592
v 0.030983 0.088755 -0.247733
v 0.014847 0.095439 -0.866592
v -0.002469 0.097718 -0.866592
v -0.019785 0.095439 -0.866592
v 0.014847 0.095439 -0.866592
v -0.019785 0.095439 -0.866592
v -0.035921 0.088755 -0.866592
v 0.030983 0.088755 -0.866592
v -0.035921 0.088755 -0.866592
v -0.049777 0.078123 -0.866592
v 0.044839 0.078123 -0.866592
v 0.030983 0.088755 -0.866592
v -0.035921 0.088755 -0.866592
v 0.044839 0.078123 -0.866592
v 0.014847 0.095439 -0.866592
v -0.019785 0.095439 -0.866592
v 0.030983 0.088755 -0.866592
vn -0.7071067811865477 -0.7071067811865475 0
vn -0.5000001873976235 -0.8660252955903432 0
vn -0.8660252955903435 -0.5000001873976231 0
vn -0.258818974617074 -0.9659258451755841 0
vn -0.9659258451755843 -0.25881897461707354 0
vn 0 0 -1
vn 0 -1 0
vn 0.25881897461707354 -0.9659258451755843 0
vn 0.7071067811865475 -0.7071067811865477 0
vn 0.8660252955903432 -0.5000001873976235 0
vn 0.9659258451755841 -0.258818974617074 0
vn -1 0 0
vn 0.5000001873976231 -0.8660252955903435 0
vn 1 0 0
vn -0.9659258451755841 0.258818974617074 0
vn 0.9659258451755843 0.25881897461707354 0
vn -0.8660252955903432 0.5000001873976235 0
vn 0.8660252955903435 0.5000001873976231 0
vn -0.7071067811865475 0.7071067811865477 0
vn 0.7071067811865477 0.7071067811865475 0
vn 0.258818974617074 0.9659258451755841 0
vn 0 1 0
vn -0.25881897461707354 0.9659258451755843 0
vn -0.5000001873976231 0.8660252955903435 0
vn 0.5000001873976235 0.8660252955903432 0
vn 0 0 1
usemtl material_0_0
f 1//1 2//2 3//2
f 4//3 5//1 6//3
f 7//2 8//1 9//1
f 10//4 11//2 12//2
f 13//2 14//4 15//4
f 16//1 17//3 18//1
f 19//3 20//5 21//3
f 22//6 23//6 24//6
f 25//6 26//6 27//6
f 28//7 29//4 30//4
f 31//4 32//7 33//7
f 34//5 35//3 36//5
f 37//6 38//6 39//6
f 40//6 41//6 42//6
f 43//6 44//6 45//6
f 46//6 47//6 48//6
f 49//6 50//6 51//6
f 52//8 53//7 54//7
f 55//7 56//8 57//8
f 58//9 59//10 60//9
f 61//10 62//11 63//10
f 64//12 65//5 66//12
f 67//5 68//12 69//5
f 70//6 71//6 72//6
f 73//6 74//6 75//6
f 76//13 77//8 78//8
f 79//9 80//13 81//13
f 82//8 83//13 84//13
f 85//13 86//9 87//9
f 88//10 89//9 90//10
f 91//11 92//10 93//11
f 94//11 95//14 96//11
f 97//15 98//12 99//15
f 100//12 101//15 102//12
f 103//6 104//6 105//6
f 106//14 107//11 108//14
f 109//14 110//16 111//14
f 112//17 113//15 114//17
f 115//15 116//17 117//15
f 118//6 119//6 120//6
f 121//6 122//6 123//6
f 124//16 125//14 126//16
f 127//16 128//18 129//16
f 130//19 131//17 132//19
f 133//17 134//19 135//17
f 136//6 137//6 138//6
f 139//6 140//6 141//6
f 142//18 143//16 144//18
f 145//18 146//20 147//18
f 148//21 149//22 150//22
f 151//22 152//23 153//23
f 154//24 155//19 156//19
f 157//6 158//6 159//6
f 160//6 161//6 162//6
f 163//20 164//18 165//20
f 166//20 167//25 168//25
f 169//25 170//21 171//21
f 172//22 173//21 174//21
f 175//23 176//22 177//22
f 178//23 179//24 180//24
f 181//24 182//23 183//23
f 184//19 185//24 186//24
f 187//6 188//6 189//6
f 190//25 191//20 192//20
f 193//21 194//25 195//25
f 196//6 197//6 198//6
f 199//6 200//6 201//6
f 202//6 203//6 204//6
f 205//6 206//6 207//6
f 208//6 209//6 210//6
usemtl material_1_0
f 211//25 212//25 213//20
f 214//18 215//20 216//18
f 217//20 218//20 219//25
f 220//25 221//25 222//21
f 223//21 224//21 225//25
f 226//20 227//18 228//20
f 229//18 230//16 231//18
f 232//26 233//26 234//26
f 235//26 236//26 237//26
f 238//21 239//21 240//22
f 241//22 242//22 243//21
f 244//16 245//18 246//16
f 247//26 248//26 249//26
f 250//26 251//26 252//26
f 253//26 254//26 255//26
f 256//26 257//26 258//26
f 259//26 260//26 261//26
f 262//22 263//22 264//23
f 265//23 266//23 267//22
f 268//19 269//17 270//19
f 271//17 272//15 273//17
f 274//14 275//16 276//14
f 277//16 278//14 279//16
f 280//26 281//26 282//26
f 283//26 284//26 285//26
f 286//23 287//23 288//24
f 289//24 290//24 291//19
f 292//24 293//24 294//23
f 295//19 296//19 297//24
f 298//17 299//19 300//17
f 301//15 302//17 303//15
f 304//15 305//12 306//15
f 307//11 308//14 309//11
f 310//14 311//11 312//14
f 313//26 314//26 315//26
f 316//12 317//15 318//12
f 319//12 320//5 321//12
f 322//10 323//11 324//10
f 325//11 326//10 327//11
f 328//26 329//26 330//26
f 331//26 332//26 333//26
f 334//5 335//12 336//5
f 337//5 338//3 339//5
f 340//9 341//10 342//9
f 343//10 344//9 345//10
f 346//26 347//26 348//26
f 349//26 350//26 351//26
f 352//3 353//5 354//3
f 355//3 356//1 357//3
f 358//7 359//7 360//4
f 361//8 362//8 363//7
f 364//9 365//9 366//13
f 367//26 368//26 369//26
f 370//26 371//26 372//26
f 373//1 374//3 375//1
f 376//2 377//2 378//1
f 379//4 380//4 381//2
f 382//4 383//4 384//7
f 385//7 386//7 387//8
f 388//13 389//13 390//8
f 391//8 392//8 393//13
f 394//13 395//13 396//9
f 397//26 398//26 399//26
f 400//1 401//1 402//2
f 403//2 404//2 405//4
f 406//26 407//26 408//26
f 409//26 410//26 411//26
f 412//26 413//26 414//26
f 415//26 416//26 417//26
f 418//26 419//26 420//26
