# SSTK version 0.8.0
# 8
mtllib original-8.mtl
o 3dw.228b41e91b3eac5e6eed87081bea555c/Model/Group1/mesh1/mesh1-geometry/material_1/component_3#mesh1-geometry
v 0.290234 -0.680038 -0.080473
v -0.295173 -0.663312 -0.080473
v 0.290234 -0.663312 -0.080473
v 0.290234 -0.663312 -0.080473
v -0.295173 -0.663312 -0.080473
v 0.290234 -0.680038 -0.080473
v -0.295173 -0.663312 -0.080473
v 0.290234 -0.680038 -0.080473
v -0.295173 -0.680038 -0.080473
v -0.295173 -0.680038 -0.080473
v 0.290234 -0.680038 -0.080473
v -0.295173 -0.663312 -0.080473
vn 0 0 -1
vn 0 0 1
usemtl material_0_0
f 1//1 2//1 3//1
f 4//2 5//2 6//2
f 7//1 8//1 9//1
f 10//2 11//2 12//2
