# SSTK version 0.8.0
# 1
mtllib original-1.mtl
o 3dw.228b41e91b3eac5e6eed87081bea555c/Model/Group1/mesh1/mesh1-geometry/material_0/component_0#mesh1-geometry
v 0.061557 -0.406744 -0.247733
v 0.054352 -0.422654 -0.866592
v 0.061557 -0.406744 -0.866592
v 0.054352 -0.422654 -0.866592
v 0.061557 -0.406744 -0.247733
v 0.054352 -0.422654 -0.247733
v 0.054352 -0.422654 -0.866592
v -0.061468 -0.418882 -0.866592
v 0.061557 -0.406744 -0.866592
v 0.061557 -0.406744 -0.866592
v 0.064399 -0.389511 -0.247733
v 0.061557 -0.406744 -0.247733
v 0.054352 -0.422654 -0.247733
v 0.043274 -0.436157 -0.866592
v 0.054352 -0.422654 -0.866592
v 0.054352 -0.422654 -0.866592
v -0.051292 -0.433077 -0.866592
v -0.061468 -0.418882 -0.866592
v 0.061557 -0.406744 -0.866592
v -0.061468 -0.418882 -0.866592
v -0.067623 -0.402537 -0.866592
v 0.064399 -0.389511 -0.247733
v 0.061557 -0.406744 -0.866592
v 0.064399 -0.389511 -0.866592
v 0.043274 -0.436157 -0.866592
v 0.054352 -0.422654 -0.247733
v 0.043274 -0.436157 -0.247733
v 0.043274 -0.436157 -0.866592
v -0.051292 -0.433077 -0.866592
v 0.054352 -0.422654 -0.866592
v -0.051292 -0.433077 -0.247733
v -0.061468 -0.418882 -0.866592
v -0.051292 -0.433077 -0.866592
v -0.061468 -0.418882 -0.247733
v -0.067623 -0.402537 -0.866592
v -0.061468 -0.418882 -0.866592
v 0.061557 -0.406744 -0.866592
v -0.067623 -0.402537 -0.866592
v 0.064399 -0.389511 -0.866592
v 0.064399 -0.389511 -0.866592
v 0.062684 -0.372130 -0.247733
v 0.064399 -0.389511 -0.247733
v 0.029079 -0.446332 -0.247733
v 0.043274 -0.436157 -0.866592
v 0.043274 -0.436157 -0.247733
v 0.043274 -0.436157 -0.866592
v -0.037789 -0.444155 -0.866592
v -0.051292 -0.433077 -0.866592
v -0.061468 -0.418882 -0.866592
v -0.051292 -0.433077 -0.247733
v -0.061468 -0.418882 -0.247733
v -0.037789 -0.444155 -0.866592
v -0.051292 -0.433077 -0.247733
v -0.051292 -0.433077 -0.866592
v -0.067623 -0.402537 -0.866592
v -0.061468 -0.418882 -0.247733
v -0.067623 -0.402537 -0.247733
v 0.064399 -0.389511 -0.866592
v -0.067623 -0.402537 -0.866592
v -0.069338 -0.385156 -0.866592
v 0.062684 -0.372130 -0.247733
v 0.064399 -0.389511 -0.866592
v 0.062684 -0.372130 -0.866592
v 0.043274 -0.436157 -0.866592
v 0.029079 -0.446332 -0.247733
v 0.029079 -0.446332 -0.866592
v 0.029079 -0.446332 -0.866592
v -0.037789 -0.444155 -0.866592
v 0.043274 -0.436157 -0.866592
v -0.051292 -0.433077 -0.247733
v -0.037789 -0.444155 -0.866592
v -0.037789 -0.444155 -0.247733
v -0.067623 -0.402537 -0.247733
v -0.069338 -0.385156 -0.866592
v -0.067623 -0.402537 -0.866592
v 0.064399 -0.389511 -0.866592
v -0.069338 -0.385156 -0.866592
v 0.062684 -0.372130 -0.866592
v 0.062684 -0.372130 -0.866592
v 0.056529 -0.355785 -0.247733
v 0.062684 -0.372130 -0.247733
v 0.012734 -0.452487 -0.247733
v 0.029079 -0.446332 -0.866592
v 0.029079 -0.446332 -0.247733
v 0.029079 -0.446332 -0.866592
v -0.021879 -0.451360 -0.866592
v -0.037789 -0.444155 -0.866592
v -0.021879 -0.451360 -0.866592
v -0.037789 -0.444155 -0.247733
v -0.037789 -0.444155 -0.866592
v -0.069338 -0.385156 -0.866592
v -0.067623 -0.402537 -0.247733
v -0.069338 -0.385156 -0.247733
v 0.062684 -0.372130 -0.866592
v -0.069338 -0.385156 -0.866592
v -0.066496 -0.367924 -0.866592
v 0.056529 -0.355785 -0.247733
v 0.062684 -0.372130 -0.866592
v 0.056529 -0.355785 -0.866592
v 0.056529 -0.355785 -0.866592
v 0.046353 -0.341590 -0.247733
v 0.056529 -0.355785 -0.247733
v 0.029079 -0.446332 -0.866592
v 0.012734 -0.452487 -0.247733
v 0.012734 -0.452487 -0.866592
v 0.012734 -0.452487 -0.866592
v -0.021879 -0.451360 -0.866592
v 0.029079 -0.446332 -0.866592
v -0.037789 -0.444155 -0.247733
v -0.021879 -0.451360 -0.866592
v -0.021879 -0.451360 -0.247733
v -0.069338 -0.385156 -0.247733
v -0.066496 -0.367924 -0.866592
v -0.069338 -0.385156 -0.866592
v 0.062684 -0.372130 -0.866592
v -0.066496 -0.367924 -0.866592
v 0.056529 -0.355785 -0.866592
v 0.046353 -0.341590 -0.247733
v 0.056529 -0.355785 -0.866592
v 0.046353 -0.341590 -0.866592
v 0.046353 -0.341590 -0.247733
v 0.032850 -0.330513 -0.866592
v 0.032850 -0.330513 -0.247733
v -0.004647 -0.454202 -0.247733
v 0.012734 -0.452487 -0.866592
v 0.012734 -0.452487 -0.247733
v -0.021879 -0.451360 -0.866592
v 0.012734 -0.452487 -0.866592
v -0.004647 -0.454202 -0.866592
v -0.004647 -0.454202 -0.866592
v -0.021879 -0.451360 -0.247733
v -0.021879 -0.451360 -0.866592
v -0.066496 -0.367924 -0.866592
v -0.069338 -0.385156 -0.247733
v -0.066496 -0.367924 -0.247733
v 0.056529 -0.355785 -0.866592
v -0.066496 -0.367924 -0.866592
v -0.059290 -0.352014 -0.866592
v 0.056529 -0.355785 -0.866592
v -0.059290 -0.352014 -0.866592
v 0.046353 -0.341590 -0.866592
v 0.032850 -0.330513 -0.866592
v 0.046353 -0.341590 -0.247733
v 0.046353 -0.341590 -0.866592
v 0.016941 -0.323308 -0.866592
v 0.032850 -0.330513 -0.247733
v 0.032850 -0.330513 -0.866592
v 0.032850 -0.330513 -0.247733
v 0.016941 -0.323308 -0.866592
v 0.016941 -0.323308 -0.247733
v 0.012734 -0.452487 -0.866592
v -0.004647 -0.454202 -0.247733
v -0.004647 -0.454202 -0.866592
v -0.021879 -0.451360 -0.247733
v -0.004647 -0.454202 -0.866592
v -0.004647 -0.454202 -0.247733
v -0.059290 -0.352014 -0.866592
v -0.066496 -0.367924 -0.247733
v -0.059290 -0.352014 -0.247733
v -0.066496 -0.367924 -0.247733
v -0.059290 -0.352014 -0.866592
v -0.066496 -0.367924 -0.866592
v 0.046353 -0.341590 -0.866592
v -0.059290 -0.352014 -0.866592
v -0.048213 -0.338511 -0.866592
v 0.046353 -0.341590 -0.866592
v -0.048213 -0.338511 -0.866592
v 0.032850 -0.330513 -0.866592
v 0.032850 -0.330513 -0.866592
v -0.034018 -0.328336 -0.866592
v 0.016941 -0.323308 -0.866592
v -0.000292 -0.320466 -0.866592
v 0.016941 -0.323308 -0.247733
v 0.016941 -0.323308 -0.866592
v 0.016941 -0.323308 -0.247733
v -0.000292 -0.320466 -0.866592
v -0.000292 -0.320466 -0.247733
v -0.048213 -0.338511 -0.866592
v -0.059290 -0.352014 -0.247733
v -0.048213 -0.338511 -0.247733
v -0.059290 -0.352014 -0.247733
v -0.048213 -0.338511 -0.866592
v -0.059290 -0.352014 -0.866592
v 0.032850 -0.330513 -0.866592
v -0.048213 -0.338511 -0.866592
v -0.034018 -0.328336 -0.866592
v 0.016941 -0.323308 -0.866592
v -0.034018 -0.328336 -0.866592
v -0.017673 -0.322180 -0.866592
v 0.016941 -0.323308 -0.866592
v -0.017673 -0.322180 -0.866592
v -0.000292 -0.320466 -0.866592
v -0.017673 -0.322180 -0.866592
v -0.000292 -0.320466 -0.247733
v -0.000292 -0.320466 -0.866592
v -0.000292 -0.320466 -0.247733
v -0.017673 -0.322180 -0.866592
v -0.017673 -0.322180 -0.247733
v -0.034018 -0.328336 -0.247733
v -0.048213 -0.338511 -0.866592
v -0.048213 -0.338511 -0.247733
v -0.048213 -0.338511 -0.866592
v -0.034018 -0.328336 -0.247733
v -0.034018 -0.328336 -0.866592
v -0.034018 -0.328336 -0.866592
v -0.017673 -0.322180 -0.247733
v -0.017673 -0.322180 -0.866592
v -0.017673 -0.322180 -0.247733
v -0.034018 -0.328336 -0.866592
v -0.034018 -0.328336 -0.247733
v 0.061557 -0.406744 -0.866592
v 0.054352 -0.422654 -0.866592
v 0.061557 -0.406744 -0.247733
v 0.054352 -0.422654 -0.247733
v 0.061557 -0.406744 -0.247733
v 0.054352 -0.422654 -0.866592
v 0.061557 -0.406744 -0.866592
v -0.061468 -0.418882 -0.866592
v 0.054352 -0.422654 -0.866592
v 0.061557 -0.406744 -0.247733
v 0.064399 -0.389511 -0.247733
v 0.061557 -0.406744 -0.866592
v 0.054352 -0.422654 -0.866592
v 0.043274 -0.436157 -0.866592
v 0.054352 -0.422654 -0.247733
v -0.061468 -0.418882 -0.866592
v -0.051292 -0.433077 -0.866592
v 0.054352 -0.422654 -0.866592
v -0.067623 -0.402537 -0.866592
v -0.061468 -0.418882 -0.866592
v 0.061557 -0.406744 -0.866592
v 0.064399 -0.389511 -0.866592
v 0.061557 -0.406744 -0.866592
v 0.064399 -0.389511 -0.247733
v 0.043274 -0.436157 -0.247733
v 0.054352 -0.422654 -0.247733
v 0.043274 -0.436157 -0.866592
v 0.054352 -0.422654 -0.866592
v -0.051292 -0.433077 -0.866592
v 0.043274 -0.436157 -0.866592
v -0.051292 -0.433077 -0.866592
v -0.061468 -0.418882 -0.866592
v -0.051292 -0.433077 -0.247733
v -0.061468 -0.418882 -0.866592
v -0.067623 -0.402537 -0.866592
v -0.061468 -0.418882 -0.247733
v 0.064399 -0.389511 -0.866592
v -0.067623 -0.402537 -0.866592
v 0.061557 -0.406744 -0.866592
v 0.064399 -0.389511 -0.247733
v 0.062684 -0.372130 -0.247733
v 0.064399 -0.389511 -0.866592
v 0.043274 -0.436157 -0.247733
v 0.043274 -0.436157 -0.866592
v 0.029079 -0.446332 -0.247733
v -0.051292 -0.433077 -0.866592
v -0.037789 -0.444155 -0.866592
v 0.043274 -0.436157 -0.866592
v -0.061468 -0.418882 -0.247733
v -0.051292 -0.433077 -0.247733
v -0.061468 -0.418882 -0.866592
v -0.051292 -0.433077 -0.866592
v -0.051292 -0.433077 -0.247733
v -0.037789 -0.444155 -0.866592
v -0.067623 -0.402537 -0.247733
v -0.061468 -0.418882 -0.247733
v -0.067623 -0.402537 -0.866592
v -0.069338 -0.385156 -0.866592
v -0.067623 -0.402537 -0.866592
v 0.064399 -0.389511 -0.866592
v 0.062684 -0.372130 -0.866592
v 0.064399 -0.389511 -0.866592
v 0.062684 -0.372130 -0.247733
v 0.029079 -0.446332 -0.866592
v 0.029079 -0.446332 -0.247733
v 0.043274 -0.436157 -0.866592
v 0.043274 -0.436157 -0.866592
v -0.037789 -0.444155 -0.866592
v 0.029079 -0.446332 -0.866592
v -0.037789 -0.444155 -0.247733
v -0.037789 -0.444155 -0.866592
v -0.051292 -0.433077 -0.247733
v -0.067623 -0.402537 -0.866592
v -0.069338 -0.385156 -0.866592
v -0.067623 -0.402537 -0.247733
v 0.062684 -0.372130 -0.866592
v -0.069338 -0.385156 -0.866592
v 0.064399 -0.389511 -0.866592
v 0.062684 -0.372130 -0.247733
v 0.056529 -0.355785 -0.247733
v 0.062684 -0.372130 -0.866592
v 0.029079 -0.446332 -0.247733
v 0.029079 -0.446332 -0.866592
v 0.012734 -0.452487 -0.247733
v -0.037789 -0.444155 -0.866592
v -0.021879 -0.451360 -0.866592
v 0.029079 -0.446332 -0.866592
v -0.037789 -0.444155 -0.866592
v -0.037789 -0.444155 -0.247733
v -0.021879 -0.451360 -0.866592
v -0.069338 -0.385156 -0.247733
v -0.067623 -0.402537 -0.247733
v -0.069338 -0.385156 -0.866592
v -0.066496 -0.367924 -0.866592
v -0.069338 -0.385156 -0.866592
v 0.062684 -0.372130 -0.866592
v 0.056529 -0.355785 -0.866592
v 0.062684 -0.372130 -0.866592
v 0.056529 -0.355785 -0.247733
v 0.056529 -0.355785 -0.247733
v 0.046353 -0.341590 -0.247733
v 0.056529 -0.355785 -0.866592
v 0.012734 -0.452487 -0.866592
v 0.012734 -0.452487 -0.247733
v 0.029079 -0.446332 -0.866592
v 0.029079 -0.446332 -0.866592
v -0.021879 -0.451360 -0.866592
v 0.012734 -0.452487 -0.866592
v -0.021879 -0.451360 -0.247733
v -0.021879 -0.451360 -0.866592
v -0.037789 -0.444155 -0.247733
v -0.069338 -0.385156 -0.866592
v -0.066496 -0.367924 -0.866592
v -0.069338 -0.385156 -0.247733
v 0.056529 -0.355785 -0.866592
v -0.066496 -0.367924 -0.866592
v 0.062684 -0.372130 -0.866592
v 0.046353 -0.341590 -0.866592
v 0.056529 -0.355785 -0.866592
v 0.046353 -0.341590 -0.247733
v 0.032850 -0.330513 -0.247733
v 0.032850 -0.330513 -0.866592
v 0.046353 -0.341590 -0.247733
v 0.012734 -0.452487 -0.247733
v 0.012734 -0.452487 -0.866592
v -0.004647 -0.454202 -0.247733
v -0.004647 -0.454202 -0.866592
v 0.012734 -0.452487 -0.866592
v -0.021879 -0.451360 -0.866592
v -0.021879 -0.451360 -0.866592
v -0.021879 -0.451360 -0.247733
v -0.004647 -0.454202 -0.866592
v -0.066496 -0.367924 -0.247733
v -0.069338 -0.385156 -0.247733
v -0.066496 -0.367924 -0.866592
v -0.059290 -0.352014 -0.866592
v -0.066496 -0.367924 -0.866592
v 0.056529 -0.355785 -0.866592
v 0.046353 -0.341590 -0.866592
v -0.059290 -0.352014 -0.866592
v 0.056529 -0.355785 -0.866592
v 0.046353 -0.341590 -0.866592
v 0.046353 -0.341590 -0.247733
v 0.032850 -0.330513 -0.866592
v 0.032850 -0.330513 -0.866592
v 0.032850 -0.330513 -0.247733
v 0.016941 -0.323308 -0.866592
v 0.016941 -0.323308 -0.247733
v 0.016941 -0.323308 -0.866592
v 0.032850 -0.330513 -0.247733
v -0.004647 -0.454202 -0.866592
v -0.004647 -0.454202 -0.247733
v 0.012734 -0.452487 -0.866592
v -0.004647 -0.454202 -0.247733
v -0.004647 -0.454202 -0.866592
v -0.021879 -0.451360 -0.247733
v -0.059290 -0.352014 -0.247733
v -0.066496 -0.367924 -0.247733
v -0.059290 -0.352014 -0.866592
v -0.066496 -0.367924 -0.866592
v -0.059290 -0.352014 -0.866592
v -0.066496 -0.367924 -0.247733
v -0.048213 -0.338511 -0.866592
v -0.059290 -0.352014 -0.866592
v 0.046353 -0.341590 -0.866592
v 0.032850 -0.330513 -0.866592
v -0.048213 -0.338511 -0.866592
v 0.046353 -0.341590 -0.866592
v 0.016941 -0.323308 -0.866592
v -0.034018 -0.328336 -0.866592
v 0.032850 -0.330513 -0.866592
v 0.016941 -0.323308 -0.866592
v 0.016941 -0.323308 -0.247733
v -0.000292 -0.320466 -0.866592
v -0.000292 -0.320466 -0.247733
v -0.000292 -0.320466 -0.866592
v 0.016941 -0.323308 -0.247733
v -0.048213 -0.338511 -0.247733
v -0.059290 -0.352014 -0.247733
v -0.048213 -0.338511 -0.866592
v -0.059290 -0.352014 -0.866592
v -0.048213 -0.338511 -0.866592
v -0.059290 -0.352014 -0.247733
v -0.034018 -0.328336 -0.866592
v -0.048213 -0.338511 -0.866592
v 0.032850 -0.330513 -0.866592
v -0.017673 -0.322180 -0.866592
v -0.034018 -0.328336 -0.866592
v 0.016941 -0.323308 -0.866592
v -0.000292 -0.320466 -0.866592
v -0.017673 -0.322180 -0.866592
v 0.016941 -0.323308 -0.866592
v -0.000292 -0.320466 -0.866592
v -0.000292 -0.320466 -0.247733
v -0.017673 -0.322180 -0.866592
v -0.017673 -0.322180 -0.247733
v -0.017673 -0.322180 -0.866592
v -0.000292 -0.320466 -0.247733
v -0.048213 -0.338511 -0.247733
v -0.048213 -0.338511 -0.866592
v -0.034018 -0.328336 -0.247733
v -0.034018 -0.328336 -0.866592
v -0.034018 -0.328336 -0.247733
v -0.048213 -0.338511 -0.866592
v -0.017673 -0.322180 -0.866592
v -0.017673 -0.322180 -0.247733
v -0.034018 -0.328336 -0.866592
v -0.034018 -0.328336 -0.247733
v -0.034018 -0.328336 -0.866592
v -0.017673 -0.322180 -0.247733
vn 0.9569908898624613 -0.29011797035043296 0
vn 0.8492940728299425 -0.5279200487345868 0
vn 0 0 -1
vn 0.9994702708789557 -0.0325450092817172 0
vn 0.6837191963913644 -0.7297452024411993 0
vn -0.7297452024411993 -0.6837191963913644 0
vn -0.8818392538208217 -0.4715501356385514 0
vn -0.9738373672370665 -0.22724608285464257 0
vn 0.9738373672370665 0.22724608285464257 0
vn 0.4715501356385514 -0.8818392538208217 0
vn -0.5279200487345868 -0.8492940728299425 0
vn -0.9994702708789557 0.0325450092817172 0
vn 0.8818392538208217 0.4715501356385514 0
vn 0.22724608285464257 -0.9738373672370665 0
vn -0.29011797035043296 -0.9569908898624613 0
vn 0.7297452024411993 0.6837191963913644 0
vn -0.9569908898624613 0.29011797035043296 0
vn 0.5279200487345868 0.8492940728299425 0
vn -0.0325450092817172 -0.9994702708789557 0
vn 0.29011797035043296 0.9569908898624613 0
vn -0.8492940728299425 0.5279200487345868 0
vn 0.0325450092817172 0.9994702708789557 0
vn -0.6837191963913644 0.7297452024411993 0
vn -0.22724608285464257 0.9738373672370665 0
vn -0.4715501356385514 0.8818392538208217 0
vn 0 0 1
usemtl material_0_0
f 1//1 2//2 3//1
f 4//2 5//1 6//2
f 7//3 8//3 9//3
f 10//1 11//4 12//1
f 13//2 14//5 15//2
f 16//3 17//3 18//3
f 19//3 20//3 21//3
f 22//4 23//1 24//4
f 25//5 26//2 27//5
f 28//3 29//3 30//3
f 31//6 32//7 33//6
f 34//7 35//8 36//7
f 37//3 38//3 39//3
f 40//4 41//9 42//4
f 43//10 44//5 45//5
f 46//3 47//3 48//3
f 49//7 50//6 51//7
f 52//11 53//6 54//6
f 55//8 56//7 57//8
f 58//3 59//3 60//3
f 61//9 62//4 63//9
f 64//5 65//10 66//10
f 67//3 68//3 69//3
f 70//6 71//11 72//11
f 73//8 74//12 75//8
f 76//3 77//3 78//3
f 79//9 80//13 81//9
f 82//14 83//10 84//10
f 85//3 86//3 87//3
f 88//15 89//11 90//11
f 91//12 92//8 93//12
f 94//3 95//3 96//3
f 97//13 98//9 99//13
f 100//13 101//16 102//13
f 103//10 104//14 105//14
f 106//3 107//3 108//3
f 109//11 110//15 111//15
f 112//12 113//17 114//12
f 115//3 116//3 117//3
f 118//16 119//13 120//16
f 121//16 122//18 123//18
f 124//19 125//14 126//14
f 127//3 128//3 129//3
f 130//19 131//15 132//15
f 133//17 134//12 135//17
f 136//3 137//3 138//3
f 139//3 140//3 141//3
f 142//18 143//16 144//16
f 145//20 146//18 147//18
f 148//18 149//20 150//20
f 151//14 152//19 153//19
f 154//15 155//19 156//19
f 157//21 158//17 159//21
f 160//17 161//21 162//17
f 163//3 164//3 165//3
f 166//3 167//3 168//3
f 169//3 170//3 171//3
f 172//22 173//20 174//20
f 175//20 176//22 177//22
f 178//23 179//21 180//23
f 181//21 182//23 183//21
f 184//3 185//3 186//3
f 187//3 188//3 189//3
f 190//3 191//3 192//3
f 193//24 194//22 195//22
f 196//22 197//24 198//24
f 199//25 200//23 201//23
f 202//23 203//25 204//25
f 205//25 206//24 207//24
f 208//24 209//25 210//25
usemtl material_1_0
f 211//17 212//21 213//17
f 214//21 215//17 216//21
f 217//26 218//26 219//26
f 220//17 221//12 222//17
f 223//21 224//23 225//21
f 226//26 227//26 228//26
f 229//26 230//26 231//26
f 232//12 233//17 234//12
f 235//23 236//21 237//23
f 238//26 239//26 240//26
f 241//16 242//13 243//16
f 244//13 245//9 246//13
f 247//26 248//26 249//26
f 250//12 251//8 252//12
f 253//23 254//23 255//25
f 256//26 257//26 258//26
f 259//13 260//16 261//13
f 262//16 263//16 264//18
f 265//9 266//13 267//9
f 268//26 269//26 270//26
f 271//8 272//12 273//8
f 274//25 275//25 276//23
f 277//26 278//26 279//26
f 280//18 281//18 282//16
f 283//9 284//4 285//9
f 286//26 287//26 288//26
f 289//8 290//7 291//8
f 292//25 293//25 294//24
f 295//26 296//26 297//26
f 298//18 299//18 300//20
f 301//4 302//9 303//4
f 304//26 305//26 306//26
f 307//7 308//8 309//7
f 310//7 311//6 312//7
f 313//24 314//24 315//25
f 316//26 317//26 318//26
f 319//20 320//20 321//18
f 322//4 323//1 324//4
f 325//26 326//26 327//26
f 328//6 329//7 330//6
f 331//11 332//11 333//6
f 334//24 335//24 336//22
f 337//26 338//26 339//26
f 340//20 341//20 342//22
f 343//1 344//4 345//1
f 346//26 347//26 348//26
f 349//26 350//26 351//26
f 352//6 353//6 354//11
f 355//11 356//11 357//15
f 358//15 359//15 360//11
f 361//22 362//22 363//24
f 364//22 365//22 366//20
f 367//2 368//1 369//2
f 370//1 371//2 372//1
f 373//26 374//26 375//26
f 376//26 377//26 378//26
f 379//26 380//26 381//26
f 382//15 383//15 384//19
f 385//19 386//19 387//15
f 388//5 389//2 390//5
f 391//2 392//5 393//2
f 394//26 395//26 396//26
f 397//26 398//26 399//26
f 400//26 401//26 402//26
f 403//19 404//19 405//14
f 406//14 407//14 408//19
f 409//5 410//5 411//10
f 412//10 413//10 414//5
f 415//14 416//14 417//10
f 418//10 419//10 420//14
