# SSTK version 0.8.0
# 13
mtllib original-13.mtl
o 3dw.228b41e91b3eac5e6eed87081bea555c/Model/Group1/mesh1/mesh1-geometry/material_3#mesh1-geometry
v 0.131338 0.323518 0.294188
v 0.131338 -0.261889 0.294188
v 0.117462 -0.231287 0.294188
v -0.136277 -0.261889 0.294188
v 0.117462 -0.231287 0.294188
v 0.131338 -0.261889 0.294188
v 0.131338 0.323518 0.294188
v -0.122401 0.020283 0.294188
v -0.136277 0.323518 0.294188
v 0.117462 0.020283 0.294188
v 0.131338 0.323518 0.294188
v 0.117462 -0.231287 0.294188
v 0.117462 -0.231287 0.294188
v -0.136277 -0.261889 0.294188
v -0.122401 -0.231287 0.294188
v -0.136277 0.323518 0.294188
v -0.122401 -0.231287 0.294188
v -0.136277 -0.261889 0.294188
v -0.122401 0.020283 0.294188
v -0.122401 -0.231287 0.294188
v -0.136277 0.323518 0.294188
v -0.122401 0.020283 0.294188
v 0.131338 0.323518 0.294188
v 0.117462 0.020283 0.294188
v 0.117462 -0.231287 0.294188
v 0.131338 -0.261889 0.294188
v 0.131338 0.323518 0.294188
v 0.131338 -0.261889 0.294188
v 0.117462 -0.231287 0.294188
v -0.136277 -0.261889 0.294188
v -0.136277 0.323518 0.294188
v -0.122401 0.020283 0.294188
v 0.131338 0.323518 0.294188
v 0.117462 -0.231287 0.294188
v 0.131338 0.323518 0.294188
v 0.117462 0.020283 0.294188
v -0.122401 -0.231287 0.294188
v -0.136277 -0.261889 0.294188
v 0.117462 -0.231287 0.294188
v -0.136277 -0.261889 0.294188
v -0.122401 -0.231287 0.294188
v -0.136277 0.323518 0.294188
v -0.136277 0.323518 0.294188
v -0.122401 -0.231287 0.294188
v -0.122401 0.020283 0.294188
v 0.117462 0.020283 0.294188
v 0.131338 0.323518 0.294188
v -0.122401 0.020283 0.294188
vn 0 0 -1
vn 0 0 1
usemtl material_0_0
f 1//1 2//1 3//1
f 4//1 5//1 6//1
f 7//1 8//1 9//1
f 10//1 11//1 12//1
f 13//1 14//1 15//1
f 16//1 17//1 18//1
f 19//1 20//1 21//1
f 22//1 23//1 24//1
usemtl material_1_0
f 25//2 26//2 27//2
f 28//2 29//2 30//2
f 31//2 32//2 33//2
f 34//2 35//2 36//2
f 37//2 38//2 39//2
f 40//2 41//2 42//2
f 43//2 44//2 45//2
f 46//2 47//2 48//2
