# SSTK version 0.8.0
# 14
mtllib original-14.mtl
o 3dw.228b41e91b3eac5e6eed87081bea555c/Model/Group1/mesh1/mesh1-geometry/material_4#mesh1-geometry
v 0.117462 0.020283 0.294188
v 0.117462 -0.231287 0.294188
v 0.117462 0.020283 0.672194
v -0.122401 -0.231287 0.294188
v -0.122401 -0.231287 0.672194
v 0.117462 -0.231287 0.294188
v -0.122401 -0.231287 0.294188
v -0.122401 0.020283 0.294188
v -0.122401 -0.231287 0.672194
v 0.117462 0.020283 0.294188
v 0.117462 0.020283 0.672194
v -0.122401 0.020283 0.294188
v 0.117462 -0.231287 0.672194
v 0.117462 0.020283 0.672194
v 0.117462 -0.231287 0.294188
v 0.117462 -0.231287 0.672194
v 0.117462 -0.231287 0.294188
v -0.122401 -0.231287 0.672194
v -0.122401 0.020283 0.672194
v -0.122401 -0.231287 0.672194
v -0.122401 0.020283 0.294188
v -0.122401 0.020283 0.672194
v -0.122401 0.020283 0.294188
v 0.117462 0.020283 0.672194
v 0.117462 0.000212 0.672194
v 0.117462 0.020283 0.672194
v 0.117462 -0.231287 0.672194
v 0.117462 -0.231287 0.672194
v -0.122401 -0.231287 0.672194
v -0.002469 -0.115537 0.739097
v -0.122401 0.000212 0.672194
v -0.122401 -0.231287 0.672194
v -0.122401 0.020283 0.672194
v 0.117462 0.020283 0.672194
v -0.002469 -0.115537 0.739097
v -0.122401 0.020283 0.672194
v 0.117462 0.020283 0.672194
v 0.117462 0.000212 0.672194
v -0.002469 -0.115537 0.739097
v 0.117462 -0.231287 0.672194
v -0.002469 -0.115537 0.739097
v 0.117462 0.000212 0.672194
v -0.122401 -0.231287 0.672194
v -0.122401 0.000212 0.672194
v -0.002469 -0.115537 0.739097
v -0.122401 0.020283 0.672194
v -0.002469 -0.115537 0.739097
v -0.122401 0.000212 0.672194
v 0.117462 0.020283 0.672194
v 0.117462 -0.231287 0.294188
v 0.117462 0.020283 0.294188
v 0.117462 -0.231287 0.294188
v -0.122401 -0.231287 0.672194
v -0.122401 -0.231287 0.294188
v -0.122401 -0.231287 0.672194
v -0.122401 0.020283 0.294188
v -0.122401 -0.231287 0.294188
v -0.122401 0.020283 0.294188
v 0.117462 0.020283 0.672194
v 0.117462 0.020283 0.294188
v 0.117462 -0.231287 0.294188
v 0.117462 0.020283 0.672194
v 0.117462 -0.231287 0.672194
v -0.122401 -0.231287 0.672194
v 0.117462 -0.231287 0.294188
v 0.117462 -0.231287 0.672194
v -0.122401 0.020283 0.294188
v -0.122401 -0.231287 0.672194
v -0.122401 0.020283 0.672194
v 0.117462 0.020283 0.672194
v -0.122401 0.020283 0.294188
v -0.122401 0.020283 0.672194
v 0.117462 -0.231287 0.672194
v 0.117462 0.020283 0.672194
v 0.117462 0.000212 0.672194
v -0.002469 -0.115537 0.739097
v -0.122401 -0.231287 0.672194
v 0.117462 -0.231287 0.672194
v -0.122401 0.020283 0.672194
v -0.122401 -0.231287 0.672194
v -0.122401 0.000212 0.672194
v -0.122401 0.020283 0.672194
v -0.002469 -0.115537 0.739097
v 0.117462 0.020283 0.672194
v -0.002469 -0.115537 0.739097
v 0.117462 0.000212 0.672194
v 0.117462 0.020283 0.672194
v 0.117462 0.000212 0.672194
v -0.002469 -0.115537 0.739097
v 0.117462 -0.231287 0.672194
v -0.002469 -0.115537 0.739097
v -0.122401 0.000212 0.672194
v -0.122401 -0.231287 0.672194
v -0.122401 0.000212 0.672194
v -0.002469 -0.115537 0.739097
v -0.122401 0.020283 0.672194
vn -1 0 0
vn 0 1 0
vn 1 0 0
vn 0 -1 0
vn 0 0.5004242254672301 -0.8657803385186816
vn 0 -0.4418868809873639 -0.8970707800453982
vn -0.48717396213108277 0 -0.8733049470955163
vn 0.48717396213108277 0 -0.8733049470955163
vn 0 -0.5004242254672301 0.8657803385186816
vn 0 0.4418868809873639 0.8970707800453982
vn 0.48717396213108277 0 0.8733049470955163
vn -0.48717396213108277 0 0.8733049470955163
usemtl material_0_0
f 1//1 2//1 3//1
f 4//2 5//2 6//2
f 7//3 8//3 9//3
f 10//4 11//4 12//4
f 13//1 14//1 15//1
f 16//2 17//2 18//2
f 19//3 20//3 21//3
f 22//4 23//4 24//4
f 25//1 26//1 27//1
f 28//5 29//5 30//5
f 31//3 32//3 33//3
f 34//6 35//6 36//6
f 37//7 38//7 39//7
f 40//7 41//7 42//7
f 43//8 44//8 45//8
f 46//8 47//8 48//8
usemtl material_1_0
f 49//3 50//3 51//3
f 52//4 53//4 54//4
f 55//1 56//1 57//1
f 58//2 59//2 60//2
f 61//3 62//3 63//3
f 64//4 65//4 66//4
f 67//1 68//1 69//1
f 70//2 71//2 72//2
f 73//3 74//3 75//3
f 76//9 77//9 78//9
f 79//1 80//1 81//1
f 82//10 83//10 84//10
f 85//11 86//11 87//11
f 88//11 89//11 90//11
f 91//12 92//12 93//12
f 94//12 95//12 96//12
