# SSTK version 0.8.0
# 15
mtllib original-15.mtl
o #ID107
v -0.242448 0.293152 -0.182816
v -0.254656 0.293152 -0.183244
v -0.256973 0.293152 -0.183064
v -0.240562 0.293152 -0.186764
v -0.252464 0.293152 -0.184019
v -0.250548 0.293152 -0.185334
v -0.249037 0.293152 -0.187101
v -0.239761 0.293152 -0.191067
v -0.248035 0.293152 -0.189198
v -0.247610 0.293152 -0.191483
v -0.240102 0.293152 -0.195429
v -0.247790 0.293152 -0.193801
v -0.248565 0.293152 -0.195992
v -0.241560 0.293152 -0.199556
v -0.249880 0.293152 -0.197909
v -0.251647 0.293152 -0.199420
v -0.253744 0.293152 -0.200422
v -0.244036 0.293152 -0.203164
v -0.256029 0.293152 -0.200847
v -0.270554 0.293152 -0.201095
v -0.267710 0.293152 -0.204421
v -0.247362 0.293152 -0.206008
v -0.264102 0.293152 -0.206897
v -0.251310 0.293152 -0.207895
v -0.259976 0.293152 -0.208355
v -0.255613 0.293152 -0.208695
v -0.253027 0.293152 -0.175555
v -0.261692 0.293152 -0.176015
v -0.257390 0.293152 -0.175215
v -0.248901 0.293152 -0.177014
v -0.265641 0.293152 -0.177902
v -0.245293 0.293152 -0.179490
v -0.268967 0.293152 -0.180746
v -0.271443 0.293152 -0.184355
v -0.259259 0.293152 -0.183489
v -0.261356 0.293152 -0.184491
v -0.272901 0.293152 -0.188481
v -0.263122 0.293152 -0.186002
v -0.264438 0.293152 -0.187918
v -0.265212 0.293152 -0.190110
v -0.273241 0.293152 -0.192844
v -0.265393 0.293152 -0.192427
v -0.264968 0.293152 -0.194712
v -0.272441 0.293152 -0.197146
v -0.263966 0.293152 -0.196810
v -0.262455 0.293152 -0.198576
v -0.260538 0.293152 -0.199892
v -0.258347 0.293152 -0.200666
v -0.256029 0.293152 -0.200847
v -0.258347 0.293152 -0.200666
v -0.270554 0.293152 -0.201095
v -0.260538 0.293152 -0.199892
v -0.262455 0.293152 -0.198576
v -0.272441 0.293152 -0.197146
v -0.263966 0.293152 -0.196810
v -0.264968 0.293152 -0.194712
v -0.273241 0.293152 -0.192844
v -0.265393 0.293152 -0.192427
v -0.265212 0.293152 -0.190110
v -0.272901 0.293152 -0.188481
v -0.264438 0.293152 -0.187918
v -0.263122 0.293152 -0.186002
v -0.261356 0.293152 -0.184491
v -0.271443 0.293152 -0.184355
v -0.259259 0.293152 -0.183489
v -0.256973 0.293152 -0.183064
v -0.268967 0.293152 -0.180746
v -0.242448 0.293152 -0.182816
v -0.245293 0.293152 -0.179490
v -0.265641 0.293152 -0.177902
v -0.248901 0.293152 -0.177014
v -0.261692 0.293152 -0.176015
v -0.253027 0.293152 -0.175555
v -0.257390 0.293152 -0.175215
v -0.255613 0.293152 -0.208695
v -0.251310 0.293152 -0.207895
v -0.259976 0.293152 -0.208355
v -0.264102 0.293152 -0.206897
v -0.247362 0.293152 -0.206008
v -0.267710 0.293152 -0.204421
v -0.244036 0.293152 -0.203164
v -0.253744 0.293152 -0.200422
v -0.241560 0.293152 -0.199556
v -0.251647 0.293152 -0.199420
v -0.249880 0.293152 -0.197909
v -0.248565 0.293152 -0.195992
v -0.240102 0.293152 -0.195429
v -0.247790 0.293152 -0.193801
v -0.247610 0.293152 -0.191483
v -0.239761 0.293152 -0.191067
v -0.248035 0.293152 -0.189198
v -0.249037 0.293152 -0.187101
v -0.240562 0.293152 -0.186764
v -0.250548 0.293152 -0.185334
v -0.252464 0.293152 -0.184019
v -0.254656 0.293152 -0.183244
vt 0.1228604 0.09805938
vt 0.1250246 0.159678
vt 0.1241119 0.1713752
vt 0.1427912 0.08853642
vt 0.1289336 0.1486155
vt 0.1355727 0.1389418
vt 0.1444892 0.131316
vt 0.1645077 0.08449643
vt 0.1550757 0.1262578
vt 0.1666105 0.1241119
vt 0.1865298 0.08621473
vt 0.1783078 0.1250246
vt 0.1893702 0.1289336
vt 0.2073568 0.09357423
vt 0.1990439 0.1355727
vt 0.2066698 0.1444892
vt 0.211728 0.1550757
vt 0.2255694 0.1060734
vt 0.2138738 0.1666105
vt 0.2151253 0.2399263
vt 0.2319123 0.2255694
vt 0.2399263 0.1228604
vt 0.2444115 0.2073568
vt 0.2494493 0.1427912
vt 0.251771 0.1865298
vt 0.2534893 0.1645077
vt 0.08621473 0.1514559
vt 0.08853642 0.1951945
vt 0.08449643 0.173478
vt 0.09357423 0.1306289
vt 0.09805938 0.2151253
vt 0.1060734 0.1124163
vt 0.1124163 0.2319123
vt 0.1306289 0.2444115
vt 0.1262578 0.1829101
vt 0.131316 0.1934965
vt 0.1514559 0.251771
vt 0.1389418 0.2024131
vt 0.1486155 0.2090521
vt 0.159678 0.2129611
vt 0.173478 0.2534893
vt 0.1713752 0.2138738
vt 0.1829101 0.211728
vt 0.1951945 0.2494493
vt 0.1934965 0.2066698
vt 0.2024131 0.1990439
vt 0.2090521 0.1893702
vt 0.2129611 0.1783078
vn 0 1 0
vn 0 -1 0
usemtl material_0_0
f 1/1/1 2/2/1 3/3/1
f 2/2/1 1/1/1 4/4/1
f 2/2/1 4/4/1 5/5/1
f 5/5/1 4/4/1 6/6/1
f 6/6/1 4/4/1 7/7/1
f 7/7/1 4/4/1 8/8/1
f 7/7/1 8/8/1 9/9/1
f 9/9/1 8/8/1 10/10/1
f 10/10/1 8/8/1 11/11/1
f 10/10/1 11/11/1 12/12/1
f 12/12/1 11/11/1 13/13/1
f 13/13/1 11/11/1 14/14/1
f 13/13/1 14/14/1 15/15/1
f 15/15/1 14/14/1 16/16/1
f 16/16/1 14/14/1 17/17/1
f 17/17/1 14/14/1 18/18/1
f 17/17/1 18/18/1 19/19/1
f 19/19/1 18/18/1 20/20/1
f 20/20/1 18/18/1 21/21/1
f 21/21/1 18/18/1 22/22/1
f 21/21/1 22/22/1 23/23/1
f 23/23/1 22/22/1 24/24/1
f 23/23/1 24/24/1 25/25/1
f 25/25/1 24/24/1 26/26/1
f 27/27/1 28/28/1 29/29/1
f 28/28/1 27/27/1 30/30/1
f 28/28/1 30/30/1 31/31/1
f 31/31/1 30/30/1 32/32/1
f 31/31/1 32/32/1 33/33/1
f 33/33/1 32/32/1 1/1/1
f 33/33/1 1/1/1 3/3/1
f 33/33/1 3/3/1 34/34/1
f 34/34/1 3/3/1 35/35/1
f 34/34/1 35/35/1 36/36/1
f 34/34/1 36/36/1 37/37/1
f 37/37/1 36/36/1 38/38/1
f 37/37/1 38/38/1 39/39/1
f 37/37/1 39/39/1 40/40/1
f 37/37/1 40/40/1 41/41/1
f 41/41/1 40/40/1 42/42/1
f 41/41/1 42/42/1 43/43/1
f 41/41/1 43/43/1 44/44/1
f 44/44/1 43/43/1 45/45/1
f 44/44/1 45/45/1 46/46/1
f 44/44/1 46/46/1 20/20/1
f 20/20/1 46/46/1 47/47/1
f 20/20/1 47/47/1 48/48/1
f 20/20/1 48/48/1 19/19/1
f 49/19/2 50/48/2 51/20/2
f 50/48/2 52/47/2 51/20/2
f 52/47/2 53/46/2 51/20/2
f 51/20/2 53/46/2 54/44/2
f 53/46/2 55/45/2 54/44/2
f 55/45/2 56/43/2 54/44/2
f 54/44/2 56/43/2 57/41/2
f 56/43/2 58/42/2 57/41/2
f 58/42/2 59/40/2 57/41/2
f 57/41/2 59/40/2 60/37/2
f 59/40/2 61/39/2 60/37/2
f 61/39/2 62/38/2 60/37/2
f 62/38/2 63/36/2 60/37/2
f 60/37/2 63/36/2 64/34/2
f 63/36/2 65/35/2 64/34/2
f 65/35/2 66/3/2 64/34/2
f 64/34/2 66/3/2 67/33/2
f 66/3/2 68/1/2 67/33/2
f 68/1/2 69/32/2 67/33/2
f 67/33/2 69/32/2 70/31/2
f 69/32/2 71/30/2 70/31/2
f 70/31/2 71/30/2 72/28/2
f 71/30/2 73/27/2 72/28/2
f 74/29/2 72/28/2 73/27/2
f 75/26/2 76/24/2 77/25/2
f 77/25/2 76/24/2 78/23/2
f 76/24/2 79/22/2 78/23/2
f 78/23/2 79/22/2 80/21/2
f 79/22/2 81/18/2 80/21/2
f 80/21/2 81/18/2 51/20/2
f 51/20/2 81/18/2 49/19/2
f 49/19/2 81/18/2 82/17/2
f 81/18/2 83/14/2 82/17/2
f 82/17/2 83/14/2 84/16/2
f 84/16/2 83/14/2 85/15/2
f 85/15/2 83/14/2 86/13/2
f 83/14/2 87/11/2 86/13/2
f 86/13/2 87/11/2 88/12/2
f 88/12/2 87/11/2 89/10/2
f 87/11/2 90/8/2 89/10/2
f 89/10/2 90/8/2 91/9/2
f 91/9/2 90/8/2 92/7/2
f 90/8/2 93/4/2 92/7/2
f 92/7/2 93/4/2 94/6/2
f 94/6/2 93/4/2 95/5/2
f 95/5/2 93/4/2 96/2/2
f 93/4/2 68/1/2 96/2/2
f 66/3/2 96/2/2 68/1/2
