# SSTK version 0.8.0
# 16
mtllib original-16.mtl
o #ID115
v -0.266883 0.280960 -0.160076
v -0.249553 0.280960 -0.159156
v -0.258278 0.280960 -0.158475
v -0.241300 0.280960 -0.162072
v -0.274780 0.280960 -0.163849
v -0.234084 0.280960 -0.167024
v -0.281432 0.280960 -0.169538
v -0.228395 0.280960 -0.173676
v -0.286385 0.280960 -0.176754
v -0.224622 0.280960 -0.181573
v -0.256973 0.280960 -0.183064
v -0.289301 0.280960 -0.185006
v -0.259259 0.280960 -0.183489
v -0.261356 0.280960 -0.184491
v -0.263122 0.280960 -0.186002
v -0.289981 0.280960 -0.193732
v -0.264438 0.280960 -0.187918
v -0.265212 0.280960 -0.190110
v -0.265393 0.280960 -0.192427
v -0.264968 0.280960 -0.194712
v -0.288381 0.280960 -0.202337
v -0.263966 0.280960 -0.196810
v -0.262455 0.280960 -0.198576
v -0.260538 0.280960 -0.199892
v -0.258347 0.280960 -0.200666
v -0.256029 0.280960 -0.200847
v -0.254656 0.280960 -0.183244
v -0.223021 0.280960 -0.190178
v -0.252464 0.280960 -0.184019
v -0.250548 0.280960 -0.185334
v -0.249037 0.280960 -0.187101
v -0.248035 0.280960 -0.189198
v -0.247610 0.280960 -0.191483
v -0.223702 0.280960 -0.198904
v -0.247790 0.280960 -0.193801
v -0.248565 0.280960 -0.195992
v -0.249880 0.280960 -0.197909
v -0.251647 0.280960 -0.199420
v -0.226618 0.280960 -0.207156
v -0.253744 0.280960 -0.200422
v -0.284607 0.280960 -0.210234
v -0.231571 0.280960 -0.214373
v -0.278919 0.280960 -0.216886
v -0.238222 0.280960 -0.220061
v -0.271702 0.280960 -0.221838
v -0.246119 0.280960 -0.223835
v -0.263450 0.280960 -0.224754
v -0.254724 0.280960 -0.225435
v -0.254724 0.280960 -0.225435
v -0.263450 0.280960 -0.224754
v -0.246119 0.280960 -0.223835
v -0.271702 0.280960 -0.221838
v -0.238222 0.280960 -0.220061
v -0.278919 0.280960 -0.216886
v -0.231571 0.280960 -0.214373
v -0.284607 0.280960 -0.210234
v -0.226618 0.280960 -0.207156
v -0.288381 0.280960 -0.202337
v -0.256029 0.280960 -0.200847
v -0.253744 0.280960 -0.200422
v -0.251647 0.280960 -0.199420
v -0.223702 0.280960 -0.198904
v -0.249880 0.280960 -0.197909
v -0.248565 0.280960 -0.195992
v -0.247790 0.280960 -0.193801
v -0.247610 0.280960 -0.191483
v -0.223021 0.280960 -0.190178
v -0.248035 0.280960 -0.189198
v -0.249037 0.280960 -0.187101
v -0.250548 0.280960 -0.185334
v -0.252464 0.280960 -0.184019
v -0.254656 0.280960 -0.183244
v -0.256973 0.280960 -0.183064
v -0.224622 0.280960 -0.181573
v -0.258347 0.280960 -0.200666
v -0.260538 0.280960 -0.199892
v -0.262455 0.280960 -0.198576
v -0.263966 0.280960 -0.196810
v -0.264968 0.280960 -0.194712
v -0.289981 0.280960 -0.193732
v -0.265393 0.280960 -0.192427
v -0.265212 0.280960 -0.190110
v -0.264438 0.280960 -0.187918
v -0.263122 0.280960 -0.186002
v -0.289301 0.280960 -0.185006
v -0.261356 0.280960 -0.184491
v -0.259259 0.280960 -0.183489
v -0.286385 0.280960 -0.176754
v -0.228395 0.280960 -0.173676
v -0.281432 0.280960 -0.169538
v -0.234084 0.280960 -0.167024
v -0.274780 0.280960 -0.163849
v -0.241300 0.280960 -0.162072
v -0.266883 0.280960 -0.160076
v -0.249553 0.280960 -0.159156
v -0.258278 0.280960 -0.158475
vt -0.00807998 0.2213961
vt -0.003436604 0.1339189
vt 0 0.1779632
vt -0.01815559 0.09226495
vt -0.02712591 0.2612578
vt -0.04315389 0.05583983
vt -0.05583983 0.2948318
vt -0.07672791 0.02712591
vt -0.09226495 0.3198301
vt -0.1165896 0.00807998
vt -0.1241119 0.1713752
vt -0.1339189 0.3345491
vt -0.1262578 0.1829101
vt -0.131316 0.1934965
vt -0.1389418 0.2024131
vt -0.1779632 0.3379857
vt -0.1486155 0.2090521
vt -0.159678 0.2129611
vt -0.1713752 0.2138738
vt -0.1829101 0.211728
vt -0.2213961 0.3299057
vt -0.1934965 0.2066698
vt -0.2024131 0.1990439
vt -0.2090521 0.1893702
vt -0.2129611 0.1783078
vt -0.2138738 0.1666105
vt -0.1250246 0.159678
vt -0.1600225 0
vt -0.1289336 0.1486155
vt -0.1355727 0.1389418
vt -0.1444892 0.131316
vt -0.1550757 0.1262578
vt -0.1666105 0.1241119
vt -0.2040668 0.003436604
vt -0.1783078 0.1250246
vt -0.1893702 0.1289336
vt -0.1990439 0.1355727
vt -0.2066698 0.1444892
vt -0.2457208 0.01815559
vt -0.211728 0.1550757
vt -0.2612578 0.3108598
vt -0.2821459 0.04315389
vt -0.2948318 0.2821459
vt -0.3108598 0.07672791
vt -0.3198301 0.2457208
vt -0.3299057 0.1165896
vt -0.3345491 0.2040668
vt -0.3379857 0.1600225
vn 0 -1 0
vn 0 1 0
usemtl material_0_0
f 1/1/1 2/2/1 3/3/1
f 2/2/1 1/1/1 4/4/1
f 4/4/1 1/1/1 5/5/1
f 4/4/1 5/5/1 6/6/1
f 6/6/1 5/5/1 7/7/1
f 6/6/1 7/7/1 8/8/1
f 8/8/1 7/7/1 9/9/1
f 8/8/1 9/9/1 10/10/1
f 10/10/1 9/9/1 11/11/1
f 11/11/1 9/9/1 12/12/1
f 11/11/1 12/12/1 13/13/1
f 13/13/1 12/12/1 14/14/1
f 14/14/1 12/12/1 15/15/1
f 15/15/1 12/12/1 16/16/1
f 15/15/1 16/16/1 17/17/1
f 17/17/1 16/16/1 18/18/1
f 18/18/1 16/16/1 19/19/1
f 19/19/1 16/16/1 20/20/1
f 20/20/1 16/16/1 21/21/1
f 20/20/1 21/21/1 22/22/1
f 22/22/1 21/21/1 23/23/1
f 23/23/1 21/21/1 24/24/1
f 24/24/1 21/21/1 25/25/1
f 25/25/1 21/21/1 26/26/1
f 10/10/1 27/27/1 28/28/1
f 27/27/1 10/10/1 11/11/1
f 28/28/1 27/27/1 29/29/1
f 28/28/1 29/29/1 30/30/1
f 28/28/1 30/30/1 31/31/1
f 28/28/1 31/31/1 32/32/1
f 28/28/1 32/32/1 33/33/1
f 28/28/1 33/33/1 34/34/1
f 34/34/1 33/33/1 35/35/1
f 34/34/1 35/35/1 36/36/1
f 34/34/1 36/36/1 37/37/1
f 34/34/1 37/37/1 38/38/1
f 34/34/1 38/38/1 39/39/1
f 39/39/1 38/38/1 40/40/1
f 39/39/1 40/40/1 26/26/1
f 39/39/1 26/26/1 21/21/1
f 39/39/1 21/21/1 41/41/1
f 39/39/1 41/41/1 42/42/1
f 42/42/1 41/41/1 43/43/1
f 42/42/1 43/43/1 44/44/1
f 44/44/1 43/43/1 45/45/1
f 44/44/1 45/45/1 46/46/1
f 46/46/1 45/45/1 47/47/1
f 46/46/1 47/47/1 48/48/1
f 49/48/2 50/47/2 51/46/2
f 50/47/2 52/45/2 51/46/2
f 51/46/2 52/45/2 53/44/2
f 52/45/2 54/43/2 53/44/2
f 53/44/2 54/43/2 55/42/2
f 54/43/2 56/41/2 55/42/2
f 55/42/2 56/41/2 57/39/2
f 56/41/2 58/21/2 57/39/2
f 58/21/2 59/26/2 57/39/2
f 59/26/2 60/40/2 57/39/2
f 60/40/2 61/38/2 57/39/2
f 57/39/2 61/38/2 62/34/2
f 61/38/2 63/37/2 62/34/2
f 63/37/2 64/36/2 62/34/2
f 64/36/2 65/35/2 62/34/2
f 65/35/2 66/33/2 62/34/2
f 62/34/2 66/33/2 67/28/2
f 66/33/2 68/32/2 67/28/2
f 68/32/2 69/31/2 67/28/2
f 69/31/2 70/30/2 67/28/2
f 70/30/2 71/29/2 67/28/2
f 71/29/2 72/27/2 67/28/2
f 73/11/2 74/10/2 72/27/2
f 67/28/2 72/27/2 74/10/2
f 59/26/2 58/21/2 75/25/2
f 75/25/2 58/21/2 76/24/2
f 76/24/2 58/21/2 77/23/2
f 77/23/2 58/21/2 78/22/2
f 78/22/2 58/21/2 79/20/2
f 58/21/2 80/16/2 79/20/2
f 79/20/2 80/16/2 81/19/2
f 81/19/2 80/16/2 82/18/2
f 82/18/2 80/16/2 83/17/2
f 83/17/2 80/16/2 84/15/2
f 80/16/2 85/12/2 84/15/2
f 84/15/2 85/12/2 86/14/2
f 86/14/2 85/12/2 87/13/2
f 87/13/2 85/12/2 73/11/2
f 85/12/2 88/9/2 73/11/2
f 73/11/2 88/9/2 74/10/2
f 74/10/2 88/9/2 89/8/2
f 88/9/2 90/7/2 89/8/2
f 89/8/2 90/7/2 91/6/2
f 90/7/2 92/5/2 91/6/2
f 91/6/2 92/5/2 93/4/2
f 92/5/2 94/1/2 93/4/2
f 93/4/2 94/1/2 95/2/2
f 96/3/2 95/2/2 94/1/2
