# SSTK version 0.8.0
# 23
mtllib original-23.mtl
o #ID161
v -0.482570 0.233717 -0.283816
v -0.546432 -0.278337 -0.149267
v -0.482570 -0.278337 -0.283816
v -0.546432 0.233717 -0.149267
v -0.546432 0.233717 -0.149267
v -0.482570 0.233717 -0.283816
v -0.546432 -0.278337 -0.149267
v -0.482570 -0.278337 -0.283816
v -0.573294 -0.278337 -0.002773
v -0.573294 0.233717 -0.002773
v -0.573294 0.233717 -0.002773
v -0.573294 -0.278337 -0.002773
v 0.116186 -0.278337 0.583825
v -0.178763 -0.278337 0.568932
v -0.032269 -0.278337 0.595794
v 0.256484 -0.278337 0.533841
v -0.313312 -0.278337 0.505070
v 0.379065 -0.278337 0.449249
v -0.426748 -0.278337 0.408560
v 0.475575 -0.278337 0.335813
v -0.511341 -0.278337 0.285980
v 0.539436 -0.278337 0.201263
v -0.561325 -0.278337 0.145682
v 0.566298 -0.278337 0.054769
v -0.573294 -0.278337 -0.002773
v 0.554329 -0.278337 -0.093685
v -0.546432 -0.278337 -0.149267
v 0.504346 -0.278337 -0.233983
v -0.482570 -0.278337 -0.283816
v 0.419753 -0.278337 -0.356564
v -0.386060 -0.278337 -0.397253
v 0.306317 -0.278337 -0.453074
v -0.263479 -0.278337 -0.481845
v 0.171767 -0.278337 -0.516936
v -0.123181 -0.278337 -0.531829
v 0.025274 -0.278337 -0.543798
v 0.025274 -0.278337 -0.543798
v 0.171767 -0.278337 -0.516936
v -0.123181 -0.278337 -0.531829
v -0.263479 -0.278337 -0.481845
v 0.306317 -0.278337 -0.453074
v -0.386060 -0.278337 -0.397253
v 0.419753 -0.278337 -0.356564
v -0.482570 -0.278337 -0.283816
v 0.504346 -0.278337 -0.233983
v -0.546432 -0.278337 -0.149267
v 0.554329 -0.278337 -0.093685
v -0.573294 -0.278337 -0.002773
v 0.566298 -0.278337 0.054769
v -0.561325 -0.278337 0.145682
v 0.539436 -0.278337 0.201263
v -0.511341 -0.278337 0.285980
v 0.475575 -0.278337 0.335813
v -0.426748 -0.278337 0.408560
v 0.379065 -0.278337 0.449249
v -0.313312 -0.278337 0.505070
v 0.256484 -0.278337 0.533841
v -0.178763 -0.278337 0.568932
v 0.116186 -0.278337 0.583825
v -0.032269 -0.278337 0.595794
v -0.386060 0.233717 -0.397253
v -0.386060 -0.278337 -0.397253
v -0.386060 0.233717 -0.397253
v -0.386060 -0.278337 -0.397253
v -0.561325 -0.278337 0.145682
v -0.561325 0.233717 0.145682
v -0.561325 0.233717 0.145682
v -0.561325 -0.278337 0.145682
v 0.539436 0.233717 0.201263
v 0.566298 -0.278337 0.054769
v 0.539436 -0.278337 0.201263
v 0.566298 0.233717 0.054769
v 0.566298 0.233717 0.054769
v 0.539436 0.233717 0.201263
v 0.566298 -0.278337 0.054769
v 0.539436 -0.278337 0.201263
v 0.554329 -0.278337 -0.093685
v 0.554329 0.233717 -0.093685
v 0.554329 0.233717 -0.093685
v 0.554329 -0.278337 -0.093685
v 0.504346 -0.278337 -0.233983
v 0.504346 0.233717 -0.233983
v 0.504346 0.233717 -0.233983
v 0.504346 -0.278337 -0.233983
v 0.419753 -0.278337 -0.356564
v 0.419753 0.233717 -0.356564
v 0.419753 0.233717 -0.356564
v 0.419753 -0.278337 -0.356564
v 0.306317 0.233717 -0.453074
v 0.306317 -0.278337 -0.453074
v 0.306317 -0.278337 -0.453074
v 0.306317 0.233717 -0.453074
v 0.171767 0.233717 -0.516936
v 0.171767 -0.278337 -0.516936
v 0.171767 -0.278337 -0.516936
v 0.171767 0.233717 -0.516936
v 0.025274 0.233717 -0.543798
v 0.025274 -0.278337 -0.543798
v 0.025274 -0.278337 -0.543798
v 0.025274 0.233717 -0.543798
v -0.123181 0.233717 -0.531829
v -0.123181 -0.278337 -0.531829
v -0.123181 -0.278337 -0.531829
v -0.123181 0.233717 -0.531829
v -0.263479 0.233717 -0.481845
v -0.263479 -0.278337 -0.481845
v -0.263479 -0.278337 -0.481845
v -0.263479 0.233717 -0.481845
v -0.511341 -0.278337 0.285980
v -0.511341 0.233717 0.285980
v -0.511341 0.233717 0.285980
v -0.511341 -0.278337 0.285980
v -0.426748 -0.278337 0.408560
v -0.426748 0.233717 0.408560
v -0.426748 0.233717 0.408560
v -0.426748 -0.278337 0.408560
v -0.313312 0.233717 0.505070
v -0.313312 -0.278337 0.505070
v -0.313312 0.233717 0.505070
v -0.313312 -0.278337 0.505070
v -0.178763 0.233717 0.568932
v -0.178763 -0.278337 0.568932
v -0.178763 0.233717 0.568932
v -0.178763 -0.278337 0.568932
v -0.032269 0.233717 0.595794
v -0.032269 -0.278337 0.595794
v -0.032269 0.233717 0.595794
v -0.032269 -0.278337 0.595794
v 0.116186 0.233717 0.583825
v 0.116186 -0.278337 0.583825
v 0.116186 0.233717 0.583825
v 0.116186 -0.278337 0.583825
v 0.256484 0.233717 0.533841
v 0.256484 -0.278337 0.533841
v 0.256484 0.233717 0.533841
v 0.256484 -0.278337 0.533841
v 0.379065 0.233717 0.449249
v 0.379065 -0.278337 0.449249
v 0.379065 0.233717 0.449249
v 0.379065 -0.278337 0.449249
v 0.475575 -0.278337 0.335813
v 0.475575 0.233717 0.335813
v 0.475575 0.233717 0.335813
v 0.475575 -0.278337 0.335813
vt 1.833166 2.653846
vt 1.081404 0.06923077
vt 1.833166 0.06923077
vt 1.081404 2.653846
vt 2.842187 2.653846
vt 2.090425 0.06923077
vt 2.842187 0.06923077
vt 2.090425 2.653846
vt 0.2547773 2.466329
vt 0.3299505 3.955094
vt 0.1943641 3.21566
vt 0.507073 1.758167
vt 0.6522965 4.63424
vt 0.9340577 1.139435
vt 1.139435 5.206815
vt 1.506633 0.6522965
vt 1.758167 5.6338
vt 2.185779 0.3299505
vt 2.466329 5.886095
vt 2.925213 0.1943641
vt 3.21566 5.946509
vt 3.674544 0.2547773
vt 3.955094 5.810922
vt 4.382705 0.507073
vt 4.63424 5.488576
vt 5.001438 0.9340577
vt 5.206815 5.001438
vt 5.488576 1.506633
vt 5.6338 4.382705
vt 5.810922 2.185779
vt 5.886095 3.674544
vt 5.946509 2.925213
vt 0.7248337 2.653846
vt -0.02692835 0.06923077
vt 0.7248337 0.06923077
vt -0.02692835 2.653846
vt 3.683134 2.653846
vt 2.931372 0.06923077
vt 3.683134 0.06923077
vt 2.931372 2.653846
vt -2.090425 2.653846
vt -2.842187 0.06923077
vt -2.090425 0.06923077
vt -2.842187 2.653846
vt -2.931372 2.653846
vt -3.683134 0.06923077
vt -2.931372 0.06923077
vt -3.683134 2.653846
vt -3.546934 2.653846
vt -4.298696 0.06923077
vt -3.546934 0.06923077
vt -4.298696 2.653846
vt -3.895163 2.653846
vt -4.646925 0.06923077
vt -3.895163 0.06923077
vt -4.646925 2.653846
vt -4.70409 2.653846
vt -3.952328 0.06923077
vt -3.952328 2.653846
vt -4.70409 0.06923077
vt -4.466294 2.653846
vt -3.714532 0.06923077
vt -3.714532 2.653846
vt -4.466294 0.06923077
vt -3.949743 2.653846
vt -3.197981 0.06923077
vt -3.197981 2.653846
vt -3.949743 0.06923077
vt -3.18964 2.653846
vt -2.437878 0.06923077
vt -2.437878 2.653846
vt -3.18964 0.06923077
vt -2.237784 2.653846
vt -1.486021 0.06923077
vt -1.486021 2.653846
vt -2.237784 0.06923077
vt -1.159041 2.653846
vt -0.4072794 0.06923077
vt -0.4072794 2.653846
vt -1.159041 0.06923077
vt 4.298696 2.653846
vt 3.546934 0.06923077
vt 4.298696 0.06923077
vt 3.546934 2.653846
vt 4.646925 2.653846
vt 3.895163 0.06923077
vt 4.646925 0.06923077
vt 3.895163 2.653846
vt 4.70409 0.06923077
vt 3.952328 2.653846
vt 3.952328 0.06923077
vt 4.70409 2.653846
vt 4.466294 0.06923077
vt 3.714532 2.653846
vt 3.714532 0.06923077
vt 4.466294 2.653846
vt 3.949743 0.06923077
vt 3.197981 2.653846
vt 3.197981 0.06923077
vt 3.949743 2.653846
vt 3.18964 0.06923077
vt 2.437878 2.653846
vt 2.437878 0.06923077
vt 3.18964 2.653846
vt 2.237784 0.06923077
vt 1.486021 2.653846
vt 1.486021 0.06923077
vt 2.237784 2.653846
vt 1.159041 0.06923077
vt 0.4072794 2.653846
vt 0.4072794 0.06923077
vt 1.159041 2.653846
vt 0.02692835 2.653846
vt -0.7248337 0.06923077
vt 0.02692835 0.06923077
vt -0.7248337 2.653846
vt -1.081404 2.653846
vt -1.833166 0.06923077
vt -1.081404 0.06923077
vt -1.833166 2.653846
vn 0.8397087780976916 0 0.543036985835847
vn 0.951644715912104 0 0.30720080513659254
vn -0.951644715912104 0 -0.30720080513659254
vn -0.8397087780976916 0 -0.543036985835847
vn 0.9987276272636185 0 0.05042942137664011
vn -0.9987276272636185 0 -0.05042942137664011
vn 0 1 0
vn 0 -1 0
vn 0.6705480782934135 0 0.7418660759847494
vn -0.6705480782934135 0 -0.7418660759847494
vn 0.977748892948035 0 -0.20977869848698164
vn -0.977748892948035 0 0.20977869848698164
vn -0.8901381870192351 0 0.4556906933547242
vn 0.8901381870192351 0 -0.4556906933547242
vn -0.7418660759847494 0 0.6705480782934135
vn 0.7418660759847494 0 -0.6705480782934135
vn -0.543036985835847 0 0.8397087780976916
vn 0.543036985835847 0 -0.8397087780976916
vn -0.30720080513659254 0 0.951644715912104
vn 0.30720080513659254 0 -0.951644715912104
vn -0.05042942137664011 0 0.9987276272636185
vn 0.05042942137664011 0 -0.9987276272636185
vn 0.20977869848698164 0 0.977748892948035
vn -0.20977869848698164 0 -0.977748892948035
vn 0.4556906933547242 0 0.8901381870192351
vn -0.4556906933547242 0 -0.8901381870192351
usemtl material_0_0
f 1/1/1 2/2/2 3/3/1
f 2/2/2 1/1/1 4/4/2
f 5/4/3 6/1/4 7/2/3
f 8/3/4 7/2/3 6/1/4
f 4/5/2 9/6/5 2/7/2
f 9/6/5 4/5/2 10/8/5
f 11/8/6 5/5/3 12/6/6
f 7/7/3 12/6/6 5/5/3
f 13/9/7 14/10/7 15/11/7
f 14/10/7 13/9/7 16/12/7
f 14/10/7 16/12/7 17/13/7
f 17/13/7 16/12/7 18/14/7
f 17/13/7 18/14/7 19/15/7
f 19/15/7 18/14/7 20/16/7
f 19/15/7 20/16/7 21/17/7
f 21/17/7 20/16/7 22/18/7
f 21/17/7 22/18/7 23/19/7
f 23/19/7 22/18/7 24/20/7
f 23/19/7 24/20/7 25/21/7
f 25/21/7 24/20/7 26/22/7
f 25/21/7 26/22/7 27/23/7
f 27/23/7 26/22/7 28/24/7
f 27/23/7 28/24/7 29/25/7
f 29/25/7 28/24/7 30/26/7
f 29/25/7 30/26/7 31/27/7
f 31/27/7 30/26/7 32/28/7
f 31/27/7 32/28/7 33/29/7
f 33/29/7 32/28/7 34/30/7
f 33/29/7 34/30/7 35/31/7
f 35/31/7 34/30/7 36/32/7
f 37/32/8 38/30/8 39/31/8
f 39/31/8 38/30/8 40/29/8
f 38/30/8 41/28/8 40/29/8
f 40/29/8 41/28/8 42/27/8
f 41/28/8 43/26/8 42/27/8
f 42/27/8 43/26/8 44/25/8
f 43/26/8 45/24/8 44/25/8
f 44/25/8 45/24/8 46/23/8
f 45/24/8 47/22/8 46/23/8
f 46/23/8 47/22/8 48/21/8
f 47/22/8 49/20/8 48/21/8
f 48/21/8 49/20/8 50/19/8
f 49/20/8 51/18/8 50/19/8
f 50/19/8 51/18/8 52/17/8
f 51/18/8 53/16/8 52/17/8
f 52/17/8 53/16/8 54/15/8
f 53/16/8 55/14/8 54/15/8
f 54/15/8 55/14/8 56/13/8
f 55/14/8 57/12/8 56/13/8
f 56/13/8 57/12/8 58/10/8
f 57/12/8 59/9/8 58/10/8
f 60/11/8 58/10/8 59/9/8
f 61/33/9 3/34/1 62/35/9
f 3/34/1 61/33/9 1/36/1
f 6/36/4 63/33/10 8/34/4
f 64/35/10 8/34/4 63/33/10
f 10/37/5 65/38/11 9/39/5
f 65/38/11 10/37/5 66/40/11
f 67/40/12 11/37/6 68/38/12
f 12/39/6 68/38/12 11/37/6
f 69/41/3 70/42/6 71/43/3
f 70/42/6 69/41/3 72/44/6
f 73/44/5 74/41/2 75/42/5
f 76/43/2 75/42/5 74/41/2
f 72/45/6 77/46/12 70/47/6
f 77/46/12 72/45/6 78/48/12
f 79/48/11 73/45/5 80/46/11
f 75/47/5 80/46/11 73/45/5
f 78/49/12 81/50/13 77/51/12
f 81/50/13 78/49/12 82/52/13
f 83/52/14 79/49/11 84/50/14
f 80/51/11 84/50/14 79/49/11
f 82/53/13 85/54/15 81/55/13
f 85/54/15 82/53/13 86/56/15
f 87/56/16 83/53/14 88/54/16
f 84/55/14 88/54/16 83/53/14
f 89/57/17 85/58/15 86/59/15
f 85/58/15 89/57/17 90/60/17
f 91/60/18 92/57/18 88/58/16
f 87/59/16 88/58/16 92/57/18
f 93/61/19 90/62/17 89/63/17
f 90/62/17 93/61/19 94/64/19
f 95/64/20 96/61/20 91/62/18
f 92/63/18 91/62/18 96/61/20
f 97/65/21 94/66/19 93/67/19
f 94/66/19 97/65/21 98/68/21
f 99/68/22 100/65/22 95/66/20
f 96/67/20 95/66/20 100/65/22
f 101/69/23 98/70/21 97/71/21
f 98/70/21 101/69/23 102/72/23
f 103/72/24 104/69/24 99/70/22
f 100/71/22 99/70/22 104/69/24
f 105/73/25 102/74/23 101/75/23
f 102/74/23 105/73/25 106/76/25
f 107/76/26 108/73/26 103/74/24
f 104/75/24 103/74/24 108/73/26
f 61/77/9 106/78/25 105/79/25
f 106/78/25 61/77/9 62/80/9
f 64/80/10 63/77/10 107/78/26
f 108/79/26 107/78/26 63/77/10
f 66/81/11 109/82/14 65/83/11
f 109/82/14 66/81/11 110/84/14
f 111/84/13 67/81/12 112/82/13
f 68/83/12 112/82/13 67/81/12
f 110/85/14 113/86/16 109/87/14
f 113/86/16 110/85/14 114/88/16
f 115/88/15 111/85/13 116/86/15
f 112/87/13 116/86/15 111/85/13
f 113/89/16 117/90/18 118/91/18
f 117/90/18 113/89/16 114/92/16
f 115/92/15 116/89/15 119/90/17
f 120/91/17 119/90/17 116/89/15
f 118/93/18 121/94/20 122/95/20
f 121/94/20 118/93/18 117/96/18
f 119/96/17 120/93/17 123/94/19
f 124/95/19 123/94/19 120/93/17
f 122/97/20 125/98/22 126/99/22
f 125/98/22 122/97/20 121/100/20
f 123/100/19 124/97/19 127/98/21
f 128/99/21 127/98/21 124/97/19
f 126/101/22 129/102/24 130/103/24
f 129/102/24 126/101/22 125/104/22
f 127/104/21 128/101/21 131/102/23
f 132/103/23 131/102/23 128/101/21
f 130/105/24 133/106/26 134/107/26
f 133/106/26 130/105/24 129/108/24
f 131/108/23 132/105/23 135/106/25
f 136/107/25 135/106/25 132/105/23
f 134/109/26 137/110/10 138/111/10
f 137/110/10 134/109/26 133/112/26
f 135/112/25 136/109/25 139/110/9
f 140/111/9 139/110/9 136/109/25
f 137/113/10 141/114/4 138/115/10
f 141/114/4 137/113/10 142/116/4
f 143/116/1 139/113/9 144/114/1
f 140/115/9 144/114/1 139/113/9
f 142/117/4 71/118/3 141/119/4
f 71/118/3 142/117/4 69/120/3
f 74/120/2 143/117/1 76/118/2
f 144/119/1 76/118/2 143/117/1
