# SSTK version 0.8.0
# 27
mtllib original-27.mtl
o group_16/ID189#ID189
v 0.900136 0.321687 -0.237131
v 0.901081 0.314505 0.273399
v 0.901081 0.314505 -0.237131
v 0.900136 0.321687 0.273399
v 0.900136 0.321687 0.273399
v 0.900136 0.321687 -0.237131
v 0.901081 0.314505 0.273399
v 0.901081 0.314505 -0.237131
v 0.846525 0.321687 -0.237131
v 0.846525 0.307322 -0.237131
v 0.845579 0.314505 -0.237131
v 0.849297 0.328380 -0.237131
v 0.849297 0.300629 -0.237131
v 0.853707 0.334128 -0.237131
v 0.853707 0.294882 -0.237131
v 0.859455 0.338538 -0.237131
v 0.859455 0.290472 -0.237131
v 0.866148 0.341311 -0.237131
v 0.866148 0.287699 -0.237131
v 0.873330 0.342256 -0.237131
v 0.873330 0.286754 -0.237131
v 0.880513 0.341311 -0.237131
v 0.880513 0.287699 -0.237131
v 0.887206 0.338538 -0.237131
v 0.887206 0.290472 -0.237131
v 0.892953 0.334128 -0.237131
v 0.892953 0.294882 -0.237131
v 0.897364 0.328380 -0.237131
v 0.897364 0.300629 -0.237131
v 0.900136 0.321687 -0.237131
v 0.900136 0.307322 -0.237131
v 0.901081 0.314505 -0.237131
v 0.901081 0.314505 -0.237131
v 0.900136 0.321687 -0.237131
v 0.900136 0.307322 -0.237131
v 0.897364 0.300629 -0.237131
v 0.897364 0.328380 -0.237131
v 0.892953 0.294882 -0.237131
v 0.892953 0.334128 -0.237131
v 0.887206 0.290472 -0.237131
v 0.887206 0.338538 -0.237131
v 0.880513 0.287699 -0.237131
v 0.880513 0.341311 -0.237131
v 0.873330 0.286754 -0.237131
v 0.873330 0.342256 -0.237131
v 0.866148 0.287699 -0.237131
v 0.866148 0.341311 -0.237131
v 0.859455 0.290472 -0.237131
v 0.859455 0.338538 -0.237131
v 0.853707 0.294882 -0.237131
v 0.853707 0.334128 -0.237131
v 0.849297 0.300629 -0.237131
v 0.849297 0.328380 -0.237131
v 0.846525 0.307322 -0.237131
v 0.846525 0.321687 -0.237131
v 0.845579 0.314505 -0.237131
v 0.897364 0.328380 -0.237131
v 0.897364 0.328380 0.273399
v 0.897364 0.328380 0.273399
v 0.897364 0.328380 -0.237131
v 0.846525 0.307322 0.273399
v 0.846525 0.321687 0.273399
v 0.845579 0.314505 0.273399
v 0.849297 0.300629 0.273399
v 0.849297 0.328380 0.273399
v 0.853707 0.294882 0.273399
v 0.853707 0.334128 0.273399
v 0.859455 0.290472 0.273399
v 0.859455 0.338538 0.273399
v 0.866148 0.287699 0.273399
v 0.866148 0.341311 0.273399
v 0.873330 0.286754 0.273399
v 0.873330 0.342256 0.273399
v 0.880513 0.287699 0.273399
v 0.880513 0.341311 0.273399
v 0.887206 0.290472 0.273399
v 0.887206 0.338538 0.273399
v 0.892953 0.294882 0.273399
v 0.892953 0.334128 0.273399
v 0.897364 0.300629 0.273399
v 0.897364 0.328380 0.273399
v 0.900136 0.307322 0.273399
v 0.900136 0.321687 0.273399
v 0.901081 0.314505 0.273399
v 0.901081 0.314505 0.273399
v 0.900136 0.307322 0.273399
v 0.900136 0.321687 0.273399
v 0.897364 0.328380 0.273399
v 0.897364 0.300629 0.273399
v 0.892953 0.334128 0.273399
v 0.892953 0.294882 0.273399
v 0.887206 0.338538 0.273399
v 0.887206 0.290472 0.273399
v 0.880513 0.341311 0.273399
v 0.880513 0.287699 0.273399
v 0.873330 0.342256 0.273399
v 0.873330 0.286754 0.273399
v 0.866148 0.341311 0.273399
v 0.866148 0.287699 0.273399
v 0.859455 0.338538 0.273399
v 0.859455 0.290472 0.273399
v 0.853707 0.334128 0.273399
v 0.853707 0.294882 0.273399
v 0.849297 0.328380 0.273399
v 0.849297 0.300629 0.273399
v 0.846525 0.321687 0.273399
v 0.846525 0.307322 0.273399
v 0.845579 0.314505 0.273399
v 0.900136 0.307322 0.273399
v 0.900136 0.307322 -0.237131
v 0.900136 0.307322 0.273399
v 0.900136 0.307322 -0.237131
v 0.846525 0.307322 0.273399
v 0.849297 0.300629 -0.237131
v 0.849297 0.300629 0.273399
v 0.846525 0.307322 -0.237131
v 0.846525 0.307322 -0.237131
v 0.846525 0.307322 0.273399
v 0.849297 0.300629 -0.237131
v 0.849297 0.300629 0.273399
v 0.845579 0.314505 0.273399
v 0.845579 0.314505 -0.237131
v 0.845579 0.314505 -0.237131
v 0.845579 0.314505 0.273399
v 0.846525 0.321687 0.273399
v 0.846525 0.321687 -0.237131
v 0.846525 0.321687 -0.237131
v 0.846525 0.321687 0.273399
v 0.849297 0.328380 0.273399
v 0.849297 0.328380 -0.237131
v 0.849297 0.328380 -0.237131
v 0.849297 0.328380 0.273399
v 0.853707 0.334128 0.273399
v 0.853707 0.334128 -0.237131
v 0.853707 0.334128 -0.237131
v 0.853707 0.334128 0.273399
v 0.859455 0.338538 -0.237131
v 0.859455 0.338538 0.273399
v 0.859455 0.338538 0.273399
v 0.859455 0.338538 -0.237131
v 0.866148 0.341311 -0.237131
v 0.866148 0.341311 0.273399
v 0.866148 0.341311 0.273399
v 0.866148 0.341311 -0.237131
v 0.873330 0.342256 -0.237131
v 0.873330 0.342256 0.273399
v 0.873330 0.342256 0.273399
v 0.873330 0.342256 -0.237131
v 0.880513 0.341311 -0.237131
v 0.880513 0.341311 0.273399
v 0.880513 0.341311 0.273399
v 0.880513 0.341311 -0.237131
v 0.887206 0.338538 -0.237131
v 0.887206 0.338538 0.273399
v 0.887206 0.338538 0.273399
v 0.887206 0.338538 -0.237131
v 0.892953 0.334128 -0.237131
v 0.892953 0.334128 0.273399
v 0.892953 0.334128 0.273399
v 0.892953 0.334128 -0.237131
v 0.897364 0.300629 0.273399
v 0.897364 0.300629 -0.237131
v 0.897364 0.300629 0.273399
v 0.897364 0.300629 -0.237131
v 0.892953 0.294882 0.273399
v 0.892953 0.294882 -0.237131
v 0.892953 0.294882 0.273399
v 0.892953 0.294882 -0.237131
v 0.887206 0.290472 -0.237131
v 0.887206 0.290472 0.273399
v 0.887206 0.290472 0.273399
v 0.887206 0.290472 -0.237131
v 0.880513 0.287699 -0.237131
v 0.880513 0.287699 0.273399
v 0.880513 0.287699 0.273399
v 0.880513 0.287699 -0.237131
v 0.873330 0.286754 -0.237131
v 0.873330 0.286754 0.273399
v 0.873330 0.286754 0.273399
v 0.873330 0.286754 -0.237131
v 0.866148 0.287699 -0.237131
v 0.866148 0.287699 0.273399
v 0.866148 0.287699 0.273399
v 0.866148 0.287699 -0.237131
v 0.859455 0.290472 -0.237131
v 0.859455 0.290472 0.273399
v 0.859455 0.290472 0.273399
v 0.859455 0.290472 -0.237131
v 0.853707 0.294882 -0.237131
v 0.853707 0.294882 0.273399
v 0.853707 0.294882 0.273399
v 0.853707 0.294882 -0.237131
vt 0 0.1388776
vt -2.576923 0.1023104
vt 0 0.1023104
vt -2.576923 0.1388776
vt -0.004772972 0.1763303
vt -0.004772972 0.1038216
vt 0 0.140076
vt -0.01876662 0.2101139
vt -0.01876662 0.07003798
vt -0.0410273 0.2391246
vt -0.0410273 0.0410273
vt -0.07003798 0.2613853
vt -0.07003798 0.01876662
vt -0.1038216 0.2753789
vt -0.1038216 0.004772972
vt -0.140076 0.2801519
vt -0.140076 0
vt -0.1763303 0.2753789
vt -0.1763303 0.004772972
vt -0.2101139 0.2613853
vt -0.2101139 0.01876662
vt -0.2391246 0.2391246
vt -0.2391246 0.0410273
vt -0.2613853 0.2101139
vt -0.2613853 0.07003798
vt -0.2753789 0.1763303
vt -0.2753789 0.1038216
vt -0.2801519 0.140076
vt 0 0.09409214
vt -2.576923 0.05752498
vt 0 0.05752498
vt -2.576923 0.09409214
vt 0.004772972 0.1038216
vt 0.004772972 0.1763303
vt 0.01876662 0.07003798
vt 0.01876662 0.2101139
vt 0.0410273 0.0410273
vt 0.0410273 0.2391246
vt 0.07003798 0.01876662
vt 0.07003798 0.2613853
vt 0.1038216 0.004772972
vt 0.1038216 0.2753789
vt 0.140076 0
vt 0.140076 0.2801519
vt 0.1763303 0.004772972
vt 0.1763303 0.2753789
vt 0.2101139 0.01876662
vt 0.2101139 0.2613853
vt 0.2391246 0.0410273
vt 0.2391246 0.2391246
vt 0.2613853 0.07003798
vt 0.2613853 0.2101139
vt 0.2753789 0.1038216
vt 0.2753789 0.1763303
vt 0.2801519 0.140076
vt 0 0.1754447
vt -2.576923 0.1754447
vt 2.576923 0.09409214
vt 2.576923 0.05752498
vt 2.576923 0.1388776
vt 2.576923 0.1023104
vt 2.576923 0.1754447
vt 2.576923 0.2013016
vt 0 0.1647345
vt 2.576923 0.1647345
vt 0 0.2013016
vt 2.576923 0.2146861
vt 0 0.178119
vt 2.576923 0.178119
vt 0 0.2146861
vt -2.576923 -0.1023104
vt 0 -0.1388776
vt 0 -0.1023104
vt -2.576923 -0.1388776
vt -2.576923 -0.05752498
vt 0 -0.09409214
vt 0 -0.05752498
vt -2.576923 -0.09409214
vt -2.576923 -0.007573307
vt 0 -0.04414047
vt 0 -0.007573307
vt -2.576923 -0.04414047
vt 0 0.04414047
vt -2.576923 0.007573307
vt 0 0.007573307
vt -2.576923 0.04414047
vt -2.576923 0.1647345
vt -2.576923 0.2013016
vt -2.576923 0.178119
vt -2.576923 0.2146861
vt 2.576923 -0.1388776
vt 2.576923 -0.1023104
vt 2.576923 -0.09409214
vt 2.576923 -0.05752498
vt 2.576923 -0.04414047
vt 2.576923 -0.007573307
vt 2.576923 0.04414047
vt 2.576923 0.007573307
vn 0.9659258358036645 0.25881900959356163 0
vn 1 0 0
vn -0.9659258358036645 -0.25881900959356163 0
vn -1 0 0
vn 0 0 -1
vn 0 0 1
vn 0.866025402838329 0.5000000016387101 0
vn -0.866025402838329 -0.5000000016387101 0
vn 0.9659258358036645 -0.25881900959356163 0
vn -0.9659258358036645 0.25881900959356163 0
vn -0.866025402838329 0.5000000016387101 0
vn 0.866025402838329 -0.5000000016387101 0
vn -0.7071067811865476 0.7071067811865476 0
vn 0.7071067811865476 -0.7071067811865476 0
vn -0.5000000016387101 0.866025402838329 0
vn 0.5000000016387101 -0.866025402838329 0
vn -0.25881900959356163 0.9659258358036645 0
vn 0.25881900959356163 -0.9659258358036645 0
vn 0 1 0
vn 0 -1 0
vn 0.25881900959356163 0.9659258358036645 0
vn -0.25881900959356163 -0.9659258358036645 0
vn 0.5000000016387101 0.866025402838329 0
vn -0.5000000016387101 -0.866025402838329 0
vn 0.7071067811865476 0.7071067811865476 0
vn -0.7071067811865476 -0.7071067811865476 0
usemtl material_0_0
f 1/1/1 2/2/2 3/3/2
f 2/2/2 1/1/1 4/4/1
f 5/4/3 6/1/3 7/2/4
f 8/3/4 7/2/4 6/1/3
f 9/5/5 10/6/5 11/7/5
f 10/6/5 9/5/5 12/8/5
f 10/6/5 12/8/5 13/9/5
f 13/9/5 12/8/5 14/10/5
f 13/9/5 14/10/5 15/11/5
f 15/11/5 14/10/5 16/12/5
f 15/11/5 16/12/5 17/13/5
f 17/13/5 16/12/5 18/14/5
f 17/13/5 18/14/5 19/15/5
f 19/15/5 18/14/5 20/16/5
f 19/15/5 20/16/5 21/17/5
f 21/17/5 20/16/5 22/18/5
f 21/17/5 22/18/5 23/19/5
f 23/19/5 22/18/5 24/20/5
f 23/19/5 24/20/5 25/21/5
f 25/21/5 24/20/5 26/22/5
f 25/21/5 26/22/5 27/23/5
f 27/23/5 26/22/5 28/24/5
f 27/23/5 28/24/5 29/25/5
f 29/25/5 28/24/5 30/26/5
f 29/25/5 30/26/5 31/27/5
f 31/27/5 30/26/5 32/28/5
f 33/28/6 34/26/6 35/27/6
f 35/27/6 34/26/6 36/25/6
f 34/26/6 37/24/6 36/25/6
f 36/25/6 37/24/6 38/23/6
f 37/24/6 39/22/6 38/23/6
f 38/23/6 39/22/6 40/21/6
f 39/22/6 41/20/6 40/21/6
f 40/21/6 41/20/6 42/19/6
f 41/20/6 43/18/6 42/19/6
f 42/19/6 43/18/6 44/17/6
f 43/18/6 45/16/6 44/17/6
f 44/17/6 45/16/6 46/15/6
f 45/16/6 47/14/6 46/15/6
f 46/15/6 47/14/6 48/13/6
f 47/14/6 49/12/6 48/13/6
f 48/13/6 49/12/6 50/11/6
f 49/12/6 51/10/6 50/11/6
f 50/11/6 51/10/6 52/9/6
f 51/10/6 53/8/6 52/9/6
f 52/9/6 53/8/6 54/6/6
f 53/8/6 55/5/6 54/6/6
f 56/7/6 54/6/6 55/5/6
f 57/29/7 4/30/1 1/31/1
f 4/30/1 57/29/7 58/32/7
f 59/32/8 60/29/8 5/30/3
f 6/31/3 5/30/3 60/29/8
f 61/33/6 62/34/6 63/7/6
f 62/34/6 61/33/6 64/35/6
f 62/34/6 64/35/6 65/36/6
f 65/36/6 64/35/6 66/37/6
f 65/36/6 66/37/6 67/38/6
f 67/38/6 66/37/6 68/39/6
f 67/38/6 68/39/6 69/40/6
f 69/40/6 68/39/6 70/41/6
f 69/40/6 70/41/6 71/42/6
f 71/42/6 70/41/6 72/43/6
f 71/42/6 72/43/6 73/44/6
f 73/44/6 72/43/6 74/45/6
f 73/44/6 74/45/6 75/46/6
f 75/46/6 74/45/6 76/47/6
f 75/46/6 76/47/6 77/48/6
f 77/48/6 76/47/6 78/49/6
f 77/48/6 78/49/6 79/50/6
f 79/50/6 78/49/6 80/51/6
f 79/50/6 80/51/6 81/52/6
f 81/52/6 80/51/6 82/53/6
f 81/52/6 82/53/6 83/54/6
f 83/54/6 82/53/6 84/55/6
f 85/55/5 86/53/5 87/54/5
f 87/54/5 86/53/5 88/52/5
f 86/53/5 89/51/5 88/52/5
f 88/52/5 89/51/5 90/50/5
f 89/51/5 91/49/5 90/50/5
f 90/50/5 91/49/5 92/48/5
f 91/49/5 93/47/5 92/48/5
f 92/48/5 93/47/5 94/46/5
f 93/47/5 95/45/5 94/46/5
f 94/46/5 95/45/5 96/44/5
f 95/45/5 97/43/5 96/44/5
f 96/44/5 97/43/5 98/42/5
f 97/43/5 99/41/5 98/42/5
f 98/42/5 99/41/5 100/40/5
f 99/41/5 101/39/5 100/40/5
f 100/40/5 101/39/5 102/38/5
f 101/39/5 103/37/5 102/38/5
f 102/38/5 103/37/5 104/36/5
f 103/37/5 105/35/5 104/36/5
f 104/36/5 105/35/5 106/34/5
f 105/35/5 107/33/5 106/34/5
f 108/7/5 106/34/5 107/33/5
f 3/56/2 109/4/9 110/1/9
f 109/4/9 3/56/2 2/57/2
f 7/57/4 8/56/4 111/4/10
f 112/1/10 111/4/10 8/56/4
f 113/58/3 114/31/8 115/59/8
f 114/31/8 113/58/3 116/29/3
f 117/29/1 118/58/1 119/31/7
f 120/59/7 119/31/7 118/58/1
f 121/60/4 116/3/3 113/61/3
f 116/3/3 121/60/4 122/1/4
f 123/1/2 124/60/2 117/3/1
f 118/61/1 117/3/1 124/60/2
f 125/62/10 122/1/4 121/60/4
f 122/1/4 125/62/10 126/56/10
f 127/56/9 128/62/9 123/1/2
f 124/60/2 123/1/2 128/62/9
f 129/63/11 126/64/10 125/65/10
f 126/64/10 129/63/11 130/66/11
f 131/66/12 132/63/12 127/64/9
f 128/65/9 127/64/9 132/63/12
f 133/67/13 130/68/11 129/69/11
f 130/68/11 133/67/13 134/70/13
f 135/70/14 136/67/14 131/68/12
f 132/69/12 131/68/12 136/67/14
f 133/69/13 137/70/15 134/68/13
f 137/70/15 133/69/13 138/67/15
f 139/67/16 136/69/14 140/70/16
f 135/68/14 140/70/16 136/69/14
f 138/65/15 141/66/17 137/64/15
f 141/66/17 138/65/15 142/63/17
f 143/63/18 139/65/16 144/66/18
f 140/64/16 144/66/18 139/65/16
f 142/60/17 145/56/19 141/1/17
f 145/56/19 142/60/17 146/62/19
f 147/62/20 143/60/18 148/56/20
f 144/1/18 148/56/20 143/60/18
f 146/71/19 149/72/21 145/73/19
f 149/72/21 146/71/19 150/74/21
f 151/74/22 147/71/20 152/72/22
f 148/73/20 152/72/22 147/71/20
f 150/75/21 153/76/23 149/77/21
f 153/76/23 150/75/21 154/78/23
f 155/78/24 151/75/22 156/76/24
f 152/77/22 156/76/24 151/75/22
f 154/79/23 157/80/25 153/81/23
f 157/80/25 154/79/23 158/82/25
f 159/82/26 155/79/24 160/80/26
f 156/81/24 160/80/26 155/79/24
f 157/83/25 58/84/7 57/85/7
f 58/84/7 157/83/25 158/86/25
f 159/86/26 160/83/26 59/84/8
f 60/85/8 59/84/8 160/83/26
f 110/66/9 161/87/12 162/64/12
f 161/87/12 110/66/9 109/88/9
f 111/88/10 112/66/10 163/87/11
f 164/64/11 163/87/11 112/66/10
f 162/70/12 165/89/14 166/68/14
f 165/89/14 162/70/12 161/90/12
f 163/90/11 164/70/11 167/89/13
f 168/68/13 167/89/13 164/70/11
f 165/90/14 169/68/16 166/70/14
f 169/68/16 165/90/14 170/89/16
f 171/89/15 167/90/13 172/68/15
f 168/70/13 172/68/15 167/90/13
f 170/88/16 173/64/18 169/66/16
f 173/64/18 170/88/16 174/87/18
f 175/87/17 171/88/15 176/64/17
f 172/66/15 176/64/17 171/88/15
f 174/57/18 177/1/20 173/56/18
f 177/1/20 174/57/18 178/4/20
f 179/4/19 175/57/17 180/1/19
f 176/56/17 180/1/19 175/57/17
f 178/91/20 181/73/22 177/72/20
f 181/73/22 178/91/20 182/92/22
f 183/92/21 179/91/19 184/73/21
f 180/72/19 184/73/21 179/91/19
f 182/93/22 185/77/24 181/76/22
f 185/77/24 182/93/22 186/94/24
f 187/94/23 183/93/21 188/77/23
f 184/76/21 188/77/23 183/93/21
f 186/95/24 189/81/26 185/80/24
f 189/81/26 186/95/24 190/96/26
f 191/96/25 187/95/23 192/81/25
f 188/80/23 192/81/25 187/95/23
f 115/97/8 189/85/26 190/98/26
f 189/85/26 115/97/8 114/83/8
f 119/83/7 120/97/7 192/85/25
f 191/98/25 192/85/25 120/97/7
